SplineFontDB: 3.2
FontName: Caladea-Math
FullName: Caladea Math
FamilyName: Caladea Math
Weight: Normal
Copyright: Copyright (C) 2007-2019 Apostolos Syropoulos. \nCopyright (C) 2000 Young Ryu.\nCopyright (C) 1997, 1999 Claudio Beccari.
Version: 000.958
ItalicAngle: 0
UnderlinePosition: -407
UnderlineWidth: 59
Ascent: 800
Descent: 200
InvalidEm: 0
sfntRevision: 0x0000ee98
LayerCount: 2
Layer: 0 0 "Back" 1
Layer: 1 0 "Fore" 0
XUID: [1021 282 2012869056 14221565]
StyleMap: 0x0040
FSType: 0
OS2Version: 4
OS2_WeightWidthSlopeOnly: 0
OS2_UseTypoMetrics: 1
CreationTime: 1170332756
ModificationTime: 1719080864
PfmFamily: 17
TTFWeight: 400
TTFWidth: 5
LineGap: 25
VLineGap: 0
Panose: 2 0 6 3 0 0 0 0 0 0
OS2TypoAscent: 726
OS2TypoAOffset: 0
OS2TypoDescent: -281
OS2TypoDOffset: 0
OS2TypoLinegap: 49
OS2WinAscent: 2598
OS2WinAOffset: 0
OS2WinDescent: 1156
OS2WinDOffset: 0
HheadAscent: 943
HheadAOffset: 0
HheadDescent: -286
HheadDOffset: 0
OS2SubXSize: 650
OS2SubYSize: 699
OS2SubXOff: 0
OS2SubYOff: 95
OS2SupXSize: 650
OS2SupYSize: 699
OS2SupXOff: 0
OS2SupYOff: 360
OS2StrikeYSize: 50
OS2StrikeYPos: 250
OS2CapHeight: 692
OS2XHeight: 462
OS2FamilyClass: 527
OS2Vendor: 'PfEd'
OS2CodePages: 60000009.00000000
OS2UnicodeRanges: 800000e7.0201e1ff.06001000.00000000
Lookup: 1 0 0 "'onum' Oldstyle Figures lookup 0" { "'onum' Oldstyle Figures lookup 0 subtable" ("oldstyle") } ['onum' ('DFLT' <'dflt' > 'cher' <'dflt' > 'grek' <'dflt' > 'latn' <'dflt' > 'math' <'dflt' > ) ]
Lookup: 1 0 0 "'salt' Stylistic Alternatives lookup 1" { "'salt' Stylistic Alternatives lookup 1 subtable"  } ['salt' ('DFLT' <'dflt' > 'cher' <'dflt' > 'grek' <'dflt' > 'latn' <'dflt' > ) ]
Lookup: 1 0 0 "'dtls' Dotless Forms lookup 2" { "'dtls' Dotless Forms lookup 2 subtable"  } ['dtls' ('latn' <'dflt' > 'math' <'dflt' > ) ]
Lookup: 1 0 0 "'salt' Stylistic Alternatives in Mathematical text layout lookup 3" { "'salt' Stylistic Alternatives in Mathematical text layout lookup 3 subtable"  } ['salt' ('math' <'dflt' > ) ]

StartChar: .notdef
Encoding: 1114112 -1 0
Width: 525
GlyphClass: 1
Flags: MW
HStem: 0 43<64 437 87 437 87 445> 61 87<231 253.5 231 254> 469 21G<148 148> 536 50<237.5 255> 619 43<87 437 87 87>
VStem: 44 43<43 619 43 627 43 642> 200 86<94 116> 205 32<245 259.5 241 290> 320 70<448.5 478> 437 43<43 619 619 619>
LayerCount: 2
Fore
SplineSet
205 256 m 0xfdc0
 205 324 320 377 320 454 c 0
 320 502 282 536 228 536 c 0
 194 536 171 525 163 505 c 2
 148 469 l 1
 126 475 l 1
 154 559 l 1
 194 579 221 586 254 586 c 0
 331 586 390 535 390 470 c 0
 390 427 372 398 308 340 c 0
 247 285 237 272 237 247 c 0
 237 235 242 225 254 211 c 1
 238 201 l 1
 216 215 205 234 205 256 c 0xfdc0
242 148 m 0
 265 148 286 127 286 105 c 0
 286 82 266 61 242 61 c 0
 220 61 200 83 200 105 c 0xfec0
 200 127 220 148 242 148 c 0
437 619 m 1
 87 619 l 1
 87 43 l 1
 437 43 l 1
 437 619 l 1
480 627 m 2
 480 35 l 2
 480 5 475 0 445 0 c 2
 79 0 l 2
 49 0 44 5 44 35 c 2
 44 627 l 2
 44 657 49 662 79 662 c 2
 445 662 l 2
 475 662 480 657 480 627 c 2
EndSplineSet
EndChar

StartChar: exclam
Encoding: 33 33 3
Width: 277
GlyphClass: 2
Flags: MW
HStem: -5 116<123 153> 674 20G<160 194 194 194>
VStem: 81 116<38 68> 120 38<205 248 222 248>
LayerCount: 2
Fore
SplineSet
138 111 m 0xe0
 169 111 197 83 197 53 c 0
 197 22 169 -5 137 -5 c 0
 108 -5 81 23 81 53 c 0
 81 83 108 111 138 111 c 0xe0
160 694 m 1
 194 694 l 1
 194 669 l 2
 194 613 184 560 182 526 c 2
 158 248 l 1
 158 223 l 1
 130 200 l 1
 120 205 l 1
 120 222 l 1xd0
 92 550 l 2
 90 579 88 603 85 656 c 1
 160 694 l 1
EndSplineSet
EndChar

StartChar: quotedbl
Encoding: 34 34 4
Width: 370
GlyphClass: 2
Flags: MW
HStem: 469 240<85 105 85 85 266 266 266 286>
VStem: 52 86<665 680 670 679.5> 85 20<469 469> 233 86<669.5 670 670 679.5 669.5 680> 266 20<469 469>
LayerCount: 2
Fore
SplineSet
105 469 m 1xa0
 85 469 l 1xa0
 52 665 l 1
 52 670 l 2
 52 689 74 709 95 709 c 0
 116 709 138 689 138 671 c 0xc0
 138 669 138 667 137 665 c 2
 105 469 l 1xa0
286 469 m 1x88
 266 469 l 1x88
 233 665 l 1
 233 670 l 2
 233 690 254 709 276 709 c 0
 297 709 319 689 319 670 c 0x90
 319 669 319 667 318 665 c 2
 286 469 l 1x88
EndSplineSet
EndChar

StartChar: numbersign
Encoding: 35 35 5
Width: 499
GlyphClass: 2
Flags: MW
HStem: 224 56<4 111 4 120 178 303 4 169 370 470> 419 56<31 141 31 149 31 199 207 332 398 495>
LayerCount: 2
Fore
SplineSet
470 280 m 1
 470 224 l 1
 361 224 l 1
 330 0 l 1
 272 0 l 1
 303 224 l 1
 169 224 l 1
 136 0 l 1
 78 0 l 1
 111 224 l 1
 4 224 l 1
 4 280 l 1
 120 280 l 1
 141 419 l 1
 31 419 l 1
 31 475 l 1
 149 475 l 1
 180 684 l 1
 238 684 l 1
 207 475 l 1
 340 475 l 1
 370 684 l 1
 428 684 l 1
 398 475 l 1
 495 475 l 1
 495 419 l 1
 390 419 l 1
 370 280 l 1
 470 280 l 1
332 419 m 1
 199 419 l 1
 178 280 l 1
 312 280 l 1
 332 419 l 1
EndSplineSet
EndChar

StartChar: dollar
Encoding: 36 36 6
Width: 499
GlyphClass: 2
Flags: MW
HStem: -18 36<223 223> 297 82<223 223> 633 36<260 260>
VStem: 30 75<457.5 495> 42 32<172 172> 223 37<18 292 379 630 630 630> 381 32<500 527 500 542 500 560.5> 392 79<169.5 209.5>
LayerCount: 2
Fore
SplineSet
260 373 m 1xf6
 375 361 471 341 471 207 c 0
 471 132 437 68 374 27 c 0
 341 5 315 -5 260 -16 c 1
 264 -116 l 1
 219 -116 l 1
 221 -95 221 -82 223 -18 c 1
 161 -17 95 -2 30 24 c 1xf5
 36 63 39 93 42 172 c 1
 74 172 l 1
 74 108 l 2xec
 74 84 76 79 88 67 c 0
 116 40 158 25 223 18 c 1
 223 297 l 1
 116 309 30 328 30 458 c 0
 30 532 61 592 118 629 c 0
 148 649 172 657 223 666 c 1
 219 731 l 1
 264 731 l 1
 262 712 261 700 260 669 c 1
 340 663 379 653 426 626 c 1
 417 593 413 554 413 500 c 1
 381 500 l 1
 381 542 l 2
 381 579 377 591 358 604 c 0
 333 620 306 629 260 633 c 1
 260 373 l 1xf6
260 292 m 1
 260 18 l 1
 340 32 392 92 392 173 c 0
 392 246 358 277 260 292 c 1
223 379 m 1
 223 630 l 1
 187 626 171 620 151 604 c 0
 121 580 105 541 105 494 c 0
 105 421 137 390 223 379 c 1
EndSplineSet
EndChar

StartChar: percent
Encoding: 37 37 7
Width: 839
GlyphClass: 2
Flags: MW
HStem: -20 21G<210 250 210 210> 0 23<614.5 668 614.5 686.5> 298 23<619.5 672.5> 368 23<167.5 221 167.5 239.5> 666 23<172.5 225.5> 689 20G
VStem: 39 72<483 569 483 570.5> 283 72<490 574> 486 72<115 201 115 202.5> 730 72<122 206>
LayerCount: 2
Fore
SplineSet
203 689 m 0x3bc0
 290 689 355 623 355 535 c 0
 355 439 286 368 193 368 c 0
 104 368 39 433 39 522 c 0
 39 619 108 689 203 689 c 0x3bc0
200 666 m 0
 145 666 111 612 111 526 c 0
 111 440 141 391 194 391 c 0
 248 391 283 447 283 533 c 0
 283 615 251 666 200 666 c 0
650 321 m 0
 737 321 802 255 802 167 c 0
 802 71 733 0 640 0 c 0x73c0
 551 0 486 65 486 154 c 0
 486 251 555 321 650 321 c 0
647 298 m 0
 592 298 558 244 558 158 c 0
 558 72 588 23 641 23 c 0
 695 23 730 79 730 165 c 0
 730 247 698 298 647 298 c 0
250 -20 m 1xb7c0
 210 -20 l 1
 576 709 l 1
 616 709 l 1
 250 -20 l 1xb7c0
EndSplineSet
EndChar

StartChar: ampersand
Encoding: 38 38 8
Width: 777
GlyphClass: 2
Flags: MW
HStem: -20 56<251.5 285.5> -20 75<608 694.5> 334 53 344 45<418 451> 636 53<312.5 315.5>
VStem: 43 87<162.5 236.5> 168 70<539.5 540.5> 357 67<554 588> 532 63<263.5 274.5>
LayerCount: 2
Fore
SplineSet
424 599 m 0xaf80
 424 509 349 448 280 397 c 1
 336 306 395 232 484 141 c 1
 520 189 532 218 532 254 c 0
 532 295 520 330 505 334 c 0xaf80
 493 337 477 339 418 344 c 1
 451 389 l 1x1f80
 501 387 522 387 548 387 c 2
 742 394 l 1
 733 365 730 347 730 322 c 1
 691 328 661 331 590 334 c 1
 594 319 595 310 595 295 c 0
 595 232 573 184 514 118 c 1
 599 69 637 55 686 55 c 0
 703 55 717 60 747 74 c 1
 753 49 l 1
 666 -14 l 2
 660 -18 650 -20 632 -20 c 0x6f80
 584 -20 509 12 451 57 c 1
 380 2 322 -20 249 -20 c 0
 130 -20 43 60 43 172 c 0
 43 301 158 364 198 387 c 1
 177 440 168 479 168 520 c 0
 168 561 177 593 192 606 c 1
 215 638 237 653 260 666 c 1
 278 682 299 689 326 689 c 0
 388 689 424 656 424 599 c 0xaf80
213 352 m 1
 152 304 130 267 130 209 c 0
 130 116 207 36 296 36 c 0
 336 36 373 50 420 82 c 1
 307 208 258 271 213 352 c 1
264 431 m 1
 314 470 357 528 357 569 c 0
 357 607 332 636 299 636 c 0
 259 636 238 608 238 557 c 0
 238 522 245 487 264 431 c 1
EndSplineSet
EndChar

StartChar: quotesingle
Encoding: 39 39 9
Width: 277
GlyphClass: 2
Flags: MW
HStem: 446 263<60 220>
VStem: 45 188
LayerCount: 2
Fore
SplineSet
104 470 m 1
 60 446 l 1
 45 456 l 1
 93 533 117 599 123 679 c 1
 174 694 184 697 220 709 c 1
 233 696 l 1
 199 610 161 543 104 470 c 1
EndSplineSet
EndChar

StartChar: parenleft
Encoding: 40 40 10
Width: 332
GlyphClass: 2
Flags: MW
GlyphVariantsVertical: parenleft parenBigl parenbiggl parenBiggl
GlyphCompositionVertical: 3  uni239D%0,0,35,884 uni239C%1,15,15,326 uni239B%0,35,0,884
HStem: 706 20G<282 282>
VStem: 60 86<212.5 396 125.5 404>
LayerCount: 2
Fore
SplineSet
146 266 m 0
 146 -15 255 -137 301 -194 c 1
 282 -215 l 1
 200 -138 168 -99 133 -32 c 0
 85 58 60 159 60 266 c 0
 60 542 225 675 282 726 c 1
 301 700 l 1
 243 632 146 526 146 266 c 0
EndSplineSet
EndChar

StartChar: parenright
Encoding: 41 41 11
Width: 332
GlyphClass: 2
Flags: MW
GlyphVariantsVertical: parenright parenBigr parenbiggr parenBiggr
GlyphCompositionVertical: 3  uni23A0%0,0,35,884 uni239F%1,15,15,326 uni239E%0,35,0,884
HStem: 706 20G<51 51>
VStem: 187 86<128 396>
LayerCount: 2
Fore
SplineSet
51 726 m 1
 108 675 273 542 273 265 c 0
 273 -23 104 -165 51 -215 c 1
 32 -194 l 1
 83 -131 187 -10 187 266 c 0
 187 526 87 636 32 700 c 1
 51 726 l 1
EndSplineSet
EndChar

StartChar: asterisk
Encoding: 42 42 12
Width: 388
GlyphClass: 2
Flags: MW
VStem: 34 325<241 341>
LayerCount: 2
Fore
SplineSet
168 267 m 1
 37 331 l 1
 34 341 l 1
 78 393 l 1
 88 393 l 1
 183 295 l 1
 209 438 l 1
 218 442 l 1
 280 422 l 1
 283 408 l 1
 214 283 l 1
 353 307 l 1
 359 303 l 1
 359 241 l 1
 350 233 l 1
 212 253 l 1
 280 131 l 1
 280 121 l 1
 212 95 l 1
 202 99 l 1
 184 241 l 1
 78 153 l 1
 68 153 l 1
 32 204 l 1
 37 213 l 1
 168 267 l 1
EndSplineSet
EndChar

StartChar: plus
Encoding: 43 43 13
Width: 668
GlyphClass: 2
Flags: MW
HStem: 241 59<65 305 65 305 364 604>
VStem: 305 59<0 241 0 241 300 538>
LayerCount: 2
Fore
SplineSet
604 241 m 1
 364 241 l 1
 364 0 l 1
 305 0 l 1
 305 241 l 1
 65 241 l 1
 65 300 l 1
 305 300 l 1
 305 538 l 1
 364 538 l 1
 364 300 l 1
 604 300 l 1
 604 241 l 1
EndSplineSet
EndChar

StartChar: comma
Encoding: 44 44 14
Width: 249
GlyphClass: 2
Flags: MW
HStem: -155 278<30 204>
VStem: 16 202
LayerCount: 2
Fore
SplineSet
204 123 m 1
 218 109 l 1
 190 32 152 -31 71 -136 c 1
 30 -155 l 1
 16 -144 l 1
 74 -48 99 17 106 93 c 1
 159 108 177 114 204 123 c 1
EndSplineSet
EndChar

StartChar: hyphen
Encoding: 45 45 15
Width: 332
GlyphClass: 2
Flags: MW
HStem: 215 72<46 284 24 308>
VStem: 18 296<220 282>
LayerCount: 2
Fore
SplineSet
284 215 m 1
 24 215 l 1
 18 220 l 1
 46 287 l 1
 308 287 l 1
 314 282 l 1
 284 215 l 1
EndSplineSet
EndChar

StartChar: period
Encoding: 46 46 16
Width: 249
GlyphClass: 2
Flags: MW
HStem: -5 116<109 139>
VStem: 67 116<38 68>
LayerCount: 2
Fore
SplineSet
124 111 m 0
 155 111 183 83 183 53 c 0
 183 22 155 -5 123 -5 c 0
 94 -5 67 23 67 53 c 0
 67 83 94 111 124 111 c 0
EndSplineSet
EndChar

StartChar: slash
Encoding: 47 47 17
Width: 286
GlyphClass: 2
Flags: W
GlyphVariantsVertical: slash fractionbig fractionBig fractionbigg fractionBigg
LayerCount: 2
Fore
SplineSet
297 714 m 1
 18 -169 l 1
 -37 -169 l 1
 242 714 l 1
 297 714 l 1
EndSplineSet
EndChar

StartChar: zero
Encoding: 48 48 18
Width: 499
GlyphClass: 2
Flags: MW
HStem: -20 35<207 297 202.5 313.5> 654 35<197.5 293.5>
VStem: 29 84<265.5 445> 381 84<238 436>
LayerCount: 2
Fore
SplineSet
263 689 m 0
 400 689 465 585 465 366 c 0
 465 110 389 -20 238 -20 c 0
 176 -20 120 8 85 57 c 0
 50 106 29 207 29 324 c 0
 29 566 108 689 263 689 c 0
245 654 m 0
 150 654 113 571 113 360 c 0
 113 116 154 15 251 15 c 0
 343 15 381 103 381 316 c 0
 381 556 342 654 245 654 c 0
EndSplineSet
AlternateSubs2: "'ssty' Math Script Style lookup 4 subtable" glyph3567 glyph3577
Substitution2: "'onum' Oldstyle Figures lookup 0 subtable" zero.onum
EndChar

StartChar: one
Encoding: 49 49 19
Width: 443
GlyphClass: 2
Flags: MW
HStem: -3 30<40 40> 680 20G<245 245>
VStem: 161 84<96 614 614 614>
LayerCount: 2
Fore
SplineSet
362 -3 m 1
 346 -3 236 0 205 0 c 0
 194 0 194 0 40 -3 c 1
 40 27 l 1
 96 30 l 2
 150 33 161 44 161 96 c 2
 161 614 l 1
 11 548 l 1
 4 598 l 1
 245 700 l 1
 245 96 l 2
 245 44 255 33 310 30 c 2
 362 27 l 1
 362 -3 l 1
EndSplineSet
AlternateSubs2: "'ssty' Math Script Style lookup 4 subtable" glyph3568 glyph3578
Substitution2: "'onum' Oldstyle Figures lookup 0 subtable" one.onum
EndChar

StartChar: two
Encoding: 50 50 20
Width: 499
GlyphClass: 2
Flags: MW
HStem: -3 80<16 122> 612 77<190 243>
VStem: 39 29<483 483> 341 90<465.5 515.5>
LayerCount: 2
Fore
SplineSet
16 23 m 1
 186 204 l 2
 299 324 341 398 341 473 c 0
 341 558 286 612 200 612 c 0
 133 612 97 587 81 529 c 2
 68 483 l 1
 39 483 l 1
 56 619 l 1
 105 669 154 689 226 689 c 0
 353 689 431 618 431 503 c 0
 431 428 401 373 304 270 c 2
 122 77 l 1
 307 81 353 77 468 82 c 1
 468 -3 l 1
 275 -3 275 0 239 0 c 0
 203 0 203 -3 16 -3 c 1
 16 23 l 1
EndSplineSet
AlternateSubs2: "'ssty' Math Script Style lookup 4 subtable" glyph3569 glyph3579
Substitution2: "'onum' Oldstyle Figures lookup 0 subtable" two.onum
EndChar

StartChar: three
Encoding: 51 51 21
Width: 499
GlyphClass: 2
Flags: MW
HStem: -20 41<192 245.5> 334 34<224.5 241.5 202 279.5> 622 67<199 250.5>
VStem: 15 27<153 163> 43 31<498 498> 336 82<511.5 537.5> 369 93<155.5 235.5>
LayerCount: 2
Fore
SplineSet
462 224 m 0xfa
 462 87 307 -20 184 -20 c 0
 147 -20 103 -12 50 6 c 1
 44 56 36 92 15 153 c 1
 42 163 l 1
 61 109 74 86 98 64 c 0
 128 36 169 21 215 21 c 0
 308 21 369 88 369 190 c 0xfa
 369 281 321 334 238 334 c 0
 211 334 192 329 154 312 c 1
 147 318 l 1
 159 371 l 1
 174 370 l 2
 187 369 198 368 206 368 c 0
 277 368 336 431 336 506 c 0
 336 569 283 622 218 622 c 0
 166 622 103 588 92 554 c 2
 74 498 l 1
 43 498 l 1
 72 622 l 1
 120 670 165 689 233 689 c 0
 344 689 418 630 418 541 c 0xfc
 418 482 388 436 308 374 c 1
 355 366 462 345 462 224 c 0xfa
EndSplineSet
AlternateSubs2: "'ssty' Math Script Style lookup 4 subtable" glyph3570 glyph3580
Substitution2: "'onum' Oldstyle Figures lookup 0 subtable" three.onum
EndChar

StartChar: four
Encoding: 52 52 22
Width: 499
GlyphClass: 2
Flags: MW
HStem: -3 30<158 158> 181 64<65 280 65 280 2 280> 677 20G<365 365>
VStem: 280 84<106 181 76 181>
LayerCount: 2
Fore
SplineSet
280 181 m 1
 2 181 l 1
 2 204 l 1
 285 667 l 1
 365 697 l 1
 364 245 l 1
 472 248 l 1
 472 177 l 1
 444 180 423 181 364 181 c 1
 364 106 l 2
 364 46 375 33 424 30 c 2
 472 27 l 1
 472 -3 l 1
 339 0 339 0 315 0 c 0
 291 0 291 0 158 -3 c 1
 158 27 l 1
 220 30 l 2
 269 32 280 46 280 106 c 2
 280 181 l 1
280 245 m 1
 280 597 l 1
 65 245 l 1
 280 245 l 1
EndSplineSet
AlternateSubs2: "'ssty' Math Script Style lookup 4 subtable" glyph3571 glyph3581
Substitution2: "'onum' Oldstyle Figures lookup 0 subtable" four.onum
EndChar

StartChar: five
Encoding: 53 53 23
Width: 499
GlyphClass: 2
Flags: MW
HStem: -20 45<174 237> 377 69<240 266> 605 85<75 127>
VStem: 75 52<396 605 396 690> 374 85<171 255>
LayerCount: 2
Fore
SplineSet
459 253 m 0
 459 89 301 -20 173 -20 c 0
 130 -20 90 -11 62 4 c 1
 48 48 36 80 13 137 c 1
 37 151 l 1
 83 69 l 2
 97 43 147 25 201 25 c 0
 310 25 374 90 374 201 c 0
 374 309 314 377 218 377 c 0
 169 377 142 363 95 316 c 1
 75 322 l 1
 75 690 l 1
 432 689 l 1
 432 604 l 1
 127 605 l 1
 127 396 l 1
 180 443 216 446 264 446 c 0
 378 446 459 366 459 253 c 0
EndSplineSet
AlternateSubs2: "'ssty' Math Script Style lookup 4 subtable" glyph3572 glyph3582
Substitution2: "'onum' Oldstyle Figures lookup 0 subtable" five.onum
EndChar

StartChar: six
Encoding: 54 54 24
Width: 499
GlyphClass: 2
Flags: MW
HStem: -20 33<211.5 292.5 211.5 306> 349 60<254.5 293> 669 20G<379 379>
VStem: 32 91<164.5 237.5 153 315.5> 382 86<151 233.5>
LayerCount: 2
Fore
SplineSet
131 331 m 1
 184 370 216 409 293 409 c 0
 399 409 468 334 468 219 c 0
 468 83 371 -20 241 -20 c 0
 112 -20 32 82 32 247 c 0
 32 384 88 506 191 593 c 0
 242 637 283 657 379 689 c 1
 421 665 l 1
 241 611 152 512 131 331 c 1
255 349 m 0
 207 349 160 325 138 291 c 0
 127 274 123 255 123 220 c 0
 123 86 169 13 254 13 c 0
 331 13 382 80 382 184 c 0
 382 283 331 349 255 349 c 0
EndSplineSet
AlternateSubs2: "'ssty' Math Script Style lookup 4 subtable" glyph3573 glyph3583
Substitution2: "'onum' Oldstyle Figures lookup 0 subtable" six.onum
EndChar

StartChar: seven
Encoding: 55 55 25
Width: 499
GlyphClass: 2
Flags: MW
HStem: 603 86<119 142 142 409>
VStem: 44 30<477 689>
LayerCount: 2
Fore
SplineSet
409 603 m 1
 142 603 l 2
 96 603 89 595 81 533 c 2
 74 477 l 1
 44 477 l 1
 44 689 l 1
 497 689 l 1
 497 659 l 1
 157 -1 l 1
 47 -1 l 1
 409 603 l 1
EndSplineSet
AlternateSubs2: "'ssty' Math Script Style lookup 4 subtable" glyph3574 glyph3584
Substitution2: "'onum' Oldstyle Figures lookup 0 subtable" seven.onum
EndChar

StartChar: eight
Encoding: 56 56 26
Width: 499
GlyphClass: 2
Flags: MW
HStem: -20 34<198.5 281.5 198.5 291> 655 34<211.5 283.5>
VStem: 30 71<120.5 185> 53 75<519 560.5> 368 68<515 570.5> 385 79<144 191>
LayerCount: 2
Fore
SplineSet
168 345 m 1xe4
 80 402 53 440 53 508 c 0
 53 613 140 689 259 689 c 0
 365 689 436 631 436 545 c 0xd8
 436 485 404 443 313 381 c 1
 427 329 464 286 464 206 c 0
 464 82 356 -20 226 -20 c 0
 113 -20 30 56 30 159 c 0
 30 211 50 256 88 294 c 0
 110 315 127 326 168 345 c 1xe4
284 295 m 2
 204 331 l 1
 130 286 101 240 101 167 c 0
 101 74 156 14 241 14 c 0
 322 14 385 80 385 164 c 0xe4
 385 218 347 267 284 295 c 2
223 423 m 2
 278 396 l 1
 343 438 368 477 368 534 c 0
 368 607 320 655 247 655 c 0
 176 655 128 610 128 544 c 0xd8
 128 494 160 454 223 423 c 2
EndSplineSet
AlternateSubs2: "'ssty' Math Script Style lookup 4 subtable" glyph3575 glyph3585
Substitution2: "'onum' Oldstyle Figures lookup 0 subtable" eight.onum
EndChar

StartChar: nine
Encoding: 57 57 27
Width: 499
GlyphClass: 2
Flags: MW
HStem: -20 25 256 61<200 216> 656 33<199 262.5>
VStem: 20 86<440 522> 370 87<425 493.5>
LayerCount: 2
Fore
SplineSet
96 -20 m 1
 62 -3 l 1
 62 5 l 1
 243 49 352 172 360 340 c 1
 290 282 l 2
 272 267 233 256 199 256 c 0
 95 256 20 340 20 455 c 0
 20 589 116 689 244 689 c 0
 376 689 457 586 457 417 c 0
 457 283 406 168 309 85 c 0
 255 39 207 16 96 -20 c 1
240 656 m 0
 158 656 106 593 106 492 c 0
 106 388 160 317 240 317 c 0
 317 317 370 379 370 471 c 0
 370 516 358 565 340 597 c 0
 318 637 285 656 240 656 c 0
EndSplineSet
AlternateSubs2: "'ssty' Math Script Style lookup 4 subtable" glyph3576 glyph3586
Substitution2: "'onum' Oldstyle Figures lookup 0 subtable" nine.onum
EndChar

StartChar: colon
Encoding: 58 58 28
Width: 249
GlyphClass: 2
Flags: MW
HStem: -5 116<108 138> 340 116<108 138>
VStem: 66 116<38 68 383 412.5>
LayerCount: 2
Fore
SplineSet
123 111 m 0
 154 111 182 83 182 53 c 0
 182 22 154 -5 122 -5 c 0
 93 -5 66 23 66 53 c 0
 66 83 93 111 123 111 c 0
123 456 m 0
 154 456 182 428 182 397 c 0
 182 367 154 340 122 340 c 0
 93 340 66 368 66 398 c 0
 66 428 93 456 123 456 c 0
EndSplineSet
EndChar

StartChar: semicolon
Encoding: 59 59 29
Width: 249
GlyphClass: 2
Flags: MW
HStem: 340 116<135 165>
VStem: 93 116<383 412.5 382 413>
LayerCount: 2
Fore
SplineSet
204 125 m 1
 218 111 l 1
 190 34 152 -29 71 -134 c 1
 30 -153 l 1
 16 -142 l 1
 74 -46 99 19 106 95 c 1
 159 110 177 116 204 125 c 1
150 456 m 0
 181 456 209 428 209 397 c 0
 209 367 181 340 149 340 c 0
 120 340 93 368 93 398 c 0
 93 428 120 456 150 456 c 0
EndSplineSet
EndChar

StartChar: less
Encoding: 60 60 30
Width: 668
GlyphClass: 2
Flags: W
LayerCount: 2
Fore
SplineSet
604 0 m 1
 65 252 l 1
 65 273 l 1
 604 528 l 1
 604 469 l 1
 166 264 l 1
 604 59 l 1
 604 0 l 1
EndSplineSet
EndChar

StartChar: equal
Encoding: 61 61 31
Width: 668
GlyphClass: 2
Flags: MW
HStem: 134 59<65 604 65 604> 347 59<65 604 65 604>
LayerCount: 2
Fore
SplineSet
604 347 m 1
 65 347 l 1
 65 406 l 1
 604 406 l 1
 604 347 l 1
604 134 m 1
 65 134 l 1
 65 193 l 1
 604 193 l 1
 604 134 l 1
EndSplineSet
EndChar

StartChar: greater
Encoding: 62 62 32
Width: 668
GlyphClass: 2
Flags: W
LayerCount: 2
Fore
SplineSet
65 0 m 1
 65 59 l 1
 503 264 l 1
 65 469 l 1
 65 528 l 1
 604 273 l 1
 604 252 l 1
 65 0 l 1
EndSplineSet
EndChar

StartChar: question
Encoding: 63 63 33
Width: 443
GlyphClass: 2
Flags: MW
HStem: -5 116<183 213> 628 66<191 215>
VStem: 141 116<38 68> 148 43<239 259.5 235 299> 302 93<511.5 551>
LayerCount: 2
Fore
SplineSet
148 254 m 0xd8
 148 344 302 416 302 519 c 0
 302 583 251 628 179 628 c 0
 134 628 103 613 92 586 c 2
 72 538 l 1
 43 546 l 1
 81 659 l 1
 134 685 169 694 213 694 c 0
 316 694 395 627 395 540 c 0
 395 483 370 444 285 366 c 0
 204 293 191 276 191 243 c 0
 191 227 197 214 213 195 c 1
 192 181 l 1
 162 200 148 224 148 254 c 0xd8
198 111 m 0
 229 111 257 83 257 53 c 0
 257 22 229 -5 197 -5 c 0
 168 -5 141 23 141 53 c 0xe8
 141 83 168 111 198 111 c 0
EndSplineSet
EndChar

StartChar: at
Encoding: 64 64 34
Width: 746
GlyphClass: 2
Flags: MW
HStem: -20 50<308.5 440.5> 134 29<506.5 549> 482 27<349 388 388 393> 644 50<306 475.5>
VStem: 24 55<249 425 249 433> 159 89<240.5 292.5 227.5 339.5> 671 53<347.5 473.5>
LayerCount: 2
Fore
SplineSet
401 30 m 0
 562 30 635 139 658 171 c 1
 719 171 l 1
 688 120 672 99 640 72 c 0
 571 11 487 -20 394 -20 c 0
 186 -20 24 134 24 331 c 0
 24 535 185 694 393 694 c 0
 579 694 724 569 724 409 c 0
 724 272 607 134 491 134 c 0
 447 134 420 164 415 218 c 1
 365 155 339 139 292 139 c 0
 218 139 159 201 159 280 c 0
 159 399 263 509 376 509 c 0
 424 509 452 484 464 429 c 1
 482 499 l 1
 570 499 l 1
 493 220 l 2
 490 210 489 201 489 192 c 0
 489 175 499 163 514 163 c 0
 589 163 671 290 671 405 c 0
 671 542 554 644 397 644 c 0
 215 644 79 513 79 337 c 0
 79 161 216 30 401 30 c 0
308 166 m 0
 395 166 445 335 445 410 c 0
 445 451 424 480 393 482 c 2
 388 482 l 2
 310 482 248 331 248 254 c 0
 248 201 272 166 308 166 c 0
EndSplineSet
EndChar

StartChar: A
Encoding: 65 65 35
Width: 777
GlyphClass: 2
Flags: MW
TopRightVertex: 1  700,-82
BottomRightVertex: 2  -200,49 -100,222
HStem: -3 30<15 15> 229 40<240 493 240 511 223 493> 680 20G<376 408 408 408>
LayerCount: 2
Fore
SplineSet
408 700 m 1
 650 132 l 2
 685 51 696 34 722 30 c 2
 756 27 l 1
 756 -3 l 1
 648 0 648 0 629 0 c 0
 613 0 613 0 490 -3 c 1
 490 27 l 1
 537 30 l 2
 562 32 578 39 578 50 c 0
 578 59 574 72 557 114 c 2
 511 229 l 1
 223 229 l 1
 160 56 l 1
 160 40 173 33 208 30 c 2
 245 27 l 1
 245 -3 l 1
 137 0 137 0 124 0 c 0
 108 0 108 0 15 -3 c 1
 15 27 l 1
 52 30 l 2
 74 32 94 50 106 79 c 2
 376 700 l 1
 408 700 l 1
240 269 m 1
 493 269 l 1
 367 567 l 1
 240 269 l 1
EndSplineSet
AlternateSubs2: "'ssty' Math Script Style lookup 4 subtable" glyph3682 glyph3708
EndChar

StartChar: B
Encoding: 66 66 36
Width: 610
GlyphClass: 2
Flags: MW
TopRightVertex: 1  692,100
BottomRightVertex: 1  0,49
HStem: -3 42<279.5 344.5 270.5 403> 364 35<265.5 326 260.5 342.5> 652 40<338 342.5> 662 30<26 26>
VStem: 113 95<95 362 47 401 401 569 569 608.5> 443 99<530 574.5> 473 103<181 253.5 181 261.5>
LayerCount: 2
Fore
SplineSet
298 -3 m 0xea
 261 -3 199 0 174 0 c 0
 155 0 134 -1 65 -3 c 1
 65 20 l 1
 91 30 l 2
 105 36 113 58 113 95 c 2
 113 569 l 2
 113 648 109 655 62 659 c 2
 26 662 l 1
 26 692 l 1xda
 165 689 165 689 184 689 c 0
 199 689 199 689 338 692 c 2
 363 692 l 2
 479 692 542 644 542 556 c 0xec
 542 504 517 461 469 428 c 0
 441 409 418 400 369 390 c 1
 446 384 480 375 518 347 c 0
 556 320 576 279 576 228 c 0
 576 134 508 -3 298 -3 c 0xea
208 362 m 1
 208 47 l 1
 233 41 256 39 285 39 c 0
 404 39 473 102 473 208 c 0
 473 315 410 364 275 364 c 0
 256 364 247 364 208 362 c 1
208 644 m 1
 208 401 l 1
 239 399 252 399 269 399 c 0
 383 399 443 446 443 533 c 0
 443 616 396 652 289 652 c 0xec
 257 652 234 650 208 644 c 1
EndSplineSet
AlternateSubs2: "'ssty' Math Script Style lookup 4 subtable" glyph3683 glyph3709
EndChar

StartChar: C
Encoding: 67 67 37
Width: 708
GlyphClass: 2
Flags: MW
TopRightVertex: 1  709,100
BottomRightVertex: 1  0,49
HStem: -20 54<356.5 456.5> 667 42<329 464>
VStem: 22 107<262.5 453 262.5 462> 614 31<516 588>
LayerCount: 2
Fore
SplineSet
22 342 m 0
 22 582 218 709 433 709 c 0
 506 709 579 696 664 668 c 1
 650 602 646 566 645 516 c 1
 614 516 l 1
 614 588 l 2
 614 627 513 667 415 667 c 0
 243 667 129 545 129 361 c 0
 129 164 259 34 454 34 c 0
 530 34 599 54 661 94 c 1
 670 84 l 1
 642 34 l 1
 573 -2 498 -20 415 -20 c 0
 180 -20 22 126 22 342 c 0
EndSplineSet
AlternateSubs2: "'ssty' Math Script Style lookup 4 subtable" glyph3684 glyph3710
EndChar

StartChar: D
Encoding: 68 68 38
Width: 793
GlyphClass: 2
Flags: MW
TopRightVertex: 1  692,129
BottomRightVertex: 1  0,49
HStem: -3 52 646 43<209.5 366> 662 30<22 22>
VStem: 113 95<95 569 569 608> 644 107<359 368 368 478 331.5 478.5>
LayerCount: 2
Fore
SplineSet
341 -3 m 0xb8
 298 -3 254 0 196 0 c 0
 173 0 173 0 57 -3 c 1
 57 20 l 1
 88 36 l 2
 104 44 113 66 113 95 c 2
 113 569 l 2
 113 647 108 656 62 659 c 2
 22 662 l 1
 22 692 l 1xb8
 136 690 191 689 228 689 c 0xd8
 298 689 385 692 402 692 c 0
 613 692 751 571 751 385 c 0
 751 278 707 170 635 99 c 0
 565 30 469 -3 341 -3 c 0xb8
644 359 m 2
 644 368 l 2
 644 589 458 646 274 646 c 0xd8
 252 646 230 646 208 644 c 1
 208 49 l 1
 321 49 484 58 544 107 c 0
 610 161 644 247 644 359 c 2
EndSplineSet
AlternateSubs2: "'ssty' Math Script Style lookup 4 subtable" glyph3685 glyph3711
EndChar

StartChar: E
Encoding: 69 69 39
Width: 610
GlyphClass: 2
Flags: MW
TopRightVertex: 1  692,100
BottomRightVertex: 1  0,49
HStem: -3 30<34 34> -3 42<354 360 289 404.5> 330 42<305 356> 441 20G<451 481 481 481> 650 42 662 30<22 22>
VStem: 121 95<120 327 375 569 569 608.5> 451 30<234 234> 505 35<537 567 537 602> 537 35<164 164>
LayerCount: 2
Fore
SplineSet
556 0 m 1x7b40
 420 -3 420 -3 389 -3 c 0x7b40
 319 -3 203 0 157 0 c 0
 129 0 100 -1 34 -3 c 1
 34 27 l 1
 70 30 l 2
 117 34 121 41 121 120 c 2
 121 569 l 2
 121 648 116 656 70 659 c 2
 22 662 l 1
 22 692 l 1xb740
 121 690 166 689 200 689 c 0
 246 689 339 692 432 692 c 0
 476 692 507 691 556 689 c 1
 545 645 540 597 540 537 c 1
 505 537 l 1
 505 602 l 2x3b80
 505 625 502 630 478 636 c 0
 446 645 390 650 333 650 c 0
 264 650 247 649 216 642 c 1
 216 375 l 1
 250 373 284 372 326 372 c 0
 392 372 420 375 438 383 c 1
 442 391 445 400 446 409 c 2
 451 461 l 1
 481 461 l 1
 478 361 478 361 478 345 c 0
 478 327 478 327 481 234 c 1
 451 234 l 1
 446 293 l 1
 438 318 l 1
 420 327 393 330 319 330 c 0
 274 330 244 329 216 327 c 1
 216 47 l 1
 245 41 263 39 315 39 c 0
 405 39 478 44 499 51 c 0
 527 61 536 155 537 164 c 1
 572 164 l 1
 562 112 556 58 556 0 c 1x7b40
EndSplineSet
AlternateSubs2: "'ssty' Math Script Style lookup 4 subtable" glyph3686 glyph3712
EndChar

StartChar: F
Encoding: 70 70 40
Width: 555
GlyphClass: 2
Flags: MW
TopRightVertex: 1  692,100
BottomRightVertex: 1  0,49
HStem: -3 30<22 22> 330 42<305 356> 441 20G<451 481 481 481> 650 42 662 30<22 22>
VStem: 121 95<120 327 375 569 569 608.5> 451 30<234 234> 485 35<537 567 537 602>
LayerCount: 2
Fore
SplineSet
216 327 m 1xf7
 216 120 l 2
 216 41 221 33 267 30 c 2
 315 27 l 1
 315 -3 l 1
 256 -1 220 0 168 0 c 0
 116 0 81 -1 22 -3 c 1
 22 27 l 1
 70 30 l 2
 116 33 121 41 121 120 c 2
 121 569 l 2
 121 648 116 656 70 659 c 2
 22 662 l 1
 22 692 l 1xef
 169 689 169 689 198 689 c 0
 223 689 258 689 307 691 c 2
 414 692 l 2
 457 692 487 691 536 689 c 1
 525 645 520 597 520 537 c 1
 485 537 l 1
 485 602 l 2
 485 625 482 630 458 636 c 0
 427 644 371 650 323 650 c 0
 264 650 246 649 216 642 c 1
 216 375 l 1
 250 373 284 372 326 372 c 0
 392 372 420 375 438 383 c 1
 442 391 445 400 446 409 c 2
 451 461 l 1
 481 461 l 1
 478 361 478 361 478 345 c 0
 478 327 478 327 481 234 c 1
 451 234 l 1
 446 293 l 1
 438 318 l 1
 420 327 393 330 319 330 c 0
 274 330 244 329 216 327 c 1xf7
EndSplineSet
AlternateSubs2: "'ssty' Math Script Style lookup 4 subtable" glyph3687 glyph3713
EndChar

StartChar: G
Encoding: 71 71 41
Width: 762
GlyphClass: 2
Flags: MW
TopRightVertex: 1  709,100
BottomRightVertex: 1  0,49
HStem: -20 42<354 447.5> 241 30<479 479> 667 42<330.5 467.5>
VStem: 22 107<258 452> 596 92<98 199 31 211> 641 31<516 541.5 516 569 516 608>
LayerCount: 2
Fore
SplineSet
412 -20 m 0xf8
 205 -20 22 101 22 341 c 0
 22 563 192 709 450 709 c 0
 530 709 581 700 692 668 c 1
 678 614 672 567 672 516 c 1
 641 516 l 1
 641 569 l 2xf4
 641 647 511 667 424 667 c 0
 237 667 129 555 129 362 c 0
 129 154 255 22 453 22 c 0
 519 22 579 36 590 55 c 0
 594 62 596 74 596 98 c 2
 596 199 l 2
 596 223 587 232 562 234 c 2
 479 241 l 1
 479 271 l 1
 566 269 572 269 601 269 c 0
 632 269 635 269 724 271 c 1
 728 246 l 1
 699 236 l 2
 689 232 688 230 688 199 c 2
 688 31 l 1
 552 -7 483 -20 412 -20 c 0xf8
EndSplineSet
AlternateSubs2: "'ssty' Math Script Style lookup 4 subtable" glyph3688 glyph3714
EndChar

StartChar: H
Encoding: 72 72 42
Width: 831
GlyphClass: 2
Flags: MW
TopRightVertex: 1  692,131
BottomRightVertex: 1  0,49
HStem: -3 30<22 22> 343 48<216 616 216 216> 662 30<22 22>
VStem: 121 95<120 343 391 569> 616 95<120 343 343 343 391 569>
LayerCount: 2
Fore
SplineSet
616 120 m 2
 616 343 l 1
 216 343 l 1
 216 120 l 2
 216 41 221 33 267 30 c 2
 315 27 l 1
 315 -3 l 1
 256 -1 220 0 168 0 c 0
 116 0 81 -1 22 -3 c 1
 22 27 l 1
 70 30 l 2
 116 33 121 41 121 120 c 2
 121 569 l 2
 121 648 116 656 70 659 c 2
 22 662 l 1
 22 692 l 1
 94 690 118 689 168 689 c 0
 220 689 242 689 315 692 c 1
 315 662 l 1
 267 659 l 2
 221 656 216 648 216 569 c 2
 216 391 l 1
 236 390 258 389 299 389 c 2
 533 389 l 2
 574 389 595 390 616 391 c 1
 616 569 l 2
 616 648 611 656 565 659 c 2
 517 662 l 1
 517 692 l 1
 589 690 613 689 663 689 c 0
 715 689 737 689 810 692 c 1
 810 662 l 1
 762 659 l 2
 716 656 711 648 711 569 c 2
 711 120 l 2
 711 41 716 33 762 30 c 2
 810 27 l 1
 810 -3 l 1
 751 -1 715 0 663 0 c 0
 611 0 576 -1 517 -3 c 1
 517 27 l 1
 565 30 l 2
 611 33 616 41 616 120 c 2
EndSplineSet
AlternateSubs2: "'ssty' Math Script Style lookup 4 subtable" glyph3689 glyph3715
EndChar

StartChar: I
Encoding: 73 73 43
Width: 336
GlyphClass: 2
Flags: MW
TopRightVertex: 1  692,100
BottomRightVertex: 1  0,49
HStem: -3 30<22 22> 662 30<22 22>
VStem: 121 95<120 569>
LayerCount: 2
Fore
SplineSet
216 569 m 2
 216 120 l 2
 216 41 221 33 267 30 c 2
 315 27 l 1
 315 -3 l 1
 256 -1 220 0 168 0 c 0
 116 0 81 -1 22 -3 c 1
 22 27 l 1
 70 30 l 2
 116 33 121 41 121 120 c 2
 121 569 l 2
 121 648 116 656 70 659 c 2
 22 662 l 1
 22 692 l 1
 94 690 118 689 168 689 c 0
 220 689 242 689 315 692 c 1
 315 662 l 1
 267 659 l 2
 221 656 216 648 216 569 c 2
EndSplineSet
AlternateSubs2: "'ssty' Math Script Style lookup 4 subtable" glyph3690 glyph3716
EndChar

StartChar: J
Encoding: 74 74 44
Width: 332
GlyphClass: 2
Flags: MW
TopRightVertex: 1  692,100
BottomRightVertex: 1  0,-50
HStem: -195 65<17 83> 662 30<18 18>
VStem: 117 95<56.5 117 117 569>
LayerCount: 2
Fore
SplineSet
-10 -192 m 1
 -15 -116 l 1
 -4 -110 l 1
 19 -124 39 -130 63 -130 c 0
 103 -130 117 -101 117 -17 c 2
 117 569 l 2
 117 648 112 656 66 659 c 2
 18 662 l 1
 18 692 l 1
 90 690 114 689 164 689 c 0
 216 689 238 689 311 692 c 1
 311 662 l 1
 263 659 l 2
 217 656 212 648 212 569 c 2
 212 117 l 2
 212 -4 199 -54 150 -114 c 0
 120 -152 67 -195 19 -195 c 0
 15 -195 11 -195 7 -194 c 2
 -10 -192 l 1
EndSplineSet
AlternateSubs2: "'ssty' Math Script Style lookup 4 subtable" glyph3691 glyph3717
EndChar

StartChar: K
Encoding: 75 75 45
Width: 725
GlyphClass: 2
Flags: MW
TopRightVertex: 1  692,124
BottomRightVertex: 1  0,49
HStem: -3 30<22 22> 662 30<22 22>
VStem: 121 95<120 325 355 569>
LayerCount: 2
Fore
SplineSet
216 325 m 1
 216 120 l 2
 216 41 221 33 267 30 c 2
 315 27 l 1
 315 -3 l 1
 256 -1 220 0 168 0 c 0
 116 0 81 -1 22 -3 c 1
 22 27 l 1
 70 30 l 2
 116 33 121 41 121 120 c 2
 121 569 l 2
 121 648 116 656 70 659 c 2
 22 662 l 1
 22 692 l 1
 94 690 118 689 168 689 c 0
 220 689 242 689 315 692 c 1
 315 662 l 1
 267 659 l 2
 221 656 216 648 216 569 c 2
 216 355 l 1
 523 665 l 1
 523 692 l 1
 581 690 598 689 612 689 c 0
 629 689 629 689 692 692 c 1
 692 662 l 1
 650 660 l 2
 624 659 599 646 572 622 c 2
 306 382 l 1
 636 70 l 2
 667 41 683 30 698 29 c 2
 719 27 l 1
 719 -3 l 1
 669 0 667 0 654 0 c 0
 644 0 644 0 574 -3 c 1
 226 332 l 1
 216 325 l 1
EndSplineSet
AlternateSubs2: "'ssty' Math Script Style lookup 4 subtable" glyph3692 glyph3718
EndChar

StartChar: L
Encoding: 76 76 46
Width: 610
GlyphClass: 2
Flags: MW
TopRightVertex: 1  692,-90
BottomRightVertex: 1  0,49
HStem: -3 47<350.5 377.5 311.5 413> 662 30<22 22>
VStem: 121 95<95 569 47 608.5> 554 32<172 172>
LayerCount: 2
Fore
SplineSet
565 0 m 1
 429 -3 429 -3 397 -3 c 0
 304 -3 187 0 164 0 c 0
 138 0 131 0 65 -3 c 1
 65 20 l 1
 96 36 l 2
 112 44 121 66 121 95 c 2
 121 569 l 2
 121 648 116 656 70 659 c 2
 22 662 l 1
 22 692 l 1
 94 690 118 689 168 689 c 0
 220 689 242 689 315 692 c 1
 315 662 l 1
 267 659 l 2
 221 656 216 648 216 569 c 2
 216 47 l 1
 252 45 292 44 331 44 c 0
 424 44 511 49 520 57 c 0
 526 62 548 143 554 172 c 1
 586 172 l 1
 576 75 572 43 565 0 c 1
EndSplineSet
AlternateSubs2: "'ssty' Math Script Style lookup 4 subtable" glyph3693 glyph3719
EndChar

StartChar: M
Encoding: 77 77 47
Width: 945
GlyphClass: 2
Flags: MW
TopRightVertex: 1  692,100
BottomRightVertex: 1  0,49
HStem: -13 21G<436 456 436 436> -3 30<16 16> 662 30<16 16>
VStem: 111 46<120 569 569 578> 732 95<120 569>
LayerCount: 2
Fore
SplineSet
732 120 m 2x78
 732 578 l 1
 456 -13 l 1
 436 -13 l 1xb8
 157 578 l 1
 157 120 l 2
 157 42 162 33 208 30 c 2
 252 27 l 1
 252 -3 l 1
 147 0 147 0 132 0 c 0
 115 0 115 0 16 -3 c 1
 16 27 l 1
 60 30 l 2
 106 33 111 42 111 120 c 2
 111 569 l 2
 111 647 106 656 60 659 c 2
 16 662 l 1
 16 692 l 1
 96 689 96 689 111 689 c 0
 126 689 126 689 206 692 c 1
 470 136 l 1
 732 692 l 1
 812 689 812 689 827 689 c 0
 844 689 844 689 920 692 c 1
 920 662 l 1
 878 659 l 2
 832 656 827 647 827 569 c 2
 827 120 l 2
 827 41 832 33 878 30 c 2
 926 27 l 1
 926 -3 l 1
 867 -1 831 0 775 0 c 0
 723 0 693 -1 647 -3 c 1
 647 27 l 1
 681 30 l 2
 728 34 732 41 732 120 c 2x78
EndSplineSet
AlternateSubs2: "'ssty' Math Script Style lookup 4 subtable" glyph3694 glyph3720
EndChar

StartChar: N
Encoding: 78 78 48
Width: 830
GlyphClass: 2
Flags: MW
TopRightVertex: 1  692,100
BottomRightVertex: 1  0,49
HStem: -3 30<17 17> 662 30<17 17>
VStem: 112 46<120 569 569 583> 672 46<98 569 -6 608>
LayerCount: 2
Fore
SplineSet
137 689 m 1
 191 692 l 1
 672 98 l 1
 672 569 l 2
 672 647 667 656 621 659 c 2
 577 662 l 1
 577 692 l 1
 676 689 676 689 693 689 c 0
 708 689 708 689 813 692 c 1
 813 662 l 1
 769 659 l 2
 723 656 718 647 718 569 c 2
 718 -6 l 1
 631 -4 l 1
 158 583 l 1
 158 120 l 2
 158 42 163 33 209 30 c 2
 253 27 l 1
 253 -3 l 1
 148 0 148 0 133 0 c 0
 116 0 116 0 17 -3 c 1
 17 27 l 1
 61 30 l 2
 107 33 112 42 112 120 c 2
 112 569 l 2
 112 647 107 656 61 659 c 2
 17 662 l 1
 17 692 l 1
 72 690 81 690 137 689 c 1
EndSplineSet
AlternateSubs2: "'ssty' Math Script Style lookup 4 subtable" glyph3695 glyph3721
EndChar

StartChar: O
Encoding: 79 79 49
Width: 785
GlyphClass: 2
Flags: MW
TopRightVertex: 1  709,70
BottomRightVertex: 1  0,49
HStem: -20 42<326 482> 667 42<303 470.5>
VStem: 22 107<271 451> 657 107<257 441>
LayerCount: 2
Fore
SplineSet
402 709 m 0
 624 709 764 577 764 367 c 0
 764 147 594 -20 370 -20 c 0
 168 -20 22 131 22 341 c 0
 22 561 174 709 402 709 c 0
385 667 m 0
 221 667 129 563 129 378 c 0
 129 164 242 22 410 22 c 0
 565 22 657 139 657 337 c 0
 657 545 556 667 385 667 c 0
EndSplineSet
AlternateSubs2: "'ssty' Math Script Style lookup 4 subtable" glyph3696 glyph3722
EndChar

StartChar: P
Encoding: 80 80 50
Width: 603
GlyphClass: 2
Flags: MW
TopRightVertex: 1  692,100
BottomRightVertex: 1  0,49
HStem: -3 30<22 22> 324 32<328 375.5 321.5 406.5> 654 38<366.5 368> 662 30<23 23>
VStem: 121 95<120 569 569 606> 480 100<477 556.5>
LayerCount: 2
Fore
SplineSet
23 692 m 1xdc
 183 689 183 689 205 689 c 0
 307 689 358 692 375 692 c 0
 502 692 580 633 580 537 c 0
 580 417 475 324 338 324 c 0
 318 324 304 325 280 330 c 1
 270 366 l 1
 296 358 311 356 332 356 c 0
 419 356 480 419 480 509 c 0
 480 604 422 654 314 654 c 0xec
 280 654 251 650 216 642 c 1
 216 120 l 2
 216 41 221 33 267 30 c 2
 315 27 l 1
 315 -3 l 1
 256 -1 220 0 168 0 c 0
 116 0 81 -1 22 -3 c 1
 22 27 l 1
 70 30 l 2
 116 33 121 41 121 120 c 2
 121 569 l 2
 121 643 113 656 68 659 c 2
 23 662 l 1
 23 692 l 1xdc
EndSplineSet
AlternateSubs2: "'ssty' Math Script Style lookup 4 subtable" glyph3697 glyph3723
EndChar

StartChar: Q
Encoding: 81 81 51
Width: 785
GlyphClass: 2
Flags: MW
TopRightVertex: 1  709,100
BottomRightVertex: 1  0,113
HStem: -19 42<299 377 377 388> 667 42<302.5 471>
VStem: 22 107<311 452> 657 107<299 440>
LayerCount: 2
Fore
SplineSet
401 -19 m 1
 507 -32 590 -105 705 -105 c 0
 714 -105 725 -104 764 -99 c 1
 764 -120 l 1
 680 -176 l 1
 426 -104 l 2
 395 -94 367 -89 348 -89 c 0
 338 -89 273 -123 261 -129 c 1
 263 -97 l 1
 319 -54 353 -31 372 -25 c 2
 388 -19 l 1
 377 -19 l 2
 162 -19 22 124 22 343 c 0
 22 561 174 709 398 709 c 0
 622 709 764 578 764 371 c 0
 764 227 690 98 569 28 c 0
 517 -1 480 -12 401 -19 c 1
129 375 m 0
 129 247 186 23 412 23 c 0
 569 23 657 135 657 335 c 0
 657 545 557 667 385 667 c 0
 220 667 129 563 129 375 c 0
EndSplineSet
AlternateSubs2: "'ssty' Math Script Style lookup 4 subtable" glyph3698 glyph3724
EndChar

StartChar: R
Encoding: 82 82 52
Width: 667
GlyphClass: 2
Flags: MW
TopRightVertex: 1  692,100
BottomRightVertex: 1  0,49
HStem: -3 30<22 22> 654 38<317 366> 662 30<29 29>
VStem: 121 95<120 569 569 608> 476 100<513 563.5>
LayerCount: 2
Fore
SplineSet
216 642 m 1xd8
 216 120 l 2
 216 41 221 33 267 30 c 2
 315 27 l 1
 315 -3 l 1
 256 -1 220 0 168 0 c 0
 116 0 81 -1 22 -3 c 1
 22 27 l 1
 70 30 l 2
 116 33 121 41 121 120 c 2
 121 569 l 2
 121 647 116 656 70 659 c 2
 29 662 l 1
 29 692 l 1xb8
 169 689 169 689 202 689 c 0
 236 689 252 692 382 692 c 0
 506 692 576 638 576 542 c 0
 576 484 548 434 496 397 c 0
 463 374 437 363 381 349 c 1
 608 53 l 2
 621 36 637 30 669 27 c 1
 669 -3 l 1
 606 0 606 0 597 0 c 0
 586 0 576 0 529 -3 c 1
 252 360 l 1
 258 372 l 1
 271 371 280 371 287 371 c 0
 403 371 476 429 476 521 c 0
 476 606 418 654 314 654 c 0
 280 654 250 650 216 642 c 1xd8
EndSplineSet
AlternateSubs2: "'ssty' Math Script Style lookup 4 subtable" glyph3699 glyph3725
EndChar

StartChar: S
Encoding: 83 83 53
Width: 524
GlyphClass: 2
Flags: MW
TopRightVertex: 1  709,100
BottomRightVertex: 1  0,49
HStem: -20 44<200 290> 667 42<215 278.5>
VStem: 24 84<435.5 549.5> 37 32<171 171> 415 32<526 552.5> 419 84<157.5 253.5 157.5 289>
LayerCount: 2
Fore
SplineSet
419 179 m 0xd4
 419 399 24 221 24 484 c 0
 24 615 132 709 281 709 c 0
 336 709 381 699 461 667 c 1
 451 613 447 579 447 526 c 1
 415 526 l 1
 409 583 l 2
 406 612 395 627 362 644 c 0
 335 659 298 667 259 667 c 0
 171 667 108 607 108 523 c 0xe8
 108 348 357 435 462 336 c 0
 490 310 503 277 503 230 c 0
 503 85 377 -20 203 -20 c 0
 145 -20 87 -7 30 18 c 1
 36 63 38 85 38 131 c 0
 38 137 38 153 37 171 c 1
 69 171 l 1
 77 104 l 2
 82 63 160 24 240 24 c 0
 344 24 419 89 419 179 c 0xd4
EndSplineSet
AlternateSubs2: "'ssty' Math Script Style lookup 4 subtable" glyph3700 glyph3726
EndChar

StartChar: T
Encoding: 84 84 54
Width: 612
GlyphClass: 2
Flags: MW
TopRightVertex: 1  692,116
BottomRightVertex: 1  0,0
HStem: -3 30<160 160> 643 46<221 255 358 379 379 400.5 221 513 358 358>
VStem: 25 31<531 563.5> 259 95<80.5 120> 557 31<531 563.5>
CounterMasks: 1 38
LayerCount: 2
Fore
SplineSet
379 689 m 2
 422 689 401 689 595 692 c 1
 590 635 588 596 588 531 c 1
 557 531 l 1
 553 610 l 2
 552 634 541 643 513 643 c 2
 358 643 l 1
 354 120 l 2
 354 41 359 33 405 30 c 2
 453 27 l 1
 453 -3 l 1
 394 -1 358 0 306 0 c 0
 254 0 219 -1 160 -3 c 1
 160 27 l 1
 208 30 l 2
 254 33 259 41 259 120 c 2
 255 643 l 1
 100 643 l 2
 72 643 61 634 60 610 c 2
 56 531 l 1
 25 531 l 1
 25 596 23 635 18 692 c 1
 86 691 l 2
 157 690 211 689 221 689 c 2
 379 689 l 2
EndSplineSet
AlternateSubs2: "'ssty' Math Script Style lookup 4 subtable" glyph3701 glyph3727
EndChar

StartChar: U
Encoding: 85 85 55
Width: 777
GlyphClass: 2
Flags: MW
TopRightVertex: 1  692,100
BottomRightVertex: 1  0,23
HStem: -20 62<335.5 477.5 335.5 482> 662 30<12 12>
VStem: 111 95<214 225 225 569> 618 46<249 280 280 569>
LayerCount: 2
Fore
SplineSet
378 -20 m 0
 201 -20 111 42 111 214 c 2
 111 569 l 2
 111 648 106 656 60 659 c 2
 12 662 l 1
 12 692 l 1
 84 690 108 689 158 689 c 0
 210 689 232 689 305 692 c 1
 305 662 l 1
 257 659 l 2
 211 656 206 648 206 569 c 2
 206 225 l 2
 206 97 266 42 405 42 c 0
 550 42 618 108 618 249 c 2
 618 569 l 2
 618 647 613 656 567 659 c 2
 523 662 l 1
 523 692 l 1
 622 689 622 689 639 689 c 0
 654 689 654 689 759 692 c 1
 759 662 l 1
 715 659 l 2
 669 656 664 647 664 569 c 2
 664 280 l 2
 664 69 586 -20 378 -20 c 0
EndSplineSet
AlternateSubs2: "'ssty' Math Script Style lookup 4 subtable" glyph3702 glyph3728
EndChar

StartChar: V
Encoding: 86 86 56
Width: 721
GlyphClass: 2
Flags: MW
TopRightVertex: 1  692,100
BottomRightVertex: 1  0,0
HStem: -9 21G<334 384 334 334> 662 30<8 8>
LayerCount: 2
Fore
SplineSet
274 662 m 1
 218 659 l 2
 198 658 186 651 186 639 c 0
 186 635 384 125 385 121 c 1
 391 136 577 623 577 633 c 0
 577 648 564 658 542 659 c 2
 490 662 l 1
 490 692 l 1
 506 691 523 691 528 691 c 0
 557 690 580 689 598 689 c 2
 706 692 l 1
 706 662 l 1
 676 659 l 2
 656 656 645 641 622 587 c 2
 448 166 l 2
 415 86 403 53 384 -9 c 1
 334 -9 l 1
 319 45 307 80 276 156 c 2
 88 618 l 2
 75 648 65 657 44 659 c 2
 8 662 l 1
 8 692 l 1
 118 689 118 689 141 689 c 0
 164 689 164 689 274 692 c 1
 274 662 l 1
EndSplineSet
AlternateSubs2: "'ssty' Math Script Style lookup 4 subtable" glyph3703 glyph3729
EndChar

StartChar: W
Encoding: 87 87 57
Width: 1000
GlyphClass: 2
Flags: MW
TopRightVertex: 1  700,100
BottomRightVertex: 1  0,0
HStem: -9 21G<228 278 228 228 684 734 684 684> 662 30<8 8> 680 20G<499 531 531 531>
LayerCount: 2
Fore
SplineSet
734 -9 m 1xc0
 684 -9 l 1
 488 536 l 1
 278 -9 l 1
 228 -9 l 1
 86 609 l 2
 77 645 65 656 36 659 c 2
 8 662 l 1
 8 692 l 1
 85 690 127 689 134 689 c 2
 260 692 l 1
 260 662 l 1xc0
 218 659 l 2
 191 657 181 648 181 626 c 0
 181 616 282 156 285 144 c 1
 499 700 l 1
 531 700 l 1xa0
 728 137 l 1
 861 635 l 1
 860 651 849 656 814 659 c 2
 774 662 l 1
 774 692 l 1
 869 689 869 689 879 689 c 2
 984 692 l 1
 984 662 l 1
 952 659 l 2
 930 657 920 648 914 630 c 2
 734 -9 l 1xc0
EndSplineSet
AlternateSubs2: "'ssty' Math Script Style lookup 4 subtable" glyph3704 glyph3730
EndChar

StartChar: X
Encoding: 88 88 58
Width: 666
GlyphClass: 2
Flags: MW
TopRightVertex: 1  700,100
BottomRightVertex: 1  0,49
HStem: -3 30<14 14> 647 26<27 29> 659 30<538 639> 680 20G<168 168>
LayerCount: 2
Fore
SplineSet
648 27 m 1xa0
 648 -3 l 1
 605 -1 582 0 577 0 c 0
 565 0 565 0 503 -3 c 1
 319 303 l 1
 117 -3 l 1
 74 0 74 0 66 0 c 0
 58 0 58 0 14 -3 c 1
 14 27 l 1
 40 30 l 2
 62 33 74 44 99 78 c 2
 294 341 l 1
 166 554 l 2
 133 609 98 642 74 644 c 2
 29 647 l 1
 27 673 l 1
 168 700 l 1xd0
 187 690 202 673 225 635 c 2
 353 419 l 1
 538 689 l 1
 639 689 l 1
 639 659 l 1
 598 656 l 2
 583 654 571 642 530 588 c 2
 376 380 l 1
 552 100 l 2
 587 46 599 33 618 30 c 2
 648 27 l 1xa0
EndSplineSet
AlternateSubs2: "'ssty' Math Script Style lookup 4 subtable" glyph3705 glyph3731
EndChar

StartChar: Y
Encoding: 89 89 59
Width: 666
GlyphClass: 2
Flags: MW
TopRightVertex: 1  705,100
BottomRightVertex: 1  0,0
HStem: -3 30<200 200> 651 29<9 9> 685 21G
VStem: 299 95<120 249>
LayerCount: 2
Fore
SplineSet
9 680 m 1
 129 705 l 2
 147 705 188 659 220 602 c 2
 363 341 l 1
 466 504 l 2
 505 566 536 620 574 694 c 1
 654 694 l 1
 654 679 l 1
 573 582 540 537 466 426 c 0
 408 338 394 304 394 249 c 2
 394 120 l 2
 394 41 399 33 445 30 c 2
 493 27 l 1
 493 -3 l 1
 434 -1 398 0 346 0 c 0
 294 0 259 -1 200 -3 c 1
 200 27 l 1
 248 30 l 2
 294 33 299 41 299 120 c 2
 299 262 l 2
 299 278 296 292 290 302 c 2
 166 518 l 2
 124 591 72 643 38 648 c 2
 9 651 l 1
 9 680 l 1
EndSplineSet
AlternateSubs2: "'ssty' Math Script Style lookup 4 subtable" glyph3706 glyph3732
EndChar

StartChar: Z
Encoding: 90 90 60
Width: 666
GlyphClass: 2
Flags: MW
TopRightVertex: 1  692,100
BottomRightVertex: 1  0,49
HStem: -3 47 648 41<477 477 477 500>
VStem: 80 34<530 530> 598 40
LayerCount: 2
Fore
SplineSet
637 663 m 1
 151 44 l 1
 424 44 l 2
 577 44 591 50 598 116 c 2
 604 173 l 1
 638 173 l 1
 633 118 632 83 632 -3 c 1
 327 0 l 1
 15 -3 l 1
 15 25 l 1
 500 648 l 1
 272 648 l 2
 150 648 123 640 120 601 c 2
 114 530 l 1
 80 530 l 1
 82 567 83 585 83 611 c 0
 83 637 82 655 80 692 c 1
 245 691 l 1
 477 689 l 1
 633 692 l 1
 637 663 l 1
EndSplineSet
AlternateSubs2: "'ssty' Math Script Style lookup 4 subtable" glyph3707 glyph3733
EndChar

StartChar: bracketleft
Encoding: 91 91 61
Width: 332
GlyphClass: 2
Flags: MW
GlyphVariantsVertical: bracketleft bracketBigl bracketbiggl bracketBiggl
GlyphCompositionVertical: 3  uni23A3%0,0,35,888 uni23A2%1,15,15,324 uni23A1%0,35,0,888
HStem: -184 37<282 282> 689 37
VStem: 87 86<-44 578 578 603>
LayerCount: 2
Fore
SplineSet
88 -184 m 1
 79 -171 l 1
 85 -140 87 -112 87 -44 c 2
 87 578 l 2
 87 628 83 665 83 691 c 0
 83 706 84 717 88 726 c 1
 188 723 l 1
 282 726 l 1
 288 720 l 1
 288 694 l 1
 284 689 l 1
 246 689 l 2
 219 689 197 683 185 673 c 0
 176 664 173 649 173 616 c 2
 173 -75 l 2
 173 -108 176 -122 185 -131 c 0
 197 -141 219 -147 246 -147 c 2
 284 -147 l 1
 288 -152 l 1
 288 -178 l 1
 282 -184 l 1
 182 -183 l 1
 88 -184 l 1
EndSplineSet
EndChar

StartChar: backslash
Encoding: 92 92 62
Width: 286
GlyphClass: 2
Flags: W
LayerCount: 2
Fore
SplineSet
324 -169 m 1
 269 -169 l 1
 -9 714 l 1
 45 714 l 1
 324 -169 l 1
EndSplineSet
EndChar

StartChar: bracketright
Encoding: 93 93 63
Width: 332
GlyphClass: 2
Flags: MW
GlyphVariantsVertical: bracketright bracketBigr bracketbiggr bracketBiggr
GlyphCompositionVertical: 3  uni23A6%0,0,35,888 uni23A5%1,15,15,324 uni23A4%0,35,0,888
HStem: -184 37<51 87 87 100.5 49 245 51 51> 689 37<51 87 49 245>
VStem: 160 86<-75 -44 -44 578>
LayerCount: 2
Fore
SplineSet
245 -184 m 1
 51 -184 l 1
 45 -178 l 1
 45 -152 l 1
 49 -147 l 1
 87 -147 l 2
 114 -147 136 -141 148 -131 c 0
 157 -122 160 -108 160 -75 c 2
 160 616 l 2
 160 649 157 664 148 673 c 0
 136 683 114 689 87 689 c 2
 49 689 l 1
 45 694 l 1
 45 720 l 1
 51 726 l 1
 245 726 l 1
 249 717 250 706 250 691 c 0
 250 665 246 628 246 578 c 2
 246 -44 l 2
 246 -112 248 -140 254 -171 c 1
 245 -184 l 1
EndSplineSet
EndChar

StartChar: asciicircum
Encoding: 94 94 64
Width: 605
GlyphClass: 2
Flags: MW
HStem: 669 20G<270 336 336 336>
LayerCount: 2
Fore
SplineSet
119 283 m 1
 51 283 l 1
 270 689 l 1
 336 689 l 1
 554 283 l 1
 486 283 l 1
 303 621 l 1
 119 283 l 1
EndSplineSet
EndChar

StartChar: underscore
Encoding: 95 95 65
Width: 499
GlyphClass: 2
Flags: MW
HStem: -125 50<0 500 0 500>
LayerCount: 2
Fore
SplineSet
500 -125 m 1
 0 -125 l 1
 0 -75 l 1
 500 -75 l 1
 500 -125 l 1
EndSplineSet
EndChar

StartChar: grave
Encoding: 96 96 66
Width: 277
GlyphClass: 2
Flags: MW
HStem: 446 263<58 218>
VStem: 45 188
LayerCount: 2
Fore
SplineSet
174 685 m 1
 218 709 l 1
 233 699 l 1
 185 623 161 555 155 476 c 1
 104 461 94 458 58 446 c 1
 45 459 l 1
 79 545 117 612 174 685 c 1
EndSplineSet
EndChar

StartChar: a
Encoding: 97 97 67
Width: 499
GlyphClass: 2
Flags: MW
TopRightVertex: 1  469,81
BottomRightVertex: 1  0,49
HStem: -12 57<118.5 212.5> -3 32 416 53<224.5 235>
VStem: 32 86<103.5 143.5 103.5 154.5> 324 80<82 82 124 256 256 256>
LayerCount: 2
Fore
SplineSet
324 82 m 1x78
 200 -4 l 2
 193 -9 176 -12 158 -12 c 0xb8
 79 -12 32 33 32 111 c 0
 32 198 89 245 225 270 c 2
 324 288 l 1
 321 379 282 416 188 416 c 0
 142 416 132 409 111 362 c 2
 98 331 l 1
 72 338 l 1
 72 403 l 1
 125 435 l 2
 163 458 203 469 246 469 c 0
 362 469 404 416 404 270 c 2
 404 87 l 2
 404 38 408 30 432 29 c 2
 471 27 l 1
 471 -3 l 1
 427 -1 402 0 397 0 c 0
 384 0 384 0 319 -3 c 1
 324 82 l 1x78
324 124 m 1
 324 256 l 1
 248 245 193 231 168 216 c 0
 138 197 118 162 118 125 c 0
 118 82 153 45 193 45 c 0
 232 45 295 83 324 124 c 1
EndSplineSet
AlternateSubs2: "'ssty' Math Script Style lookup 4 subtable" glyph3600 glyph3626
EndChar

StartChar: b
Encoding: 98 98 68
Width: 552
GlyphClass: 2
Flags: MW
TopRightVertex: 1  726,-48
BottomRightVertex: 1  0,49
HStem: -28 67<256 318.5 250 356> -12 21G<74 74> 404 81<281.5 326> 661 28<-15 41 -15 -15> 706 20G<141 141>
VStem: 66 84<153 308 369 620 620 635> 421 87<195 262 262 270 195 282.5>
LayerCount: 2
Fore
SplineSet
150 718 m 1x7e
 150 369 l 1
 182 446 248 485 315 485 c 0
 404 485 495 414 508 270 c 1
 508 262 l 2
 508 128 432 -28 280 -28 c 0xbe
 232 -28 177 -12 114 24 c 1
 74 -12 l 1
 58 -6 l 1
 65 64 66 91 66 153 c 2
 66 620 l 2
 66 650 59 661 41 661 c 2
 -15 661 l 1
 -15 689 l 1
 64 701 97 709 141 726 c 1
 150 718 l 1x7e
284 404 m 0
 206 404 150 343 150 308 c 2
 150 93 l 2
 150 71 224 39 276 39 c 0
 361 39 421 117 421 229 c 0
 421 336 368 404 284 404 c 0
EndSplineSet
AlternateSubs2: "'ssty' Math Script Style lookup 4 subtable" glyph3601 glyph3627
EndChar

StartChar: c
Encoding: 99 99 69
Width: 443
GlyphClass: 2
Flags: MW
TopRightVertex: 1  497,132
BottomRightVertex: 1  0,49
HStem: -20 52<242.5 281> 417 80<231 276>
VStem: 25 89<221.5 292.5> 371 28<311 334>
LayerCount: 2
Fore
SplineSet
399 311 m 1
 371 311 l 1
 364 372 l 1
 346 397 298 417 254 417 c 0
 164 417 114 357 114 250 c 0
 114 118 187 32 298 32 c 0
 334 32 366 41 403 61 c 1
 413 46 l 1
 392 14 l 2
 382 -1 307 -20 255 -20 c 0
 121 -20 26 75 26 210 c 0
 26 215 25 219 25 224 c 0
 25 361 169 497 293 497 c 0
 338 497 381 478 413 434 c 1
 404 398 399 357 399 311 c 1
EndSplineSet
AlternateSubs2: "'ssty' Math Script Style lookup 4 subtable" glyph3602 glyph3628
EndChar

StartChar: d
Encoding: 100 100 70
Width: 610
GlyphClass: 2
Flags: MW
TopRightVertex: 1  726,50
BottomRightVertex: 1  0,49
HStem: -12 57<229 267> -3 30<574.5 579> 422 64<244.5 305.5> 661 28<331 387 331 331> 706 20G<487 487>
VStem: 34 88<189.5 290> 412 84<221 350 350 358 437 620 620 635>
LayerCount: 2
Fore
SplineSet
579 -3 m 1x7e
 570 -3 506 0 488 0 c 0
 476 0 460 -1 411 -3 c 1x7e
 416 89 l 1
 305 -4 l 2
 300 -8 277 -12 257 -12 c 0xbe
 192 -12 145 1 111 30 c 0
 62 70 34 149 34 229 c 0
 34 351 183 486 306 486 c 0
 346 486 384 472 412 437 c 1
 412 620 l 2
 412 650 405 661 387 661 c 2
 331 661 l 1
 331 689 l 1
 410 701 443 709 487 726 c 1
 496 718 l 1
 496 102 l 2
 496 39 499 32 533 30 c 2
 579 27 l 1
 579 -3 l 1x7e
412 350 m 2
 412 366 345 422 266 422 c 0
 176 422 122 358 122 249 c 0
 122 130 185 45 273 45 c 0xbe
 320 45 369 76 397 123 c 0
 410 146 412 156 412 221 c 2
 412 350 l 2
EndSplineSet
AlternateSubs2: "'ssty' Math Script Style lookup 4 subtable" glyph3603 glyph3629
EndChar

StartChar: e
Encoding: 101 101 71
Width: 478
GlyphClass: 2
Flags: MW
TopRightVertex: 1  469,87
BottomRightVertex: 1  0,49
HStem: -20 53<261.5 282.5> 226 35<211.5 247> 436 33<243.5 266.5>
VStem: 26 93 359 89
LayerCount: 2
Fore
SplineSet
250 -20 m 0
 161 -20 26 25 26 219 c 0
 26 323 58 392 140 440 c 0
 180 464 225 469 262 469 c 0
 374 469 448 394 448 279 c 0
 448 267 447 258 446 244 c 1
 399 234 290 226 204 226 c 0
 170 226 140 227 119 230 c 1
 121 172 128 144 147 111 c 0
 175 62 229 33 294 33 c 0
 337 33 360 42 424 80 c 1
 437 70 l 1
 417 36 l 2
 405 18 315 -20 250 -20 c 0
359 267 m 1
 356 334 349 363 327 396 c 0
 309 423 283 436 250 436 c 0
 202 436 159 409 138 365 c 0
 125 339 121 317 121 270 c 1
 147 264 190 261 233 261 c 0
 284 261 335 264 359 267 c 1
EndSplineSet
AlternateSubs2: "'ssty' Math Script Style lookup 4 subtable" glyph3604 glyph3630
EndChar

StartChar: f
Encoding: 102 102 72
Width: 332
GlyphClass: 2
Flags: MW
TopRightVertex: 1  737,158
BottomRightVertex: 1  0,49
HStem: -3 30<23 23> 385 49<106 106> 662 75<231.5 273.5>
VStem: 106 84<102 385 434 476 476 478 478 516.5>
LayerCount: 2
Fore
SplineSet
341 717 m 1
 341 640 l 1
 329 634 l 1
 305 655 287 662 260 662 c 0
 203 662 190 634 190 519 c 2
 190 434 l 1
 321 438 l 1
 314 385 l 1
 190 385 l 1
 190 102 l 2
 190 39 193 32 227 30 c 2
 273 27 l 1
 273 -3 l 1
 173 0 173 0 148 0 c 0
 123 0 123 0 23 -3 c 1
 23 27 l 1
 69 30 l 2
 103 32 106 39 106 102 c 2
 106 385 l 1
 37 381 l 1
 37 403 l 1
 106 434 l 1
 106 476 l 1
 106 478 l 2
 106 555 163 737 274 737 c 0
 295 737 317 731 341 717 c 1
EndSplineSet
AlternateSubs2: "'ssty' Math Script Style lookup 4 subtable" glyph3605 glyph3631
EndChar

StartChar: g
Encoding: 103 103 73
Width: 555
GlyphClass: 2
Flags: MW
TopRightVertex: 1  469,165
BottomRightVertex: 1  0,49
HStem: -283 31<211.5 307.5 211.5 323.5> -14 70<252.5 343.5> 150 34<230 264.5> 378 49<398 519 398 427> 435 34<238.5 274>
VStem: 32 76<-164 -113.5> 55 84<274.5 351.5 274.5 356.5> 81 83<38 106.5> 354 84<261.5 334 260.5 336.5> 439 79<-127 -69.5>
LayerCount: 2
Fore
SplineSet
55 289 m 0xfac0
 55 424 201 469 276 469 c 0
 325 469 361 457 398 427 c 1
 540 431 l 1
 544 419 l 1
 519 378 l 1
 427 378 l 1
 435 357 438 344 438 324 c 0
 438 197 295 150 234 150 c 0
 226 150 220 151 210 152 c 1
 193 135 164 118 164 95 c 0xf9c0
 164 68 188 56 240 56 c 2
 400 56 l 2
 470 56 518 6 518 -66 c 0
 518 -188 399 -283 248 -283 c 0
 121 -283 32 -220 32 -129 c 0xfcc0
 32 -98 46 -61 60 -53 c 2
 147 -6 l 1
 99 8 81 24 81 52 c 0xf9c0
 81 67 86 80 96 95 c 1
 175 156 l 1
 101 164 55 215 55 289 c 0xfac0
240 435 m 0
 176 435 139 390 139 313 c 0xfac0
 139 236 184 184 251 184 c 0
 312 184 354 229 354 294 c 0
 354 379 308 435 240 435 c 0
287 -14 m 0
 218 -14 190 -16 174 -24 c 0
 134 -41 108 -82 108 -127 c 0xfcc0
 108 -201 168 -252 255 -252 c 0
 360 -252 439 -188 439 -102 c 0
 439 -37 400 -14 287 -14 c 0
EndSplineSet
AlternateSubs2: "'ssty' Math Script Style lookup 4 subtable" glyph3606 glyph3632
EndChar

StartChar: h
Encoding: 104 104 74
Width: 581
GlyphClass: 2
Flags: MW
TopRightVertex: 1  726,-10
BottomRightVertex: 1  0,49
HStem: -3 30<6 6> 408 62<292 332.5> 661 28<7 7 7 63> 706 20G<163 163>
VStem: 88 84<102 314 378 620 620 635> 410 84<70 102 102 281 281 295>
LayerCount: 2
Fore
SplineSet
7 661 m 1
 7 689 l 1
 86 701 119 709 163 726 c 1
 172 718 l 1
 172 378 l 1
 200 439 261 470 323 470 c 0
 408 470 494 412 494 295 c 2
 494 102 l 2
 494 38 497 32 531 30 c 2
 572 27 l 1
 572 -3 l 1
 503 0 503 0 489 0 c 0
 472 0 471 0 410 -3 c 1
 410 281 l 2
 410 358 366 408 299 408 c 0
 238 408 172 359 172 314 c 2
 172 102 l 2
 172 39 175 32 209 30 c 2
 254 27 l 1
 254 -3 l 1
 186 -1 159 0 130 0 c 0
 101 0 74 -1 6 -3 c 1
 6 27 l 1
 51 30 l 2
 85 32 88 39 88 102 c 2
 88 620 l 2
 88 650 81 661 63 661 c 2
 7 661 l 1
EndSplineSet
AlternateSubs2: "'ssty' Math Script Style lookup 4 subtable" glyph3607 glyph3633
EndChar

StartChar: i
Encoding: 105 105 75
Width: 290
GlyphClass: 2
Flags: MW
TopRightVertex: 1  687,100
BottomRightVertex: 1  0,49
HStem: -3 30<21 21> 400 28<23 60 23 23> 449 20G<179 179> 576 111<127 155.5>
VStem: 86 111<616.5 645 616.5 646> 104 84<102 327 327 360>
LayerCount: 2
Fore
SplineSet
188 465 m 1xf4
 188 102 l 2
 188 39 191 32 225 30 c 2
 271 27 l 1
 271 -3 l 1
 171 0 171 0 146 0 c 0
 121 0 121 0 21 -3 c 1
 21 27 l 1
 67 30 l 2
 101 32 104 39 104 102 c 2
 104 327 l 2
 104 393 100 400 60 400 c 2
 23 400 l 1
 23 428 l 1
 76 434 128 448 179 469 c 1
 188 465 l 1xf4
142 687 m 0
 170 687 197 659 197 631 c 0
 197 602 170 576 141 576 c 0
 112 576 86 602 86 631 c 0xf8
 86 661 112 687 142 687 c 0
EndSplineSet
AlternateSubs2: "'ssty' Math Script Style lookup 4 subtable" glyph3608 glyph3634
Substitution2: "'dtls' Dotless Forms lookup 2 subtable" dotlessi
EndChar

StartChar: j
Encoding: 106 106 76
Width: 233
GlyphClass: 2
Flags: MW
TopRightVertex: 1  688,100
BottomRightVertex: 1  0,49
HStem: -283 38<-40 -28> 400 28<-6 31 -6 -6> 449 20G<150 150> 577 111<97.5 126>
VStem: 56 111<618.5 647> 75 84<-7 327 327 360>
LayerCount: 2
Fore
SplineSet
-10 -248 m 0xf4
 58 -248 75 -142 75 -7 c 2
 75 327 l 2
 75 393 71 400 31 400 c 2
 -6 400 l 1
 -6 428 l 1
 47 434 99 448 150 469 c 1
 159 465 l 1
 159 -19 l 2
 159 -98 141 -162 106 -208 c 0
 68 -258 30 -279 -28 -283 c 1
 -40 -245 l 1
 -32 -246 -16 -248 -10 -248 c 0xf4
112 688 m 0
 141 688 167 662 167 633 c 0
 167 603 141 577 111 577 c 0
 83 577 56 604 56 633 c 0xf8
 56 661 83 688 112 688 c 0
EndSplineSet
AlternateSubs2: "'ssty' Math Script Style lookup 4 subtable" glyph3609 glyph3635
Substitution2: "'dtls' Dotless Forms lookup 2 subtable" j.dtls
EndChar

StartChar: k
Encoding: 107 107 77
Width: 555
GlyphClass: 2
Flags: MW
TopRightVertex: 1  726,70
BottomRightVertex: 1  0,49
HStem: -12 21G<453 453> -3 30<21 21> 17 23<537 549> 429 30<491 507 507 511> 661 28<23 23 23 79> 706 20G<179 179>
VStem: 104 84<102 240 261 620 620 635>
LayerCount: 2
Fore
SplineSet
23 661 m 1x5e
 23 689 l 1
 102 701 135 709 179 726 c 1
 188 718 l 1
 188 261 l 1
 411 459 l 1
 511 459 l 1
 511 429 l 1
 507 429 l 2
 475 429 448 417 403 382 c 2
 274 281 l 1
 464 88 l 2
 496 57 525 40 549 40 c 1
 549 17 l 1
 453 -12 l 1xbe
 188 240 l 1
 188 102 l 2
 188 39 191 32 225 30 c 2
 269 27 l 1
 269 -3 l 1
 180 0 175 0 147 0 c 0
 121 0 121 0 21 -3 c 1
 21 27 l 1
 67 30 l 2
 101 32 104 39 104 102 c 2
 104 620 l 2
 104 650 97 661 79 661 c 2
 23 661 l 1x5e
EndSplineSet
AlternateSubs2: "'ssty' Math Script Style lookup 4 subtable" glyph3610 glyph3636
EndChar

StartChar: l
Encoding: 108 108 78
Width: 290
GlyphClass: 2
Flags: MW
TopRightVertex: 1  726,80
BottomRightVertex: 1  0,49
HStem: -3 30<21 21> 661 28<23 23 23 79> 706 20G<179 179>
VStem: 104 84<102 620 620 635>
LayerCount: 2
Fore
SplineSet
23 661 m 1
 23 689 l 1
 102 701 135 709 179 726 c 1
 188 718 l 1
 188 102 l 2
 188 39 191 32 225 30 c 2
 271 27 l 1
 271 -3 l 1
 171 0 171 0 146 0 c 0
 121 0 121 0 21 -3 c 1
 21 27 l 1
 67 30 l 2
 101 32 104 39 104 102 c 2
 104 620 l 2
 104 650 97 661 79 661 c 2
 23 661 l 1
EndSplineSet
AlternateSubs2: "'ssty' Math Script Style lookup 4 subtable" glyph3611 glyph3637
EndChar

StartChar: m
Encoding: 109 109 79
Width: 882
GlyphClass: 2
Flags: MW
TopRightVertex: 1  469,63
BottomRightVertex: 1  0,49
HStem: -3 30<16 16> 400 28<18 18 18 55> 408 61<316.5 336 617.5 637>
VStem: 99 84<102 314> 400 84<102 281 281 314> 701 84<70.5 102 102 281 281 308>
CounterMasks: 1 1c
LayerCount: 2
Fore
SplineSet
18 400 m 1xdc
 18 428 l 1xdc
 71 434 123 448 174 469 c 1
 183 465 l 1
 183 380 l 1
 252 444 l 2
 270 460 298 469 335 469 c 0
 404 469 445 442 477 376 c 1
 553 444 l 2
 571 460 600 469 635 469 c 0
 727 469 785 407 785 308 c 2
 785 102 l 2
 785 39 788 32 822 30 c 2
 869 27 l 1
 869 -3 l 1
 793 0 793 0 780 0 c 0
 763 0 762 0 701 -3 c 1
 701 281 l 2
 701 357 664 408 610 408 c 0
 550 408 484 359 484 314 c 2
 484 102 l 2
 484 39 487 32 521 30 c 2
 567 27 l 1
 567 -3 l 1
 467 0 467 0 442 0 c 0
 417 0 417 0 317 -3 c 1
 317 27 l 1
 363 30 l 2
 397 32 400 39 400 102 c 2
 400 281 l 2
 400 357 363 408 309 408 c 0xbc
 249 408 183 359 183 314 c 2
 183 102 l 2
 183 39 186 32 220 30 c 2
 262 27 l 1
 262 -3 l 1
 197 -1 171 0 143 0 c 0
 115 0 112 0 16 -3 c 1
 16 27 l 1
 62 30 l 2
 96 32 99 39 99 102 c 2
 99 327 l 2
 99 393 95 400 55 400 c 2
 18 400 l 1xdc
EndSplineSet
AlternateSubs2: "'ssty' Math Script Style lookup 4 subtable" glyph3612 glyph3638
EndChar

StartChar: n
Encoding: 110 110 80
Width: 581
GlyphClass: 2
Flags: MW
TopRightVertex: 1  469,79
BottomRightVertex: 1  0,49
HStem: -3 30<6 6> 400 28<7 44 7 7> 408 61<308.5 332.5>
VStem: 88 84<102 314> 410 84<70 102 102 281 281 295>
LayerCount: 2
Fore
SplineSet
410 -3 m 1xb8
 410 281 l 2
 410 358 366 408 299 408 c 0xb8
 238 408 172 359 172 314 c 2
 172 102 l 2
 172 39 175 32 209 30 c 2
 254 27 l 1
 254 -3 l 1
 186 -1 159 0 130 0 c 0
 101 0 74 -1 6 -3 c 1
 6 27 l 1
 51 30 l 2
 85 32 88 39 88 102 c 2
 88 327 l 2
 88 393 84 400 44 400 c 2
 7 400 l 1
 7 428 l 1xd8
 60 434 112 448 163 469 c 1
 172 465 l 1
 172 378 l 1
 248 444 l 2
 269 462 290 469 327 469 c 0
 439 469 494 412 494 295 c 2
 494 102 l 2
 494 38 497 32 531 30 c 2
 572 27 l 1
 572 -3 l 1
 503 0 503 0 489 0 c 0
 472 0 471 0 410 -3 c 1xb8
EndSplineSet
AlternateSubs2: "'ssty' Math Script Style lookup 4 subtable" glyph3613 glyph3639
EndChar

StartChar: o
Encoding: 111 111 81
Width: 545
GlyphClass: 2
Flags: MW
TopRightVertex: 1  469,85
BottomRightVertex: 1  0,49
HStem: -20 33<240 327> 436 33<217 307>
VStem: 32 93<180 291.5> 421 93<162 268>
LayerCount: 2
Fore
SplineSet
279 469 m 0
 416 469 514 372 514 237 c 0
 514 87 404 -20 250 -20 c 0
 121 -20 32 76 32 217 c 0
 32 366 133 469 279 469 c 0
261 436 m 0
 173 436 125 371 125 251 c 0
 125 109 191 13 289 13 c 0
 370 13 421 85 421 200 c 0
 421 336 353 436 261 436 c 0
EndSplineSet
AlternateSubs2: "'ssty' Math Script Style lookup 4 subtable" glyph3614 glyph3640
EndChar

StartChar: p
Encoding: 112 112 82
Width: 600
GlyphClass: 2
Flags: MW
TopRightVertex: 1  477,100
BottomRightVertex: 1  0,49
HStem: -281 30<8 8> -21 60<287.5 355 282.5 383.5> 400 28<10 10 10 47> 404 73<320.5 360> 449 20G<166 166>
VStem: 91 84<-176 13 98 306> 467 89<181.5 247 181.5 286>
LayerCount: 2
Fore
SplineSet
10 400 m 1xe6
 10 428 l 1
 63 434 115 448 166 469 c 1xee
 175 465 l 1
 175 369 l 1
 219 443 287 477 354 477 c 0xd6
 455 477 552 401 554 271 c 0
 555 261 556 252 556 242 c 0
 556 121 459 -21 308 -21 c 0
 267 -21 223 -10 175 13 c 1
 175 -176 l 2
 175 -239 178 -246 212 -248 c 2
 258 -251 l 1
 258 -281 l 1
 158 -278 158 -278 133 -278 c 0
 108 -278 108 -278 8 -281 c 1
 8 -251 l 1
 54 -248 l 2
 88 -246 91 -239 91 -176 c 2
 91 327 l 2
 91 393 87 400 47 400 c 2
 10 400 l 1xe6
313 404 m 0xd6
 222 404 175 337 175 306 c 2
 175 98 l 1
 214 57 255 39 310 39 c 0
 400 39 467 122 467 234 c 0
 467 338 407 404 313 404 c 0xd6
EndSplineSet
AlternateSubs2: "'ssty' Math Script Style lookup 4 subtable" glyph3615 glyph3641
EndChar

StartChar: q
Encoding: 113 113 83
Width: 600
GlyphClass: 2
Flags: MW
TopRightVertex: 1  477,100
BottomRightVertex: 1  0,49
HStem: -281 30<343 343> -21 60<246 313.5> 400 28<554 591> 404 73<241 280.5 196.5 333.5> 449 20G<435 435>
VStem: 45 89<181.5 247> 426 84<-176 13 13 13 98 306 306 321.5>
LayerCount: 2
Fore
SplineSet
591 428 m 1xee
 591 400 l 1
 554 400 l 2xee
 514 400 510 393 510 327 c 2
 510 -176 l 2
 510 -239 513 -246 547 -248 c 2
 593 -251 l 1
 593 -281 l 1
 493 -278 493 -278 468 -278 c 0
 443 -278 443 -278 343 -281 c 1
 343 -251 l 1
 389 -248 l 2
 423 -246 426 -239 426 -176 c 2
 426 13 l 1
 378 -10 334 -21 293 -21 c 0
 142 -21 45 121 45 242 c 0
 45 252 46 261 47 271 c 0
 49 401 146 477 247 477 c 0xd6
 314 477 382 443 426 369 c 1
 426 465 l 1
 435 469 l 1
 486 448 538 434 591 428 c 1xee
288 404 m 0xd6
 194 404 134 338 134 234 c 0
 134 122 201 39 291 39 c 0
 346 39 387 57 426 98 c 1
 426 306 l 2
 426 337 379 404 288 404 c 0xd6
EndSplineSet
AlternateSubs2: "'ssty' Math Script Style lookup 4 subtable" glyph3616 glyph3642
EndChar

StartChar: r
Encoding: 114 114 84
Width: 394
GlyphClass: 2
Flags: MW
TopRightVertex: 1  469,146
BottomRightVertex: 1  0,49
HStem: -3 30<21 21> 384 85<179 292> 400 28<23 23 23 60>
VStem: 104 84<102 274>
LayerCount: 2
Fore
SplineSet
23 400 m 1xb0
 23 428 l 1xb0
 76 434 128 448 179 469 c 1xd0
 188 465 l 1
 188 362 l 1
 244 428 l 2xb0
 265 453 297 469 327 469 c 0
 345 469 363 465 374 458 c 1
 365 338 l 1
 344 338 l 1
 328 370 307 384 277 384 c 0xd0
 228 384 188 334 188 274 c 2
 188 102 l 2
 188 36 190 33 235 30 c 2
 287 27 l 1
 287 -3 l 1
 164 0 164 0 144 0 c 0
 119 0 93 -1 21 -3 c 1
 21 27 l 1
 67 30 l 2
 101 32 104 39 104 102 c 2
 104 327 l 2
 104 393 100 400 60 400 c 2
 23 400 l 1xb0
EndSplineSet
AlternateSubs2: "'ssty' Math Script Style lookup 4 subtable" glyph3617 glyph3643
EndChar

StartChar: s
Encoding: 115 115 85
Width: 423
GlyphClass: 2
Flags: MW
TopRightVertex: 1  469,100
BottomRightVertex: 1  0,49
HStem: -20 37<159.5 231.5 159.5 232.5> 436 33<172.5 236.5>
VStem: 37 70<300 369> 41 30<108.5 143> 317 74<99 152> 321 28<331 354 331 377.5>
LayerCount: 2
Fore
SplineSet
41 143 m 1xd8
 71 143 l 1
 71 102 l 2
 71 52 123 17 196 17 c 0
 267 17 317 55 317 109 c 0xd8
 317 195 223 169 105 221 c 0
 59 242 37 276 37 324 c 0
 37 414 108 469 224 469 c 0
 265 469 301 462 354 444 c 1
 351 413 350 389 349 331 c 1
 321 331 l 1
 321 354 l 2
 321 401 270 436 203 436 c 0
 142 436 107 408 107 358 c 0xe4
 107 228 391 321 391 148 c 0
 391 50 298 -20 167 -20 c 0
 121 -20 82 -13 30 4 c 1
 38 44 41 74 41 143 c 1xd8
EndSplineSet
AlternateSubs2: "'ssty' Math Script Style lookup 4 subtable" glyph3618 glyph3644
EndChar

StartChar: t
Encoding: 116 116 86
Width: 325
GlyphClass: 2
Flags: MW
TopRightVertex: 1  621,145
BottomRightVertex: 1  0,49
HStem: -12 63<217.5 219.5> 382 48<182 182 182 310>
VStem: 98 84<95.5 120 120 382>
LayerCount: 2
Fore
SplineSet
98 382 m 1
 22 378 l 1
 22 399 l 1
 100 434 l 1
 100 504 l 2
 100 534 99 553 96 583 c 1
 127 593 157 606 181 621 c 1
 193 610 l 1
 185 546 182 510 182 468 c 2
 182 430 l 1
 319 436 l 1
 310 382 l 1
 182 382 l 1
 182 120 l 2
 182 71 198 51 237 51 c 0
 256 51 271 56 296 70 c 1
 309 53 l 1
 261 0 l 2
 255 -7 231 -12 208 -12 c 0
 131 -12 98 20 98 94 c 2
 98 382 l 1
EndSplineSet
AlternateSubs2: "'ssty' Math Script Style lookup 4 subtable" glyph3619 glyph3645
EndChar

StartChar: u
Encoding: 117 117 87
Width: 602
GlyphClass: 2
Flags: MW
TopRightVertex: 1  469,100
BottomRightVertex: 1  0,49
HStem: -12 61<243 262.5> -3 30<581 581> 400 28<18 55 18 18> 449 20G<174 174 494 494>
VStem: 99 84<159 170 170 327 327 360> 419 84<74.5 89 164 327 327 360>
LayerCount: 2
Fore
SplineSet
283 49 m 0xbc
 370 49 419 126 419 164 c 2
 419 327 l 2
 419 393 415 400 375 400 c 2
 338 400 l 1
 338 428 l 1
 391 434 443 448 494 469 c 1
 503 465 l 1
 503 102 l 2
 503 38 506 32 540 30 c 2
 581 27 l 1
 581 -3 l 1
 512 0 512 0 498 0 c 0
 483 0 482 0 415 -3 c 1
 418 44 419 60 419 89 c 1
 352 27 l 2x7c
 325 2 285 -12 240 -12 c 0
 104 -12 99 70 99 159 c 2
 99 327 l 2
 99 393 95 400 55 400 c 2
 18 400 l 1
 18 428 l 1
 71 434 123 448 174 469 c 1
 183 465 l 1
 183 170 l 2
 183 94 203 49 283 49 c 0xbc
EndSplineSet
AlternateSubs2: "'ssty' Math Script Style lookup 4 subtable" glyph3620 glyph3646
EndChar

StartChar: v
Encoding: 118 118 88
Width: 564
GlyphClass: 2
Flags: MW
TopRightVertex: 1  459,146
BottomRightVertex: 1  0,49
HStem: -7 21G<243 293 243 243> 431 28<6 6>
LayerCount: 2
Fore
SplineSet
539 431 m 1
 508 429 l 2
 488 427 474 409 452 362 c 2
 293 -7 l 1
 243 -7 l 1
 71 396 l 2
 60 421 55 427 40 429 c 2
 6 431 l 1
 6 459 l 1
 55 457 103 456 122 456 c 0
 141 456 141 456 239 459 c 1
 239 431 l 1
 190 429 l 2
 174 428 165 421 165 410 c 0
 165 399 168 386 174 372 c 2
 293 84 l 1
 331 167 385 301 397 330 c 0
 409 360 416 387 416 403 c 0
 416 419 408 428 392 429 c 2
 351 431 l 1
 351 459 l 1
 411 457 429 456 445 456 c 0
 461 456 479 457 539 459 c 1
 539 431 l 1
EndSplineSet
AlternateSubs2: "'ssty' Math Script Style lookup 4 subtable" glyph3621 glyph3647
EndChar

StartChar: w
Encoding: 119 119 89
Width: 833
GlyphClass: 2
Flags: MW
TopRightVertex: 1  469,146
BottomRightVertex: 1  0,49
HStem: -7 21G<202 249 202 202 535 581 535 535> 431 28<6 6> 449 20G<413 436 436 436>
LayerCount: 2
Fore
SplineSet
413 469 m 1xa0
 436 469 l 1xa0
 444 442 451 422 465 388 c 2
 580 98 l 1
 685 398 l 1
 685 416 671 428 646 429 c 2
 612 431 l 1
 612 459 l 1
 694 456 694 456 710 456 c 0
 726 456 726 456 808 459 c 1
 808 431 l 1
 782 429 l 2
 760 426 748 409 718 342 c 2
 581 -7 l 1
 535 -7 l 1
 399 335 l 1
 249 -7 l 1
 202 -7 l 1
 100 329 l 2
 75 407 62 427 34 429 c 2
 6 431 l 1
 6 459 l 1
 105 456 105 456 125 456 c 0
 145 456 145 456 244 459 c 1
 244 431 l 1xc0
 204 429 l 2
 179 428 166 420 166 405 c 0
 166 397 251 113 254 104 c 1
 413 469 l 1xa0
EndSplineSet
AlternateSubs2: "'ssty' Math Script Style lookup 4 subtable" glyph3622 glyph3648
EndChar

StartChar: x
Encoding: 120 120 90
Width: 515
GlyphClass: 2
Flags: MW
TopRightVertex: 1  469,100
BottomRightVertex: 1  0,49
HStem: -3 21G<373 373 496 496> 0 27<20 37 37 42 20 106 20 37> 423 26<20 25> 431 28<455.5 464 464 478> 449 20G
LayerCount: 2
Fore
SplineSet
288 254 m 1x10
 436 54 l 2
 447 39 459 31 471 30 c 2
 496 27 l 1x50
 496 -3 l 1x80
 444 0 444 0 434 0 c 0x40
 425 0 425 0 373 -3 c 1x80
 240 192 l 1
 106 0 l 1
 20 0 l 1
 20 27 l 1
 37 27 l 2
 47 27 60 33 67 42 c 2
 216 218 l 1
 96 392 l 2
 86 406 64 420 46 421 c 2
 25 423 l 1x60
 20 449 l 1
 136 469 l 1x08
 170 435 181 422 196 400 c 2
 272 284 l 1
 396 459 l 1
 478 459 l 1
 478 431 l 1
 464 431 l 2
 447 431 436 427 430 420 c 2
 288 254 l 1x10
EndSplineSet
AlternateSubs2: "'ssty' Math Script Style lookup 4 subtable" glyph3623 glyph3649
EndChar

StartChar: y
Encoding: 121 121 91
Width: 555
GlyphClass: 2
Flags: MW
TopRightVertex: 1  459,181
BottomRightVertex: 1  0,49
HStem: -283 67<107 114.5> -268 75<27 64> 431 28<12 12>
LayerCount: 2
Fore
SplineSet
297 86 m 1xa0
 416 378 l 2
 420 388 422 397 422 404 c 0
 422 418 408 427 380 429 c 2
 354 431 l 1
 354 459 l 1
 433 456 433 456 449 456 c 0
 465 456 465 456 544 459 c 1
 544 431 l 1
 516 429 l 2
 491 426 472 399 432 308 c 2
 229 -160 l 2
 191 -247 148 -283 81 -283 c 0xa0
 62 -283 46 -278 27 -268 c 1
 51 -193 l 1
 64 -193 l 1x60
 81 -208 99 -216 115 -216 c 0
 153 -216 192 -169 224 -85 c 2
 247 -24 l 1
 229 26 219 50 191 118 c 2
 82 380 l 2
 67 415 55 426 30 429 c 2
 12 431 l 1
 12 459 l 1
 109 456 109 456 128 456 c 0
 147 456 147 456 244 459 c 1
 244 431 l 1
 206 429 l 2
 183 428 172 420 172 406 c 0
 172 396 176 381 182 364 c 2
 246 196 l 2
 264 147 275 124 297 86 c 1xa0
EndSplineSet
AlternateSubs2: "'ssty' Math Script Style lookup 4 subtable" glyph3624 glyph3650
EndChar

StartChar: z
Encoding: 122 122 92
Width: 499
GlyphClass: 2
Flags: MW
TopRightVertex: 1  462,110
BottomRightVertex: 1  0,49
HStem: 0 35<153.5 175> 424 35<317 336 317 341>
VStem: 60 30<330 330> 436 30<139 139>
LayerCount: 2
Fore
SplineSet
455 432 m 1
 141 35 l 1
 276 35 l 2
 372 35 414 42 418 60 c 2
 436 139 l 1
 466 139 l 1
 460 92 l 2
 453 44 451 20 451 -3 c 1
 175 0 l 2
 132 0 126 0 22 -3 c 1
 16 17 l 1
 106 122 l 1
 276 334 l 2
 303 368 320 391 341 424 c 1
 198 424 l 2
 124 424 106 419 102 398 c 2
 90 330 l 1
 60 330 l 1
 66 399 67 411 69 462 c 1
 317 459 l 2
 355 459 385 460 455 462 c 1
 455 432 l 1
EndSplineSet
AlternateSubs2: "'ssty' Math Script Style lookup 4 subtable" glyph3625 glyph3651
EndChar

StartChar: braceleft
Encoding: 123 123 93
Width: 332
GlyphClass: 2
Flags: MW
GlyphVariantsVertical: braceleft braceBigl bracebiggl braceBiggl
GlyphCompositionVertical: 5  uni23A9%0,0,35,715 uni23AA%1,25,10,326 uni23A8%0,35,35,757 uni23AA%1,10,25,326 uni23A7%0,35,0,721
HStem: 706 20G<239 289>
VStem: 134 72<-17 128 392 409 409 578 578 595>
LayerCount: 2
Fore
SplineSet
289 -175 m 1
 176 -175 134 -149 134 -17 c 2
 134 151 l 2
 134 223 124 254 58 273 c 1
 120 292 134 327 134 392 c 2
 134 578 l 2
 134 703 189 726 289 726 c 1
 224 707 206 667 206 595 c 2
 206 409 l 2
 206 335 194 292 125 274 c 1
 125 272 l 1
 197 253 206 207 206 128 c 2
 206 -45 l 2
 206 -117 226 -161 289 -175 c 1
EndSplineSet
EndChar

StartChar: bar
Encoding: 124 124 94
Width: 210
GlyphClass: 2
Flags: MW
GlyphVariantsVertical: bar barbig barBig barbigg barBigg barbiggg barBiggg
GlyphCompositionVertical: 2  barBigg%1,772,772,2315 barBigg%0,772,772,2315
VStem: 76 59<-172 713>
LayerCount: 2
Fore
SplineSet
135 -172 m 1
 76 -172 l 1
 76 713 l 1
 135 713 l 1
 135 -172 l 1
EndSplineSet
EndChar

StartChar: braceright
Encoding: 125 125 95
Width: 332
GlyphClass: 2
Flags: MW
GlyphVariantsVertical: braceright braceBigr bracebiggr braceBiggr
GlyphCompositionVertical: 5  uni23AD%0,0,35,715 uni23AA%1,25,10,326 uni23AC%0,35,35,757 uni23AA%1,10,25,326 uni23AB%0,35,0,721
HStem: 706 20G<44 94>
VStem: 127 72<-45 -17 -17 128 128 151 409 578>
LayerCount: 2
Fore
SplineSet
275 273 m 1
 209 254 199 223 199 151 c 2
 199 -17 l 2
 199 -149 157 -175 44 -175 c 1
 107 -161 127 -117 127 -45 c 2
 127 128 l 2
 127 207 136 253 208 272 c 1
 208 274 l 1
 139 292 127 335 127 409 c 2
 127 595 l 2
 127 667 109 707 44 726 c 1
 144 726 199 703 199 578 c 2
 199 392 l 2
 199 327 213 292 275 273 c 1
EndSplineSet
EndChar

StartChar: asciitilde
Encoding: 126 126 96
Width: 605
GlyphClass: 2
Flags: MW
HStem: 201 56<390.5 434.5 390.5 442.5> 272 57<171 220>
LayerCount: 2
Fore
SplineSet
190 329 m 0
 263 329 365 257 416 257 c 0
 453 257 490 286 521 341 c 1
 555 314 l 1
 512 236 468 201 417 201 c 0
 351 201 249 272 191 272 c 0
 151 272 125 250 85 182 c 1
 51 209 l 1
 100 296 139 329 190 329 c 0
EndSplineSet
EndChar

StartChar: exclamdown
Encoding: 161 161 98
Width: 277
GlyphClass: 2
Flags: MW
HStem: 353 116<123 153>
VStem: 81 116<396 425.5 395 426> 117 38<221 264 246 264>
LayerCount: 2
Fore
SplineSet
115 -225 m 1xa0
 81 -225 l 1
 81 -200 l 2xc0
 81 -157 88 -114 93 -57 c 2
 117 221 l 1
 117 246 l 1
 145 269 l 1
 155 264 l 1
 155 251 155 249 157 224 c 2
 183 -81 l 2
 185 -109 187 -137 190 -187 c 1
 115 -225 l 1xa0
138 469 m 0
 169 469 197 441 197 410 c 0
 197 380 169 353 137 353 c 0
 108 353 81 381 81 411 c 0
 81 441 108 469 138 469 c 0
EndSplineSet
EndChar

StartChar: cent
Encoding: 162 162 99
Width: 499
GlyphClass: 2
Flags: MW
HStem: -14 50<272 343> 424 46<232 325>
VStem: 61 89<192.5 269.5> 406 28<314 337>
LayerCount: 2
Fore
SplineSet
347 411 m 1
 241 58 l 1
 271 42 294 36 326 36 c 0
 360 36 390 44 439 64 c 1
 448 53 l 1
 428 20 l 1
 377 -4 336 -14 283 -14 c 0
 261 -14 246 -13 221 -9 c 1
 193 -101 l 1
 152 -101 l 1
 184 3 l 1
 142 25 122 42 100 74 c 0
 75 111 61 163 61 222 c 0
 61 317 95 382 163 416 c 2
 243 456 l 2
 261 465 287 470 325 470 c 1
 352 562 l 1
 392 562 l 1
 365 470 l 1
 391 469 418 460 445 444 c 1
 437 395 434 360 434 314 c 1
 406 314 l 1
 397 380 l 1
 384 394 372 401 347 411 c 1
208 84 m 1
 309 419 l 1
 284 423 277 424 270 424 c 0
 194 424 150 360 150 251 c 0
 150 131 203 89 208 84 c 1
EndSplineSet
EndChar

StartChar: sterling
Encoding: 163 163 100
Width: 499
GlyphClass: 2
Flags: MW
HStem: -10 79<399 417.5 399 430.5> 313 45<12 20> 647 47<351.5 384>
VStem: 108 84<286 443 316 443 355 443 354 461 354 493.5> 436 32<532 582> 444 26<10 158>
LayerCount: 2
Fore
SplineSet
338 647 m 0xf8
 221 647 192 544 192 443 c 2
 192 354 l 1
 374 360 l 1
 370 312 l 1
 274 315 257 316 189 317 c 1
 184 230 157 158 95 69 c 1
 132 74 172 76 228 76 c 0
 255 76 390 69 408 69 c 0
 427 69 433 77 437 106 c 2
 444 158 l 1
 470 158 l 1
 470 10 l 1xf4
 449 -7 441 -10 420 -10 c 0
 265 -10 240 22 79 32 c 1
 34 -13 l 1
 12 -13 l 1
 12 36 l 1
 45 69 60 57 74 86 c 0
 94 126 108 207 108 286 c 2
 108 316 l 1
 12 313 l 1
 20 358 l 1
 63 357 69 357 108 355 c 1
 108 461 l 2
 108 526 141 581 207 629 c 0
 270 674 323 694 380 694 c 0
 421 694 444 688 478 668 c 1
 471 633 468 598 468 566 c 0
 468 558 468 547 469 532 c 1
 436 532 l 1
 435 594 430 647 338 647 c 0xf8
EndSplineSet
EndChar

StartChar: currency
Encoding: 164 164 101
Width: 499
GlyphClass: 2
Flags: MW
HStem: 102 59<223.5 276.5> 465 59<226 274 226 293.5>
VStem: 37 59<288 339> 404 59<288 339 288 354>
LayerCount: 2
Fore
SplineSet
77 531 m 1
 125 483 l 1
 162 511 202 524 250 524 c 0
 298 524 337 511 375 483 c 1
 423 531 l 1
 470 484 l 1
 421 435 l 1
 451 401 463 365 463 313 c 0
 463 263 451 228 421 190 c 1
 470 141 l 1
 425 96 l 1
 377 144 l 1
 340 114 303 102 250 102 c 0
 197 102 160 114 123 144 c 1
 75 96 l 1
 30 141 l 1
 79 190 l 1
 49 228 37 263 37 313 c 0
 37 365 49 401 79 435 c 1
 30 484 l 1
 77 531 l 1
253 465 m 0
 166 465 96 397 96 314 c 0
 96 229 165 161 250 161 c 0
 335 161 404 229 404 313 c 0
 404 395 334 465 253 465 c 0
EndSplineSet
EndChar

StartChar: yen
Encoding: 165 165 102
Width: 499
GlyphClass: 2
Flags: MW
HStem: -3 30<142 142> 207 39<71 227 71 227 300 456> 343 39<71 182 71 200 71 182 334 456> 651 50 674 20G<426 496 496 496>
VStem: 227 73<120 207 246 262 262 266> 426 70<679 694>
LayerCount: 2
Fore
SplineSet
496 679 m 1xee
 452 618 403 529 366 450 c 2
 334 382 l 1
 456 382 l 1
 456 343 l 1
 317 343 l 1
 309 325 300 302 300 278 c 2
 300 246 l 1
 456 246 l 1
 456 207 l 1
 300 207 l 1
 300 120 l 2
 300 39 305 34 344 30 c 2
 385 27 l 1
 385 -3 l 1
 340 -1 300 0 260 0 c 0
 217 0 176 -1 142 -3 c 1
 142 27 l 1
 183 30 l 2
 224 34 227 42 227 120 c 2
 227 207 l 1
 71 207 l 1
 71 246 l 1
 227 246 l 1
 227 262 l 2
 227 270 226 284 221 293 c 2
 200 343 l 1
 71 343 l 1
 71 382 l 1
 182 382 l 1
 107 542 l 2
 87 584 61 651 13 651 c 0
 10 651 8 650 5 650 c 1
 5 679 l 1
 97 700 l 2
 101 701 104 701 107 701 c 0xf6
 146 701 160 642 175 602 c 2
 279 341 l 1
 349 504 l 2
 377 568 402 630 426 694 c 1
 496 694 l 1
 496 679 l 1xee
EndSplineSet
EndChar

StartChar: brokenbar
Encoding: 166 166 103
Width: 210
GlyphClass: 2
Flags: MW
VStem: 76 59<-172 197 344 713>
LayerCount: 2
Fore
SplineSet
135 344 m 1
 76 344 l 1
 76 713 l 1
 135 713 l 1
 135 344 l 1
135 -172 m 1
 76 -172 l 1
 76 197 l 1
 135 197 l 1
 135 -172 l 1
EndSplineSet
EndChar

StartChar: section
Encoding: 167 167 104
Width: 499
GlyphClass: 2
Flags: MW
HStem: -219 52<204 266> -38 20G<56 88 88 88> 657 52<216 268.5>
VStem: 26 66<233.5 271.5> 51 58<464.5 543> 56 32<-18 -18> 372 31<521 521> 384 63<-49.5 27.5 -49.5 35.5> 399 66<223.5 264.5>
LayerCount: 2
Fore
SplineSet
109 534 m 0xea
 109 388 465 444 465 253 c 0xe880
 465 194 431 146 387 111 c 1
 431 90 447 51 447 4 c 0
 447 -103 328 -219 204 -219 c 0
 148 -219 86 -201 44 -175 c 1
 50 -120 54 -70 56 -18 c 1
 88 -18 l 1xe5
 93 -108 l 1
 130 -151 170 -167 238 -167 c 0
 313 -167 384 -128 384 -46 c 0
 384 117 26 56 26 245 c 0xf1
 26 298 63 352 109 382 c 1
 75 405 51 444 51 485 c 0
 51 601 154 709 278 709 c 0
 324 709 371 701 416 673 c 1
 410 633 404 574 403 521 c 1
 372 521 l 1
 367 608 l 1
 330 642 293 657 244 657 c 0
 171 657 109 613 109 534 c 0xea
399 212 m 0
 399 317 242 324 135 369 c 1
 106 344 92 318 92 279 c 0xf080
 92 188 290 159 365 123 c 1
 385 153 399 183 399 212 c 0
EndSplineSet
EndChar

StartChar: dieresis
Encoding: 168 168 105
Width: 332
GlyphClass: 2
Flags: MW
HStem: 537 100<52.5 82 251.5 281>
VStem: 17 100<572 601.5 572 602> 216 100<572 601.5 572 602>
LayerCount: 2
Fore
SplineSet
68 637 m 0
 97 637 117 616 117 587 c 0
 117 557 97 537 67 537 c 0
 37 537 17 557 17 587 c 0
 17 617 37 637 68 637 c 0
267 637 m 0
 296 637 316 616 316 587 c 0
 316 557 296 537 266 537 c 0
 236 537 216 557 216 587 c 0
 216 617 236 637 267 637 c 0
EndSplineSet
EndChar

StartChar: copyright
Encoding: 169 169 106
Width: 906
GlyphClass: 2
Flags: MW
HStem: -164 48<347 558.5 347 572.5> 19 37<424.5 496.5> 478 29<411 507.5 404.5 516.5> 657 48<347 558.5>
VStem: 18 48<165 376.5 165 390> 208 87<222 342 222 348> 612 26<352 353> 841 48<164.5 377>
LayerCount: 2
Fore
SplineSet
889 271 m 0
 889 32 692 -164 453 -164 c 0
 214 -164 18 32 18 271 c 0
 18 509 214 705 453 705 c 0
 692 705 889 509 889 271 c 0
841 271 m 0
 841 483 664 657 453 657 c 0
 241 657 66 482 66 271 c 0
 66 59 241 -116 453 -116 c 0
 664 -116 841 58 841 271 c 0
643 116 m 1
 654 105 l 1
 643 71 l 1
 599 33 525 19 468 19 c 0
 322 19 208 116 208 268 c 0
 208 428 330 507 479 507 c 0
 536 507 593 497 647 476 c 1
 649 472 l 1
 641 433 639 392 638 353 c 1
 635 350 l 1
 615 350 l 1
 612 352 l 1
 611 446 563 478 470 478 c 0
 352 478 295 398 295 286 c 0
 295 158 355 56 494 56 c 0
 550 56 605 72 643 116 c 1
EndSplineSet
EndChar

StartChar: ordfeminine
Encoding: 170 170 107
Width: 332
GlyphClass: 2
Flags: MW
HStem: 422 34<77.5 139> 426 18<307.5 310> 677 32<147.5 156.5>
VStem: 24 56<489.5 519.5> 214 52<477 477 502 581 581 581 600 600>
LayerCount: 2
Fore
SplineSet
310 426 m 1x78
 305 426 271 429 261 429 c 2
 234 428 l 2
 225 427 219 427 217 427 c 2
 211 426 l 1x78
 214 477 l 1
 133 425 l 1
 119 423 111 422 101 422 c 0xb8
 54 422 24 449 24 493 c 0
 24 546 63 576 150 590 c 2
 214 600 l 1
 213 654 187 677 126 677 c 0
 92 677 91 673 76 645 c 2
 67 626 l 1
 50 630 l 1
 50 669 l 1
 85 689 l 2
 108 702 134 709 161 709 c 0
 259 709 266 650 266 608 c 2
 266 590 l 1
 266 488 l 2
 266 450 269 444 290 444 c 2
 310 444 l 1
 310 426 l 1x78
214 502 m 1
 214 581 l 1
 115 569 80 548 80 503 c 0
 80 476 102 456 130 456 c 0xb8
 148 456 180 469 193 482 c 2
 214 502 l 1
EndSplineSet
EndChar

StartChar: guillemotleft
Encoding: 171 171 108
Width: 499
GlyphClass: 2
Flags: W
LayerCount: 2
Fore
SplineSet
130 248 m 1
 249 86 l 1
 226 71 l 1
 50 242 l 1
 50 254 l 1
 226 428 l 1
 249 415 l 1
 130 248 l 1
331 248 m 1
 450 86 l 1
 427 71 l 1
 251 242 l 1
 251 254 l 1
 427 428 l 1
 450 415 l 1
 331 248 l 1
EndSplineSet
EndChar

StartChar: logicalnot
Encoding: 172 172 109
Width: 673
GlyphClass: 2
Flags: MW
HStem: 299 61<65 551 65 608>
VStem: 551 57<88 299 299 299>
LayerCount: 2
Fore
SplineSet
608 88 m 1
 551 88 l 1
 551 299 l 1
 65 299 l 1
 65 360 l 1
 608 360 l 1
 608 88 l 1
EndSplineSet
EndChar

StartChar: registered
Encoding: 174 174 110
Width: 906
GlyphClass: 2
Flags: MW
HStem: -164 48<347 558.5 347 572.5> 36 28<231 231> 462 34<471 473> 657 48<347 558.5>
VStem: 18 48<165 376.5 165 390> 295 82<210.5 216 216 328 328 333.5> 541 90<358 406> 841 48<164.5 377>
LayerCount: 2
Fore
SplineSet
889 271 m 0
 889 32 692 -164 453 -164 c 0
 214 -164 18 32 18 271 c 0
 18 509 214 705 453 705 c 0
 692 705 889 509 889 271 c 0
841 271 m 0
 841 483 664 657 453 657 c 0
 241 657 66 482 66 271 c 0
 66 59 241 -116 453 -116 c 0
 664 -116 841 58 841 271 c 0
711 40 m 1
 707 36 l 1
 689 38 671 40 652 40 c 0
 632 40 612 38 592 36 c 1
 394 273 l 1
 401 282 l 1
 468 282 541 291 541 376 c 0
 541 436 501 462 445 462 c 0
 422 462 399 459 377 454 c 1
 377 216 l 2
 377 205 376 185 376 163 c 0
 376 124 379 78 398 70 c 0
 406 67 432 65 441 64 c 1
 445 61 l 1
 445 40 l 1
 441 36 l 1
 406 39 371 40 336 40 c 0
 301 40 266 39 231 36 c 1
 227 40 l 1
 227 61 l 1
 231 64 l 1
 295 71 295 65 295 198 c 2
 295 328 l 2
 295 339 296 357 296 378 c 0
 296 413 293 454 275 462 c 0
 266 465 241 467 231 468 c 1
 227 472 l 1
 227 492 l 1
 231 496 l 1
 266 493 301 492 336 492 c 0
 390 492 444 496 498 496 c 0
 563 496 631 471 631 394 c 0
 631 322 570 284 507 269 c 1
 648 101 l 2
 667 79 677 65 707 64 c 1
 711 61 l 1
 711 40 l 1
EndSplineSet
EndChar

StartChar: degree
Encoding: 176 176 111
Width: 400
GlyphClass: 2
Flags: MW
HStem: 389 40<169.5 230 169.5 240.5> 649 40<169 229.5>
VStem: 50 40<508.5 569.5 508.5 580.5> 310 40<508 568>
LayerCount: 2
Fore
SplineSet
199 689 m 0
 283 689 350 621 350 537 c 0
 350 457 281 389 200 389 c 0
 117 389 50 456 50 539 c 0
 50 622 117 689 199 689 c 0
199 649 m 0
 139 649 90 600 90 539 c 0
 90 478 139 429 200 429 c 0
 260 429 310 479 310 537 c 0
 310 599 260 649 199 649 c 0
EndSplineSet
EndChar

StartChar: plusminus
Encoding: 177 177 112
Width: 668
GlyphClass: 2
Flags: MW
HStem: 0 55<65 604 65 604> 279 59<65 305 65 305 364 604>
VStem: 305 59<87 279 87 279 338 541>
LayerCount: 2
Fore
SplineSet
604 279 m 1
 364 279 l 1
 364 87 l 1
 305 87 l 1
 305 279 l 1
 65 279 l 1
 65 338 l 1
 305 338 l 1
 305 541 l 1
 364 541 l 1
 364 338 l 1
 604 338 l 1
 604 279 l 1
604 0 m 1
 65 0 l 1
 65 55 l 1
 604 55 l 1
 604 0 l 1
EndSplineSet
EndChar

StartChar: uni00B2
Encoding: 178 178 113
Width: 299
GlyphClass: 2
Flags: MW
HStem: 273 52<81 155> 634 52<113.5 145>
VStem: 19 24<558 558> 201 61<550.5 580>
LayerCount: 2
Fore
SplineSet
282 301 m 0
 282 280 283 278 284 271 c 1
 207 272 167 273 143 273 c 0
 122 273 111 273 6 271 c 1
 6 291 l 1
 109 399 l 2
 176 469 201 512 201 556 c 0
 201 604 170 634 120 634 c 0
 81 634 61 620 52 588 c 2
 43 558 l 1
 19 558 l 1
 30 643 l 1
 61 674 91 686 136 686 c 0
 214 686 262 642 262 573 c 0
 262 528 244 495 185 433 c 2
 81 325 l 1
 194 328 201 328 284 331 c 1
 283 325 282 319 282 301 c 0
EndSplineSet
EndChar

StartChar: uni00B3
Encoding: 179 179 114
Width: 299
GlyphClass: 2
Flags: MW
HStem: 261 31<99.5 154> 470 27<135 144 121 167> 640 46<119 149.5>
VStem: 5 22<369 377> 198 56<578.5 592.5> 219 62<371 414>
LayerCount: 2
Fore
SplineSet
27 377 m 1xf4
 32 364 48 292 130 292 c 0
 184 292 219 330 219 388 c 0xf4
 219 440 191 470 143 470 c 0
 127 470 114 467 92 457 c 1
 85 463 l 1
 93 499 l 1
 109 498 118 497 124 497 c 0
 164 497 198 533 198 575 c 0
 198 610 168 640 131 640 c 0
 101 640 65 621 59 602 c 2
 47 567 l 1
 22 567 l 1
 40 645 l 1
 72 675 98 686 140 686 c 0
 208 686 254 649 254 596 c 0xf8
 254 561 236 533 193 499 c 1
 253 487 281 458 281 408 c 0
 281 334 197 261 111 261 c 0
 88 261 65 265 27 277 c 1
 24 308 18 330 5 369 c 1
 27 377 l 1xf4
EndSplineSet
EndChar

StartChar: acute
Encoding: 180 180 115
Width: 333
GlyphClass: 2
Flags: W
LayerCount: 2
Fore
SplineSet
83 545 m 1
 84 539 l 1
 99 532 l 1
 105 534 l 1
 249 716 l 1
 240 729 l 1
 234 730 l 1
 199 723 l 2
 186 721 172 718 158 716 c 1
 83 545 l 1
EndSplineSet
EndChar

StartChar: uni00B5
Encoding: 181 181 116
Width: 610
GlyphClass: 2
Flags: MW
HStem: -15 69<412 499> -12 54<222.973 264.5> 447 20G
VStem: 89 50<-88 -75.8267> 112 60<204.295 241.5 171.648 322> 399 59<243.767 245 168.808 340>
LayerCount: 2
Fore
SplineSet
458 196 m 0x6c
 458 141.616210938 450.603515625 54 486 54 c 0
 512 54 535 77 553 92 c 1
 559 90 564 86 567 81 c 2
 567 74 l 1
 538 43 477 -15 428 -15 c 0xac
 396 -15 389 14 389 44 c 0
 389 66 393 88 394 101 c 1
 384 104 l 1
 353 54 298 -12 231 -12 c 0
 195 -12 160 3 141 36 c 1
 139 8 139 -18 139 -43 c 0
 139 -133 151 -204 194 -261 c 1
 187 -273 l 1
 166 -281 143 -285 120 -286 c 1
 96 -243 89 -198 89 -146 c 0x74
 89 -5.6533203125 112 118.58984375 112 290 c 0
 112 354 109 413 98 453 c 1
 123 457 148 462 175 467 c 1
 179 442 180 418 180 393 c 0
 180 332 172 272 172 211 c 0
 172 132.295898438 182.946289062 42 263 42 c 0
 386.415039062 42 399 173.534179688 399 314 c 0
 399 366 397 417 393 445 c 1
 401 456 l 1
 424 459 445 465 466 473 c 1
 475 463 l 1
 465 417 458 294 458 196 c 0x6c
EndSplineSet
EndChar

StartChar: paragraph
Encoding: 182 182 117
Width: 627
GlyphClass: 2
Flags: MW
HStem: -150 30<185 185> 345 37<231.5 280> 656 38<223 268.5> 664 30<589 589>
VStem: 39 111<485 571.5 485 582> 280 73<-27 345 345 345 382 655 -120 655> 421 73<-67.5 -27 -27 574>
LayerCount: 2
Fore
SplineSet
589 -150 m 1xde
 541 -149 474 -147 387 -147 c 0
 297 -147 230 -149 185 -150 c 1
 185 -120 l 1
 227 -117 l 2
 268 -114 280 -107 280 -27 c 2
 280 345 l 1
 183 345 39 412 39 542 c 0
 39 622 98 694 223 694 c 2
 241 694 l 2xee
 299 691 357 689 416 689 c 0
 475 689 533 691 589 694 c 1
 589 664 l 1
 557 661 l 2
 509 656 494 646 494 574 c 2
 494 -27 l 2
 494 -108 507 -114 547 -117 c 2
 589 -120 l 1
 589 -150 l 1xde
280 382 m 1
 280 655 l 1
 276 656 271 656 266 656 c 0
 217 656 150 621 150 522 c 0
 150 448 210 394 280 382 c 1
421 -120 m 1
 421 655 l 1
 353 655 l 1
 353 -120 l 1
 421 -120 l 1
EndSplineSet
EndChar

StartChar: periodcentered
Encoding: 183 183 118
Width: 249
GlyphClass: 2
Flags: MW
HStem: 203 116<109 139>
VStem: 67 116<246 275.5 245 276>
LayerCount: 2
Fore
SplineSet
124 319 m 0
 155 319 183 291 183 260 c 0
 183 230 155 203 123 203 c 0
 94 203 67 231 67 261 c 0
 67 291 94 319 124 319 c 0
EndSplineSet
EndChar

StartChar: cedilla
Encoding: 184 184 119
Width: 332
GlyphClass: 2
Flags: MW
HStem: -225 36<166.5 192.5 166 218> -107 36<182.5 245> -30 20G<183 217 217 217>
VStem: 229 75<-160 -134.5>
LayerCount: 2
Fore
SplineSet
141 -108 m 1
 183 -10 l 1
 217 -10 l 1
 192 -75 l 1
 202 -72 209 -71 219 -71 c 0
 271 -71 304 -98 304 -141 c 0
 304 -193 256 -225 180 -225 c 0
 153 -225 139 -222 96 -209 c 1
 110 -178 l 1
 143 -187 157 -189 175 -189 c 0
 210 -189 229 -174 229 -146 c 0
 229 -123 213 -107 189 -107 c 0
 176 -107 167 -109 148 -114 c 1
 141 -108 l 1
EndSplineSet
EndChar

StartChar: uni00B9
Encoding: 185 185 120
Width: 299
GlyphClass: 2
Flags: MW
HStem: 271 24<54 54> 600 31<32 37 32 47> 669 20G<172 172>
VStem: 127 57<333 619 619 623.5>
LayerCount: 2
Fore
SplineSet
37 600 m 1
 32 631 l 1
 92 652 130 668 172 689 c 1
 184 685 l 1
 184 333 l 2
 184 304 189 299 220 297 c 2
 254 295 l 1
 254 271 l 1
 213 272 208 272 198 272 c 0
 176 273 162 273 156 273 c 0
 149 273 103 272 54 271 c 1
 54 295 l 1
 91 297 l 2
 122 298 127 304 127 333 c 2
 127 619 l 2
 127 628 127 631 125 635 c 1
 47 600 l 1
 37 600 l 1
EndSplineSet
EndChar

StartChar: ordmasculine
Encoding: 186 186 121
Width: 332
GlyphClass: 2
Flags: MW
HStem: 416 20<142.5 200 142.5 203.5> 689 20<130.5 188.5>
VStem: 10 60<537 602.5> 263 60<525 590>
LayerCount: 2
Fore
SplineSet
173 709 m 0
 261 709 323 650 323 567 c 0
 323 483 250 416 157 416 c 0
 69 416 10 473 10 558 c 0
 10 647 76 709 173 709 c 0
159 689 m 0
 102 689 70 650 70 579 c 0
 70 495 112 436 173 436 c 0
 227 436 263 482 263 551 c 0
 263 629 218 689 159 689 c 0
EndSplineSet
EndChar

StartChar: guillemotright
Encoding: 187 187 122
Width: 499
GlyphClass: 2
Flags: W
LayerCount: 2
Fore
SplineSet
251 86 m 1
 370 248 l 1
 251 415 l 1
 274 428 l 1
 450 254 l 1
 450 242 l 1
 274 71 l 1
 251 86 l 1
50 86 m 1
 169 248 l 1
 50 415 l 1
 73 428 l 1
 249 254 l 1
 249 242 l 1
 73 71 l 1
 50 86 l 1
EndSplineSet
EndChar

StartChar: onequarter
Encoding: 188 188 123
Width: 749
GlyphClass: 2
Flags: MW
HStem: -3 25<515 536> 107 46<466 595 466 595 422 595 657 674 674 675.5> 273 26<50 86> 669 20G<201 201 607 659 659 659> 672 20G<191 191>
VStem: 129 64<379 485> 595 60<71 230 107 230 153 230 153 345>
LayerCount: 2
Fore
SplineSet
595 107 m 1xe6
 422 107 l 1
 417 122 l 1
 426 140 429 146 444 172 c 2
 602 400 l 1
 651 416 l 1
 660 413 l 1
 656 341 655 299 655 230 c 2
 655 153 l 1
 674 153 l 2
 677 153 681 152 686 152 c 0
 695 152 707 153 727 155 c 1
 727 104 l 1
 709 106 696 107 657 107 c 1
 657 71 l 2
 657 38 671 22 701 22 c 2
 722 22 l 1
 722 -3 l 1
 678 -1 655 0 622 0 c 0
 595 0 569 -1 515 -3 c 1
 515 22 l 1
 536 22 l 2
 580 22 595 34 595 71 c 2
 595 107 l 1xe6
595 153 m 1
 595 345 l 1
 466 153 l 1
 595 153 l 1
208 0 m 1
 156 0 l 1
 607 689 l 1
 659 689 l 1xf6
 208 0 l 1
268 273 m 1
 246 274 167 276 156 276 c 0
 145 276 71 274 50 273 c 1
 50 299 l 1
 86 299 l 2
 122 299 129 312 129 379 c 2
 129 617 l 2
 129 631 128 635 124 636 c 2
 121 636 l 1
 41 602 l 1
 34 602 l 1
 30 634 l 1
 191 692 l 1xee
 201 689 l 1
 195 599 193 550 193 485 c 2
 193 379 l 2
 193 311 199 299 235 299 c 2
 268 299 l 1
 268 273 l 1
EndSplineSet
EndChar

StartChar: onehalf
Encoding: 189 189 124
Width: 749
GlyphClass: 2
Flags: MW
HStem: 0 53<566.5 589> 273 26<35 71> 364 49<548 584> 669 20G<186 186 573 625 625 625> 672 20G<176 176>
VStem: 114 64<379 485> 642 68<278 307.5>
LayerCount: 2
Fore
SplineSet
174 0 m 1xf6
 122 0 l 1
 573 689 l 1
 625 689 l 1
 174 0 l 1xf6
253 273 m 1
 231 274 152 276 141 276 c 0
 130 276 56 274 35 273 c 1
 35 299 l 1
 71 299 l 2
 107 299 114 312 114 379 c 2
 114 617 l 2
 114 631 113 635 109 636 c 2
 106 636 l 1
 26 602 l 1
 19 602 l 1
 15 634 l 1
 176 692 l 1xee
 186 689 l 1
 180 599 178 550 178 485 c 2
 178 379 l 2
 178 311 184 299 220 299 c 2
 253 299 l 1
 253 273 l 1
449 282 m 1
 461 371 l 1
 493 401 524 413 572 413 c 0
 655 413 710 368 710 301 c 0
 710 255 686 212 634 162 c 2
 519 53 l 1
 641 53 l 2
 678 53 701 54 735 58 c 1
 733 42 733 34 733 25 c 0
 733 15 733 9 735 -3 c 1
 640 -1 600 0 578 0 c 0
 555 0 555 0 434 -3 c 1
 434 17 l 1
 542 121 l 2
 616 192 642 234 642 281 c 0
 642 334 611 364 557 364 c 0
 520 364 498 349 486 317 c 2
 473 282 l 1
 449 282 l 1
EndSplineSet
EndChar

StartChar: threequarters
Encoding: 190 190 125
Width: 749
GlyphClass: 2
Flags: MW
HStem: -3 25<523 544> 107 46<474 603 474 603 430 603 665 682> 266 32<124.5 180.5 124.5 184.5> 458 47<113 117> 471 33<152 166.5 131 189.5> 643 46<142 171.5>
VStem: 225 60<582.5 597.5> 247 66<371 417> 603 60<71 230 107 230 153 230 153 345>
LayerCount: 2
Fore
SplineSet
41 578 m 1xee80
 60 649 l 1
 91 678 120 689 164 689 c 0
 237 689 285 654 285 600 c 0xee80
 285 565 265 538 213 501 c 1
 283 490 313 463 313 410 c 0
 313 332 232 266 137 266 c 0
 108 266 84 270 41 282 c 1
 38 311 24 344 15 376 c 1
 46 384 l 1
 67 322 97 298 152 298 c 0
 209 298 247 335 247 391 c 0
 247 443 217 471 162 471 c 0xed80
 142 471 128 467 113 458 c 1
 103 462 l 1
 113 505 l 1xf580
 121 505 129 505 131 504 c 2
 145 504 l 2
 188 504 225 540 225 580 c 0
 225 615 192 643 151 643 c 0
 108 643 76 618 66 578 c 1
 41 578 l 1xee80
217 0 m 1
 165 0 l 1
 616 689 l 1
 668 689 l 1
 217 0 l 1
603 107 m 1
 430 107 l 1
 425 122 l 1
 434 140 437 146 452 172 c 2
 610 400 l 1
 659 416 l 1
 668 413 l 1
 664 341 663 299 663 230 c 2
 663 153 l 1
 682 153 l 2
 691 152 704 152 735 155 c 1
 735 104 l 1
 717 106 704 107 665 107 c 1
 665 71 l 2
 665 38 679 22 709 22 c 2
 730 22 l 1
 730 -3 l 1
 686 -1 663 0 630 0 c 0
 603 0 577 -1 523 -3 c 1
 523 22 l 1
 544 22 l 2
 588 22 603 34 603 71 c 2
 603 107 l 1
603 153 m 1
 603 345 l 1
 474 153 l 1
 603 153 l 1
EndSplineSet
EndChar

StartChar: questiondown
Encoding: 191 191 126
Width: 443
GlyphClass: 2
Flags: MW
HStem: -231 66<223 246.5> 353 116<226 256>
VStem: 43 93<-88 -48.5> 184 116<396 425.5 395 426> 247 43<203.5 223.5 164 228>
LayerCount: 2
Fore
SplineSet
290 209 m 0xe8
 290 119 136 46 136 -56 c 0
 136 -120 187 -165 259 -165 c 0
 303 -165 335 -150 346 -123 c 2
 366 -75 l 1
 395 -83 l 1
 357 -196 l 1
 304 -222 269 -231 224 -231 c 0
 121 -231 43 -164 43 -77 c 0
 43 -20 67 18 153 96 c 0
 234 169 247 187 247 220 c 0
 247 236 241 248 225 268 c 1
 246 282 l 1
 276 263 290 238 290 209 c 0xe8
241 469 m 0
 272 469 300 441 300 410 c 0
 300 380 272 353 240 353 c 0
 211 353 184 381 184 411 c 0xf0
 184 441 211 469 241 469 c 0
EndSplineSet
EndChar

StartChar: Agrave
Encoding: 192 192 127
Width: 777
GlyphClass: 2
Flags: MW
HStem: -3 30<15 15> 229 40<240 493 240 511 223 493> 680 20G<376 408 408 408>
LayerCount: 2
Fore
SplineSet
408 700 m 1
 650 132 l 2
 685 51 696 34 722 30 c 2
 756 27 l 1
 756 -3 l 1
 648 0 648 0 629 0 c 0
 613 0 613 0 490 -3 c 1
 490 27 l 1
 537 30 l 2
 562 32 578 39 578 50 c 0
 578 59 574 72 557 114 c 2
 511 229 l 1
 223 229 l 1
 195 162 l 2
 174 112 160 69 160 56 c 0
 160 40 173 33 208 30 c 2
 245 27 l 1
 245 -3 l 1
 137 0 137 0 124 0 c 0
 108 0 108 0 15 -3 c 1
 15 27 l 1
 52 30 l 2
 74 32 94 50 106 79 c 2
 337 605 l 1
 376 700 l 1
 408 700 l 1
240 269 m 1
 493 269 l 1
 367 567 l 1
 240 269 l 1
430 737 m 1
 286 827 l 2
 253 848 246 856 246 874 c 0
 246 893 260 908 277 908 c 0
 291 908 311 896 332 875 c 2
 470 737 l 1
 430 737 l 1
EndSplineSet
EndChar

StartChar: Aacute
Encoding: 193 193 128
Width: 777
GlyphClass: 2
Flags: MW
HStem: -3 30<15 15> 229 40<240 493 240 511 223 493> 680 20G<376 408 408 408>
LayerCount: 2
Fore
SplineSet
408 700 m 1
 650 132 l 2
 685 51 696 34 722 30 c 2
 756 27 l 1
 756 -3 l 1
 648 0 648 0 629 0 c 0
 613 0 613 0 490 -3 c 1
 490 27 l 1
 537 30 l 2
 562 32 578 39 578 50 c 0
 578 59 574 72 557 114 c 2
 511 229 l 1
 223 229 l 1
 195 162 l 2
 174 112 160 69 160 56 c 0
 160 40 173 33 208 30 c 2
 245 27 l 1
 245 -3 l 1
 137 0 137 0 124 0 c 0
 108 0 108 0 15 -3 c 1
 15 27 l 1
 52 30 l 2
 74 32 94 50 106 79 c 2
 337 605 l 1
 376 700 l 1
 408 700 l 1
240 269 m 1
 493 269 l 1
 367 567 l 1
 240 269 l 1
307 737 m 1
 445 875 l 2
 467 897 485 908 500 908 c 0
 517 908 531 893 531 874 c 0
 531 856 524 848 491 827 c 2
 347 737 l 1
 307 737 l 1
EndSplineSet
EndChar

StartChar: Acircumflex
Encoding: 194 194 129
Width: 777
GlyphClass: 2
Flags: MW
HStem: -3 30<15 15> 229 40<240 493 240 511 223 493> 680 20G<376 408 408 408>
LayerCount: 2
Fore
SplineSet
408 700 m 1
 650 132 l 2
 685 51 696 34 722 30 c 2
 756 27 l 1
 756 -3 l 1
 648 0 648 0 629 0 c 0
 613 0 613 0 490 -3 c 1
 490 27 l 1
 537 30 l 2
 562 32 578 39 578 50 c 0
 578 59 574 72 557 114 c 2
 511 229 l 1
 223 229 l 1
 195 162 l 2
 174 112 160 69 160 56 c 0
 160 40 173 33 208 30 c 2
 245 27 l 1
 245 -3 l 1
 137 0 137 0 124 0 c 0
 108 0 108 0 15 -3 c 1
 15 27 l 1
 52 30 l 2
 74 32 94 50 106 79 c 2
 337 605 l 1
 376 700 l 1
 408 700 l 1
240 269 m 1
 493 269 l 1
 367 567 l 1
 240 269 l 1
359 908 m 1
 421 908 l 1
 546 741 l 1
 511 741 l 1
 390 844 l 1
 269 741 l 1
 234 741 l 1
 359 908 l 1
EndSplineSet
EndChar

StartChar: Atilde
Encoding: 195 195 130
Width: 777
GlyphClass: 2
Flags: MW
HStem: -3 30<15 15> 229 40<240 493 240 511 223 493> 680 20G<376 408 408 408> 766 55<448.5 474.5> 811 55<303.5 326>
LayerCount: 2
Fore
SplineSet
408 700 m 1xe0
 650 132 l 2
 685 51 696 34 722 30 c 2
 756 27 l 1
 756 -3 l 1
 648 0 648 0 629 0 c 0
 613 0 613 0 490 -3 c 1
 490 27 l 1
 537 30 l 2
 562 32 578 39 578 50 c 0
 578 59 574 72 557 114 c 2
 511 229 l 1
 223 229 l 1
 195 162 l 2
 174 112 160 69 160 56 c 0
 160 40 173 33 208 30 c 2
 245 27 l 1
 245 -3 l 1
 137 0 137 0 124 0 c 0
 108 0 108 0 15 -3 c 1
 15 27 l 1
 52 30 l 2
 74 32 94 50 106 79 c 2
 337 605 l 1
 376 700 l 1
 408 700 l 1xe0
240 269 m 1
 493 269 l 1
 367 567 l 1
 240 269 l 1
331 866 m 0xe8
 384 866 430 821 467 821 c 0
 495 821 511 834 526 871 c 1
 555 871 l 1
 551 813 503 766 446 766 c 0xf0
 392 766 345 811 307 811 c 0xe8
 283 811 267 797 254 766 c 1
 225 766 l 1xf0
 239 831 276 866 331 866 c 0xe8
EndSplineSet
EndChar

StartChar: Adieresis
Encoding: 196 196 131
Width: 777
GlyphClass: 2
Flags: MW
HStem: -3 30<15 15> 229 40<240 493 240 511 223 493> 680 20G<376 408 408 408> 768 100<275.5 305 474.5 504>
VStem: 240 100<803 832.5 803 833> 439 100<803 832.5 803 833>
LayerCount: 2
Fore
SplineSet
408 700 m 1
 650 132 l 2
 685 51 696 34 722 30 c 2
 756 27 l 1
 756 -3 l 1
 648 0 648 0 629 0 c 0
 613 0 613 0 490 -3 c 1
 490 27 l 1
 537 30 l 2
 562 32 578 39 578 50 c 0
 578 59 574 72 557 114 c 2
 511 229 l 1
 223 229 l 1
 195 162 l 2
 174 112 160 69 160 56 c 0
 160 40 173 33 208 30 c 2
 245 27 l 1
 245 -3 l 1
 137 0 137 0 124 0 c 0
 108 0 108 0 15 -3 c 1
 15 27 l 1
 52 30 l 2
 74 32 94 50 106 79 c 2
 337 605 l 1
 376 700 l 1
 408 700 l 1
240 269 m 1
 493 269 l 1
 367 567 l 1
 240 269 l 1
291 868 m 0
 320 868 340 847 340 818 c 0
 340 788 320 768 290 768 c 0
 260 768 240 788 240 818 c 0
 240 848 260 868 291 868 c 0
490 868 m 0
 519 868 539 847 539 818 c 0
 539 788 519 768 489 768 c 0
 459 768 439 788 439 818 c 0
 439 848 459 868 490 868 c 0
EndSplineSet
EndChar

StartChar: Aring
Encoding: 197 197 132
Width: 777
GlyphClass: 2
Flags: MW
HStem: -3 30<15 15> 229 40<240 493 240 511 223 493> 680 20G<376 408 408 408> 743 36<371 408.5 371 417.5> 907 36<372 409>
VStem: 290 38<824 863 824 871.5> 452 38<824 862>
LayerCount: 2
Fore
SplineSet
408 700 m 1
 650 132 l 2
 685 51 696 34 722 30 c 2
 756 27 l 1
 756 -3 l 1
 648 0 648 0 629 0 c 0
 613 0 613 0 490 -3 c 1
 490 27 l 1
 537 30 l 2
 562 32 578 39 578 50 c 0
 578 59 574 72 557 114 c 2
 511 229 l 1
 223 229 l 1
 195 162 l 2
 174 112 160 69 160 56 c 0
 160 40 173 33 208 30 c 2
 245 27 l 1
 245 -3 l 1
 137 0 137 0 124 0 c 0
 108 0 108 0 15 -3 c 1
 15 27 l 1
 52 30 l 2
 74 32 94 50 106 79 c 2
 337 605 l 1
 376 700 l 1
 408 700 l 1
240 269 m 1
 493 269 l 1
 367 567 l 1
 240 269 l 1
392 943 m 0
 445 943 490 898 490 843 c 0
 490 787 445 743 390 743 c 0
 334 743 290 787 290 844 c 0
 290 899 335 943 392 943 c 0
391 907 m 0
 353 907 328 882 328 844 c 0
 328 804 352 779 390 779 c 0
 427 779 452 805 452 843 c 0
 452 881 427 907 391 907 c 0
EndSplineSet
EndChar

StartChar: AE
Encoding: 198 198 133
Width: 943
GlyphClass: 2
Flags: MW
HStem: -3 30<-10 -10> -3 42<625 739.5> 242 41<218 462 242 462> 330 42<641 692> 441 20G<787 817 817 817> 650 42 662 30<286 286>
VStem: 462 90<120 242 242 242 283 327 375 642> 787 30<234 234> 841 35<537 567 537 602> 873 35<164 164>
LayerCount: 2
Fore
SplineSet
-10 27 m 1xb9a0
 24 32 l 2
 38 34 56 53 76 87 c 2
 365 599 l 2
 377 620 384 638 384 646 c 0
 384 653 371 656 330 659 c 2
 286 662 l 1
 286 692 l 1xbba0
 543 689 l 2
 560 689 577 689 729 692 c 2
 769 692 l 2
 814 692 842 691 892 689 c 1
 881 645 876 597 876 537 c 1
 841 537 l 1
 841 602 l 2x3dc0
 841 625 838 630 814 636 c 0
 782 645 726 650 669 650 c 0
 600 650 583 649 552 642 c 1
 552 375 l 1
 586 373 620 372 662 372 c 0
 728 372 756 375 774 383 c 1
 778 391 781 400 782 409 c 2
 787 461 l 1
 817 461 l 1
 814 361 814 361 814 345 c 0
 814 327 814 327 817 234 c 1
 787 234 l 1
 782 293 l 1
 774 318 l 1
 756 327 729 330 655 330 c 0
 610 330 580 329 552 327 c 1
 552 47 l 1
 581 41 599 39 651 39 c 0
 741 39 814 44 835 51 c 0
 863 61 872 155 873 164 c 1
 908 164 l 1
 898 112 892 58 892 0 c 1
 755 -3 755 -3 724 -3 c 0x7da0
 710 -3 669 -2 612 -1 c 2
 477 0 l 1
 408 -3 l 1
 408 20 l 1
 436 36 l 2
 455 47 462 68 462 120 c 2
 462 242 l 1
 383 244 356 245 339 245 c 0
 323 245 323 245 218 242 c 1
 154 128 l 2
 131 86 126 75 126 59 c 0
 126 43 144 33 179 30 c 2
 215 27 l 1
 215 -3 l 1
 138 0 137 0 117 0 c 0
 104 0 104 0 -10 -3 c 1
 -10 27 l 1xb9a0
450 655 m 1
 242 283 l 1
 462 283 l 1
 462 655 l 1
 450 655 l 1
EndSplineSet
EndChar

StartChar: Ccedilla
Encoding: 199 199 134
Width: 708
GlyphClass: 2
Flags: MW
HStem: -225 36<354.5 380.5 354 406> -107 36<370.5 433> -20 54<401 416 401 401> 667 42<329 464>
VStem: 22 107<262.5 453 262.5 460.5> 417 75<-160 -134.5> 614 31<516 588>
LayerCount: 2
Fore
SplineSet
22 342 m 0
 22 579 215 709 433 709 c 0
 506 709 579 696 664 668 c 1
 650 602 646 566 645 516 c 1
 614 516 l 1
 614 588 l 2
 614 627 513 667 415 667 c 0
 243 667 129 545 129 361 c 0
 129 164 259 34 454 34 c 0
 530 34 599 54 661 94 c 1
 670 84 l 1
 642 34 l 1
 573 -2 498 -20 416 -20 c 2
 401 -20 l 1
 380 -75 l 1
 390 -72 397 -71 407 -71 c 0
 459 -71 492 -98 492 -141 c 0
 492 -193 444 -225 368 -225 c 0
 341 -225 327 -222 284 -209 c 1
 298 -178 l 1
 331 -187 345 -189 363 -189 c 0
 398 -189 417 -174 417 -146 c 0
 417 -123 401 -107 377 -107 c 0
 364 -107 355 -109 336 -114 c 1
 329 -108 l 1
 368 -18 l 1
 150 6 22 140 22 342 c 0
EndSplineSet
EndChar

StartChar: Egrave
Encoding: 200 200 135
Width: 610
GlyphClass: 2
Flags: MW
HStem: -3 30<34 34> -3 42<354 360 289 404.5> 330 42<305 356> 441 20G<451 481 481 481> 650 42 662 30<22 22>
VStem: 121 95<120 327 375 569 569 608.5> 451 30<234 234> 505 35<537 567 537 602> 537 35<164 164>
LayerCount: 2
Fore
SplineSet
389 -3 m 0x7b40
 319 -3 203 0 157 0 c 0
 129 0 100 -1 34 -3 c 1
 34 27 l 1
 70 30 l 2
 117 34 121 41 121 120 c 2
 121 569 l 2
 121 648 116 656 70 659 c 2
 22 662 l 1
 22 692 l 1xb740
 121 690 166 689 200 689 c 0
 246 689 339 692 432 692 c 0
 476 692 507 691 556 689 c 1
 545 645 540 597 540 537 c 1
 505 537 l 1
 505 602 l 2x3b80
 505 625 502 630 478 636 c 0
 446 645 390 650 333 650 c 0
 264 650 247 649 216 642 c 1
 216 375 l 1
 250 373 284 372 326 372 c 0
 392 372 420 375 438 383 c 1
 442 391 445 400 446 409 c 2
 451 461 l 1
 481 461 l 1
 478 361 478 361 478 345 c 0
 478 327 478 327 481 234 c 1
 451 234 l 1
 446 293 l 1
 438 318 l 1
 420 327 393 330 319 330 c 0
 274 330 244 329 216 327 c 1
 216 47 l 1
 245 41 263 39 315 39 c 0
 405 39 478 44 499 51 c 0
 527 61 536 155 537 164 c 1
 572 164 l 1
 562 112 556 58 556 0 c 1
 420 -3 420 -3 389 -3 c 0x7b40
346 737 m 1
 202 827 l 2
 169 848 162 856 162 874 c 0
 162 893 176 908 193 908 c 0
 207 908 227 896 248 875 c 2
 386 737 l 1
 346 737 l 1
EndSplineSet
EndChar

StartChar: Eacute
Encoding: 201 201 136
Width: 610
GlyphClass: 2
Flags: MW
HStem: -3 30<34 34> -3 42<354 360 289 404.5> 330 42<305 356> 441 20G<451 481 481 481> 650 42 662 30<22 22>
VStem: 121 95<120 327 375 569 569 608.5> 451 30<234 234> 505 35<537 567 537 602> 537 35<164 164>
LayerCount: 2
Fore
SplineSet
389 -3 m 0x7b40
 319 -3 203 0 157 0 c 0
 129 0 100 -1 34 -3 c 1
 34 27 l 1
 70 30 l 2
 117 34 121 41 121 120 c 2
 121 569 l 2
 121 648 116 656 70 659 c 2
 22 662 l 1
 22 692 l 1xb740
 121 690 166 689 200 689 c 0
 246 689 339 692 432 692 c 0
 476 692 507 691 556 689 c 1
 545 645 540 597 540 537 c 1
 505 537 l 1
 505 602 l 2x3b80
 505 625 502 630 478 636 c 0
 446 645 390 650 333 650 c 0
 264 650 247 649 216 642 c 1
 216 375 l 1
 250 373 284 372 326 372 c 0
 392 372 420 375 438 383 c 1
 442 391 445 400 446 409 c 2
 451 461 l 1
 481 461 l 1
 478 361 478 361 478 345 c 0
 478 327 478 327 481 234 c 1
 451 234 l 1
 446 293 l 1
 438 318 l 1
 420 327 393 330 319 330 c 0
 274 330 244 329 216 327 c 1
 216 47 l 1
 245 41 263 39 315 39 c 0
 405 39 478 44 499 51 c 0
 527 61 536 155 537 164 c 1
 572 164 l 1
 562 112 556 58 556 0 c 1
 420 -3 420 -3 389 -3 c 0x7b40
224 737 m 1
 362 875 l 2
 384 897 402 908 417 908 c 0
 434 908 448 893 448 874 c 0
 448 856 441 848 408 827 c 2
 264 737 l 1
 224 737 l 1
EndSplineSet
EndChar

StartChar: Ecircumflex
Encoding: 202 202 137
Width: 610
GlyphClass: 2
Flags: MW
HStem: -3 30<34 34> -3 42<354 360 289 404.5> 330 42<305 356> 441 20G<451 481 481 481> 650 42 662 30<22 22>
VStem: 121 95<120 327 375 569 569 608.5> 451 30<234 234> 505 35<537 567 537 602> 537 35<164 164>
LayerCount: 2
Fore
SplineSet
389 -3 m 0x7b40
 319 -3 203 0 157 0 c 0
 129 0 100 -1 34 -3 c 1
 34 27 l 1
 70 30 l 2
 117 34 121 41 121 120 c 2
 121 569 l 2
 121 648 116 656 70 659 c 2
 22 662 l 1
 22 692 l 1xb740
 121 690 166 689 200 689 c 0
 246 689 339 692 432 692 c 0
 476 692 507 691 556 689 c 1
 545 645 540 597 540 537 c 1
 505 537 l 1
 505 602 l 2x3b80
 505 625 502 630 478 636 c 0
 446 645 390 650 333 650 c 0
 264 650 247 649 216 642 c 1
 216 375 l 1
 250 373 284 372 326 372 c 0
 392 372 420 375 438 383 c 1
 442 391 445 400 446 409 c 2
 451 461 l 1
 481 461 l 1
 478 361 478 361 478 345 c 0
 478 327 478 327 481 234 c 1
 451 234 l 1
 446 293 l 1
 438 318 l 1
 420 327 393 330 319 330 c 0
 274 330 244 329 216 327 c 1
 216 47 l 1
 245 41 263 39 315 39 c 0
 405 39 478 44 499 51 c 0
 527 61 536 155 537 164 c 1
 572 164 l 1
 562 112 556 58 556 0 c 1
 420 -3 420 -3 389 -3 c 0x7b40
276 908 m 1
 338 908 l 1
 463 741 l 1
 428 741 l 1
 307 844 l 1
 186 741 l 1
 151 741 l 1
 276 908 l 1
EndSplineSet
EndChar

StartChar: Edieresis
Encoding: 203 203 138
Width: 610
GlyphClass: 2
Flags: MW
HStem: -3 30<34 34> -3 42<354 360 289 404.5> 330 42<305 356> 441 20G<451 481 481 481> 650 42 662 30<22 22> 768 100<191.5 221 390.5 420>
VStem: 121 95<120 327 375 569 569 608.5> 156 100<803 832.5 803 833> 355 100<803 832.5 803 833> 451 30<234 234> 505 35<537 567 537 602> 537 35<164 164>
LayerCount: 2
Fore
SplineSet
389 -3 m 0x7b28
 319 -3 203 0 157 0 c 0
 129 0 100 -1 34 -3 c 1
 34 27 l 1
 70 30 l 2
 117 34 121 41 121 120 c 2
 121 569 l 2
 121 648 116 656 70 659 c 2
 22 662 l 1
 22 692 l 1xb728
 121 690 166 689 200 689 c 0
 246 689 339 692 432 692 c 0
 476 692 507 691 556 689 c 1
 545 645 540 597 540 537 c 1
 505 537 l 1
 505 602 l 2x3b10
 505 625 502 630 478 636 c 0
 446 645 390 650 333 650 c 0
 264 650 247 649 216 642 c 1
 216 375 l 1
 250 373 284 372 326 372 c 0
 392 372 420 375 438 383 c 1
 442 391 445 400 446 409 c 2
 451 461 l 1
 481 461 l 1
 478 361 478 361 478 345 c 0
 478 327 478 327 481 234 c 1
 451 234 l 1
 446 293 l 1
 438 318 l 1
 420 327 393 330 319 330 c 0
 274 330 244 329 216 327 c 1
 216 47 l 1
 245 41 263 39 315 39 c 0
 405 39 478 44 499 51 c 0
 527 61 536 155 537 164 c 1
 572 164 l 1
 562 112 556 58 556 0 c 1
 420 -3 420 -3 389 -3 c 0x7b28
207 868 m 0
 236 868 256 847 256 818 c 0
 256 788 236 768 206 768 c 0
 176 768 156 788 156 818 c 0x3280
 156 848 176 868 207 868 c 0
406 868 m 0
 435 868 455 847 455 818 c 0
 455 788 435 768 405 768 c 0
 375 768 355 788 355 818 c 0x3240
 355 848 375 868 406 868 c 0
EndSplineSet
EndChar

StartChar: Igrave
Encoding: 204 204 139
Width: 336
GlyphClass: 2
Flags: MW
HStem: -3 30<22 22> 662 30<22 22>
VStem: 121 95<120 569>
LayerCount: 2
Fore
SplineSet
216 569 m 2
 216 120 l 2
 216 41 221 33 267 30 c 2
 315 27 l 1
 315 -3 l 1
 256 -1 220 0 168 0 c 0
 116 0 81 -1 22 -3 c 1
 22 27 l 1
 70 30 l 2
 116 33 121 41 121 120 c 2
 121 569 l 2
 121 648 116 656 70 659 c 2
 22 662 l 1
 22 692 l 1
 94 690 118 689 168 689 c 0
 220 689 242 689 315 692 c 1
 315 662 l 1
 267 659 l 2
 221 656 216 648 216 569 c 2
209 737 m 1
 65 827 l 2
 32 848 25 856 25 874 c 0
 25 893 39 908 56 908 c 0
 70 908 90 896 111 875 c 2
 249 737 l 1
 209 737 l 1
EndSplineSet
EndChar

StartChar: Iacute
Encoding: 205 205 140
Width: 336
GlyphClass: 2
Flags: MW
HStem: -3 30<22 22> 662 30<22 22>
VStem: 121 95<120 569>
LayerCount: 2
Fore
SplineSet
216 569 m 2
 216 120 l 2
 216 41 221 33 267 30 c 2
 315 27 l 1
 315 -3 l 1
 256 -1 220 0 168 0 c 0
 116 0 81 -1 22 -3 c 1
 22 27 l 1
 70 30 l 2
 116 33 121 41 121 120 c 2
 121 569 l 2
 121 648 116 656 70 659 c 2
 22 662 l 1
 22 692 l 1
 94 690 118 689 168 689 c 0
 220 689 242 689 315 692 c 1
 315 662 l 1
 267 659 l 2
 221 656 216 648 216 569 c 2
80 737 m 1
 218 875 l 2
 240 897 258 908 273 908 c 0
 290 908 304 893 304 874 c 0
 304 856 297 848 264 827 c 2
 120 737 l 1
 80 737 l 1
EndSplineSet
EndChar

StartChar: Icircumflex
Encoding: 206 206 141
Width: 336
GlyphClass: 2
Flags: MW
HStem: -3 30<22 22> 662 30<22 22>
VStem: 121 95<120 569>
LayerCount: 2
Fore
SplineSet
216 569 m 2
 216 120 l 2
 216 41 221 33 267 30 c 2
 315 27 l 1
 315 -3 l 1
 256 -1 220 0 168 0 c 0
 116 0 81 -1 22 -3 c 1
 22 27 l 1
 70 30 l 2
 116 33 121 41 121 120 c 2
 121 569 l 2
 121 648 116 656 70 659 c 2
 22 662 l 1
 22 692 l 1
 94 690 118 689 168 689 c 0
 220 689 242 689 315 692 c 1
 315 662 l 1
 267 659 l 2
 221 656 216 648 216 569 c 2
138 908 m 1
 200 908 l 1
 325 741 l 1
 290 741 l 1
 169 844 l 1
 48 741 l 1
 13 741 l 1
 138 908 l 1
EndSplineSet
EndChar

StartChar: Idieresis
Encoding: 207 207 142
Width: 336
GlyphClass: 2
Flags: MW
HStem: -3 30<22 22> 662 30<22 22> 768 100<54.5 84 253.5 283>
VStem: 19 100<803 832.5 803 833> 121 95<120 569> 218 100<803 832.5 803 833>
CounterMasks: 1 1c
LayerCount: 2
Fore
SplineSet
216 569 m 2
 216 120 l 2
 216 41 221 33 267 30 c 2
 315 27 l 1
 315 -3 l 1
 256 -1 220 0 168 0 c 0
 116 0 81 -1 22 -3 c 1
 22 27 l 1
 70 30 l 2
 116 33 121 41 121 120 c 2
 121 569 l 2
 121 648 116 656 70 659 c 2
 22 662 l 1
 22 692 l 1
 94 690 118 689 168 689 c 0
 220 689 242 689 315 692 c 1
 315 662 l 1
 267 659 l 2
 221 656 216 648 216 569 c 2
70 868 m 0
 99 868 119 847 119 818 c 0
 119 788 99 768 69 768 c 0
 39 768 19 788 19 818 c 0
 19 848 39 868 70 868 c 0
269 868 m 0
 298 868 318 847 318 818 c 0
 318 788 298 768 268 768 c 0
 238 768 218 788 218 818 c 0
 218 848 238 868 269 868 c 0
EndSplineSet
EndChar

StartChar: Eth
Encoding: 208 208 143
Width: 773
GlyphClass: 2
Flags: MW
HStem: -3 44<334.5 369 287.5 398.5> 346 36<14 113 14 113 208 392> 652 37 662 30<22 22>
VStem: 113 95<95 346 49 346 382 569 569 608> 644 107<323.5 418>
LayerCount: 2
Fore
SplineSet
350 -3 m 0xdc
 319 -3 224 0 193 0 c 0
 173 0 173 0 57 -3 c 1
 57 20 l 1
 88 36 l 2
 104 44 113 66 113 95 c 2
 113 346 l 1
 14 346 l 1
 14 382 l 1
 113 382 l 1
 113 569 l 2
 113 647 108 656 62 659 c 2
 22 662 l 1
 22 692 l 1xdc
 191 689 191 689 224 689 c 0xec
 264 689 326 690 391 692 c 2
 404 692 l 2
 612 692 751 570 751 388 c 0
 751 259 689 129 596 65 c 0
 531 20 447 -3 350 -3 c 0xdc
208 644 m 1
 208 382 l 1
 392 382 l 1
 392 346 l 1
 208 346 l 1
 208 49 l 1
 234 43 265 41 310 41 c 0
 428 41 483 57 543 107 c 0
 611 165 644 248 644 362 c 0
 644 474 612 553 549 600 c 0
 503 633 421 652 319 652 c 0xec
 269 652 234 649 208 644 c 1
EndSplineSet
EndChar

StartChar: Ntilde
Encoding: 209 209 144
Width: 830
GlyphClass: 2
Flags: MW
HStem: -20 21G<721 721> -3 30<17 17> 662 30<17 17> 766 55<475.5 501.5> 811 55<330.5 353>
VStem: 112 46<120 569 569 583> 672 46<98 569>
LayerCount: 2
Fore
SplineSet
137 689 m 1x66
 191 692 l 1
 672 98 l 1
 672 569 l 2
 672 647 667 656 621 659 c 2
 577 662 l 1
 577 692 l 1
 676 689 676 689 693 689 c 0
 708 689 708 689 813 692 c 1
 813 662 l 1
 769 659 l 2
 723 656 718 647 718 569 c 2
 718 17 l 2
 718 6 721 -13 721 -20 c 1xa6
 631 -4 l 1
 158 583 l 1
 158 120 l 2
 158 42 163 33 209 30 c 2
 253 27 l 1
 253 -3 l 1
 148 0 148 0 133 0 c 0
 116 0 116 0 17 -3 c 1
 17 27 l 1
 61 30 l 2
 107 33 112 42 112 120 c 2
 112 569 l 2
 112 647 107 656 61 659 c 2
 17 662 l 1
 17 692 l 1
 72 690 81 690 137 689 c 1x66
358 866 m 0x2e
 411 866 457 821 494 821 c 0
 522 821 538 834 553 871 c 1
 582 871 l 1
 578 813 530 766 473 766 c 0x36
 419 766 372 811 334 811 c 0x2e
 310 811 294 797 281 766 c 1
 252 766 l 1x36
 266 831 303 866 358 866 c 0x2e
EndSplineSet
EndChar

StartChar: Ograve
Encoding: 210 210 145
Width: 785
GlyphClass: 2
Flags: MW
HStem: -20 42<326 482> 667 42<303 470.5>
VStem: 22 107<271 451> 657 107<257 441>
LayerCount: 2
Fore
SplineSet
402 709 m 0
 624 709 764 577 764 367 c 0
 764 147 594 -20 370 -20 c 0
 168 -20 22 131 22 341 c 0
 22 561 174 709 402 709 c 0
385 667 m 0
 221 667 129 563 129 378 c 0
 129 164 242 22 410 22 c 0
 565 22 657 139 657 337 c 0
 657 545 556 667 385 667 c 0
434 737 m 1
 290 827 l 2
 257 848 250 856 250 874 c 0
 250 893 264 908 281 908 c 0
 295 908 315 896 336 875 c 2
 474 737 l 1
 434 737 l 1
EndSplineSet
EndChar

StartChar: Oacute
Encoding: 211 211 146
Width: 785
GlyphClass: 2
Flags: MW
HStem: -20 42<326 482> 667 42<303 470.5>
VStem: 22 107<271 451> 657 107<257 441>
LayerCount: 2
Fore
SplineSet
402 709 m 0
 624 709 764 577 764 367 c 0
 764 147 594 -20 370 -20 c 0
 168 -20 22 131 22 341 c 0
 22 561 174 709 402 709 c 0
385 667 m 0
 221 667 129 563 129 378 c 0
 129 164 242 22 410 22 c 0
 565 22 657 139 657 337 c 0
 657 545 556 667 385 667 c 0
311 737 m 1
 449 875 l 2
 471 897 489 908 504 908 c 0
 521 908 535 893 535 874 c 0
 535 856 528 848 495 827 c 2
 351 737 l 1
 311 737 l 1
EndSplineSet
EndChar

StartChar: Ocircumflex
Encoding: 212 212 147
Width: 785
GlyphClass: 2
Flags: MW
HStem: -20 42<326 482> 667 42<303 470.5>
VStem: 22 107<271 451> 657 107<257 441>
LayerCount: 2
Fore
SplineSet
402 709 m 0
 624 709 764 577 764 367 c 0
 764 147 594 -20 370 -20 c 0
 168 -20 22 131 22 341 c 0
 22 561 174 709 402 709 c 0
385 667 m 0
 221 667 129 563 129 378 c 0
 129 164 242 22 410 22 c 0
 565 22 657 139 657 337 c 0
 657 545 556 667 385 667 c 0
363 908 m 1
 425 908 l 1
 550 741 l 1
 515 741 l 1
 394 844 l 1
 273 741 l 1
 238 741 l 1
 363 908 l 1
EndSplineSet
EndChar

StartChar: Otilde
Encoding: 213 213 148
Width: 785
GlyphClass: 2
Flags: MW
HStem: -20 42<326 482> 667 42<303 470.5> 766 55<452.5 478.5> 811 55<307.5 330>
VStem: 22 107<271 451> 657 107<257 441>
LayerCount: 2
Fore
SplineSet
402 709 m 0xcc
 624 709 764 577 764 367 c 0
 764 147 594 -20 370 -20 c 0
 168 -20 22 131 22 341 c 0
 22 561 174 709 402 709 c 0xcc
385 667 m 0
 221 667 129 563 129 378 c 0
 129 164 242 22 410 22 c 0
 565 22 657 139 657 337 c 0
 657 545 556 667 385 667 c 0
335 866 m 0xdc
 388 866 434 821 471 821 c 0
 499 821 515 834 530 871 c 1
 559 871 l 1
 555 813 507 766 450 766 c 0xec
 396 766 349 811 311 811 c 0xdc
 287 811 271 797 258 766 c 1
 229 766 l 1xec
 243 831 280 866 335 866 c 0xdc
EndSplineSet
EndChar

StartChar: Odieresis
Encoding: 214 214 149
Width: 785
GlyphClass: 2
Flags: MW
HStem: -20 42<326 482> 667 42<303 470.5> 768 100<279.5 309 478.5 508>
VStem: 22 107<271 451> 244 100<803 832.5 803 833> 443 100<803 832.5 803 833> 657 107<257 441>
LayerCount: 2
Fore
SplineSet
402 709 m 0
 624 709 764 577 764 367 c 0
 764 147 594 -20 370 -20 c 0
 168 -20 22 131 22 341 c 0
 22 561 174 709 402 709 c 0
385 667 m 0
 221 667 129 563 129 378 c 0
 129 164 242 22 410 22 c 0
 565 22 657 139 657 337 c 0
 657 545 556 667 385 667 c 0
295 868 m 0
 324 868 344 847 344 818 c 0
 344 788 324 768 294 768 c 0
 264 768 244 788 244 818 c 0
 244 848 264 868 295 868 c 0
494 868 m 0
 523 868 543 847 543 818 c 0
 543 788 523 768 493 768 c 0
 463 768 443 788 443 818 c 0
 443 848 463 868 494 868 c 0
EndSplineSet
EndChar

StartChar: multiply
Encoding: 215 215 150
Width: 668
GlyphClass: 2
Flags: MW
HStem: -5 21G<101 101 568 568>
LayerCount: 2
Fore
SplineSet
611 37 m 1
 568 -5 l 1
 335 229 l 1
 101 -5 l 1
 59 37 l 1
 293 271 l 1
 59 505 l 1
 101 547 l 1
 335 313 l 1
 568 547 l 1
 611 505 l 1
 376 271 l 1
 611 37 l 1
EndSplineSet
EndChar

StartChar: Oslash
Encoding: 216 216 151
Width: 832
GlyphClass: 2
Flags: MW
HStem: -20 42<385.5 506.5> 667 42<323 472.5>
VStem: 45 107<333.5 452.5> 680 107<259 380>
LayerCount: 2
Fore
SplineSet
395 -20 m 0
 250 -20 178 47 154 67 c 1
 63 -18 l 1
 30 11 l 1
 124 99 l 1
 105 124 45 196 45 342 c 0
 45 563 196 709 424 709 c 0
 577 709 653 646 679 626 c 1
 765 709 l 1
 797 679 l 1
 709 596 l 1
 764 526 787 461 787 370 c 0
 787 148 618 -20 395 -20 c 0
641 531 m 1
 219 131 l 1
 278 54 340 22 431 22 c 0
 589 22 680 138 680 340 c 0
 680 420 670 469 641 531 c 1
616 570 m 1
 606 582 542 667 403 667 c 0
 243 667 152 561 152 375 c 0
 152 292 164 233 196 167 c 1
 616 570 l 1
EndSplineSet
EndChar

StartChar: Ugrave
Encoding: 217 217 152
Width: 777
GlyphClass: 2
Flags: MW
HStem: -20 62<335.5 471> 662 30<12 12>
VStem: 111 95<214 225 225 569> 618 46<249 280 280 569>
LayerCount: 2
Fore
SplineSet
378 -20 m 0
 201 -20 111 42 111 214 c 2
 111 569 l 2
 111 648 106 656 60 659 c 2
 12 662 l 1
 12 692 l 1
 84 690 108 689 158 689 c 0
 210 689 232 689 305 692 c 1
 305 662 l 1
 257 659 l 2
 211 656 206 648 206 569 c 2
 206 225 l 2
 206 97 266 42 405 42 c 0
 550 42 618 108 618 249 c 2
 618 569 l 2
 618 647 613 656 567 659 c 2
 523 662 l 1
 523 692 l 1
 622 689 622 689 639 689 c 0
 654 689 654 689 759 692 c 1
 759 662 l 1
 715 659 l 2
 669 656 664 647 664 569 c 2
 664 280 l 2
 664 46 564 -20 378 -20 c 0
454 737 m 1
 310 827 l 2
 277 848 270 856 270 874 c 0
 270 893 284 908 301 908 c 0
 315 908 335 896 356 875 c 2
 494 737 l 1
 454 737 l 1
EndSplineSet
EndChar

StartChar: Uacute
Encoding: 218 218 153
Width: 777
GlyphClass: 2
Flags: MW
HStem: -20 62<335.5 471> 662 30<12 12>
VStem: 111 95<214 225 225 569> 618 46<249 280 280 569>
LayerCount: 2
Fore
SplineSet
378 -20 m 0
 201 -20 111 42 111 214 c 2
 111 569 l 2
 111 648 106 656 60 659 c 2
 12 662 l 1
 12 692 l 1
 84 690 108 689 158 689 c 0
 210 689 232 689 305 692 c 1
 305 662 l 1
 257 659 l 2
 211 656 206 648 206 569 c 2
 206 225 l 2
 206 97 266 42 405 42 c 0
 550 42 618 108 618 249 c 2
 618 569 l 2
 618 647 613 656 567 659 c 2
 523 662 l 1
 523 692 l 1
 622 689 622 689 639 689 c 0
 654 689 654 689 759 692 c 1
 759 662 l 1
 715 659 l 2
 669 656 664 647 664 569 c 2
 664 280 l 2
 664 46 564 -20 378 -20 c 0
328 737 m 1
 466 875 l 2
 488 897 506 908 521 908 c 0
 538 908 552 893 552 874 c 0
 552 856 545 848 512 827 c 2
 368 737 l 1
 328 737 l 1
EndSplineSet
EndChar

StartChar: Ucircumflex
Encoding: 219 219 154
Width: 777
GlyphClass: 2
Flags: MW
HStem: -20 62<335.5 471> 662 30<12 12>
VStem: 111 95<214 225 225 569> 618 46<249 280 280 569>
LayerCount: 2
Fore
SplineSet
378 -20 m 0
 201 -20 111 42 111 214 c 2
 111 569 l 2
 111 648 106 656 60 659 c 2
 12 662 l 1
 12 692 l 1
 84 690 108 689 158 689 c 0
 210 689 232 689 305 692 c 1
 305 662 l 1
 257 659 l 2
 211 656 206 648 206 569 c 2
 206 225 l 2
 206 97 266 42 405 42 c 0
 550 42 618 108 618 249 c 2
 618 569 l 2
 618 647 613 656 567 659 c 2
 523 662 l 1
 523 692 l 1
 622 689 622 689 639 689 c 0
 654 689 654 689 759 692 c 1
 759 662 l 1
 715 659 l 2
 669 656 664 647 664 569 c 2
 664 280 l 2
 664 46 564 -20 378 -20 c 0
384 908 m 1
 446 908 l 1
 571 741 l 1
 536 741 l 1
 415 844 l 1
 294 741 l 1
 259 741 l 1
 384 908 l 1
EndSplineSet
EndChar

StartChar: Udieresis
Encoding: 220 220 155
Width: 777
GlyphClass: 2
Flags: MW
HStem: -20 62<335.5 471> 662 30<12 12> 768 100<289.5 319 488.5 518>
VStem: 111 95<214 225 225 569> 254 100<803 832.5 803 833> 453 100<803 832.5 803 833> 618 46<249 280 280 569>
LayerCount: 2
Fore
SplineSet
378 -20 m 0
 201 -20 111 42 111 214 c 2
 111 569 l 2
 111 648 106 656 60 659 c 2
 12 662 l 1
 12 692 l 1
 84 690 108 689 158 689 c 0
 210 689 232 689 305 692 c 1
 305 662 l 1
 257 659 l 2
 211 656 206 648 206 569 c 2
 206 225 l 2
 206 97 266 42 405 42 c 0
 550 42 618 108 618 249 c 2
 618 569 l 2
 618 647 613 656 567 659 c 2
 523 662 l 1
 523 692 l 1
 622 689 622 689 639 689 c 0
 654 689 654 689 759 692 c 1
 759 662 l 1
 715 659 l 2
 669 656 664 647 664 569 c 2
 664 280 l 2
 664 46 564 -20 378 -20 c 0
305 868 m 0
 334 868 354 847 354 818 c 0
 354 788 334 768 304 768 c 0
 274 768 254 788 254 818 c 0
 254 848 274 868 305 868 c 0
504 868 m 0
 533 868 553 847 553 818 c 0
 553 788 533 768 503 768 c 0
 473 768 453 788 453 818 c 0
 453 848 473 868 504 868 c 0
EndSplineSet
EndChar

StartChar: Yacute
Encoding: 221 221 156
Width: 666
GlyphClass: 2
Flags: MW
HStem: -3 30<200 200> 651 29<9 9> 685 21G
VStem: 299 95<120 249>
LayerCount: 2
Fore
SplineSet
9 680 m 1
 124 704 l 2
 127 705 129 705 129 705 c 1
 130 705 l 2
 148 705 188 659 220 602 c 2
 363 341 l 1
 466 504 l 2
 505 566 536 620 574 694 c 1
 654 694 l 1
 654 679 l 1
 573 582 540 537 466 426 c 0
 408 338 394 304 394 249 c 2
 394 120 l 2
 394 41 399 33 445 30 c 2
 493 27 l 1
 493 -3 l 1
 434 -1 398 0 346 0 c 0
 294 0 259 -1 200 -3 c 1
 200 27 l 1
 248 30 l 2
 294 33 299 41 299 120 c 2
 299 262 l 2
 299 278 296 292 290 302 c 2
 166 518 l 2
 124 591 72 643 38 648 c 2
 9 651 l 1
 9 680 l 1
276 737 m 1
 414 875 l 2
 436 897 454 908 469 908 c 0
 486 908 500 893 500 874 c 0
 500 856 493 848 460 827 c 2
 316 737 l 1
 276 737 l 1
EndSplineSet
EndChar

StartChar: Thorn
Encoding: 222 222 157
Width: 603
GlyphClass: 2
Flags: MW
HStem: -3 30<32 32> 176 34<343.5 382.5 338 415> 500 40<261 361> 662 30<32 32>
VStem: 131 95<120 491 542 569> 474 100<328.5 405>
LayerCount: 2
Fore
SplineSet
226 491 m 1
 226 120 l 2
 226 41 231 33 277 30 c 2
 325 27 l 1
 325 -3 l 1
 266 -1 230 0 178 0 c 0
 126 0 91 -1 32 -3 c 1
 32 27 l 1
 80 30 l 2
 126 33 131 41 131 120 c 2
 131 569 l 2
 131 648 126 656 80 659 c 2
 32 662 l 1
 32 692 l 1
 104 690 128 689 178 689 c 0
 230 689 252 689 325 692 c 1
 325 662 l 1
 277 659 l 2
 231 656 226 648 226 569 c 2
 226 542 l 1
 243 540 250 540 272 540 c 0
 294 540 326 540 353 541 c 2
 371 541 l 2
 495 541 574 481 574 387 c 0
 574 270 476 176 354 176 c 0
 333 176 311 178 296 182 c 1
 285 219 l 1
 307 213 329 210 347 210 c 0
 418 210 474 275 474 357 c 0
 474 453 418 500 304 500 c 0
 274 500 252 497 226 491 c 1
EndSplineSet
EndChar

StartChar: germandbls
Encoding: 223 223 158
Width: 555
GlyphClass: 2
Flags: MW
HStem: -9 43<329 396> -3 30<23 23 252 252> 414 47<365 429> 686 45<283.5 349.5>
VStem: 96 84<102 107 107 385 385 385 434 466> 268 60<330.5 338.5> 275 27<66 112> 440 56<558.5 587> 454 65<88 226.5>
LayerCount: 2
Fore
SplineSet
328 371 m 0x7d
 328 290 519 290 519 163 c 0
 519 122 503 78 482 62 c 2
 424 18 l 2
 401 0 373 -9 345 -9 c 0xbc80
 313 -9 284 -3 252 11 c 1
 252 -3 l 1
 155 0 148 0 137 0 c 2
 23 -3 l 1
 23 27 l 1
 59 30 l 2
 93 33 96 39 96 102 c 2
 96 385 l 1
 27 385 l 1
 27 399 l 1
 96 434 l 1
 96 500 l 2
 96 606 222 731 345 731 c 0
 434 731 496 672 496 587 c 0
 496 530 483 471 452 391 c 1
 422 408 405 414 381 414 c 0
 349 414 328 397 328 371 c 0x7d
429 461 m 1
 433 477 440 518 440 543 c 0
 440 631 390 686 309 686 c 0
 216 686 180 625 180 466 c 2
 180 107 l 2
 180 48 192 27 226 27 c 2
 254 27 l 1
 275 112 l 1
 302 112 l 1
 302 66 l 1x7b
 329 42 346 34 373 34 c 0
 419 34 454 66 454 110 c 0
 454 157 429 186 361 222 c 0
 286 261 268 282 268 327 c 0
 268 350 274 369 287 383 c 2
 326 426 l 2
 346 448 383 461 429 461 c 1
EndSplineSet
EndChar

StartChar: agrave
Encoding: 224 224 159
Width: 499
GlyphClass: 2
Flags: MW
HStem: -12 57<118.5 212.5> -3 32 416 53<224.5 235>
VStem: 32 86<103.5 143.5 103.5 154.5> 324 80<82 82 124 256 256 256>
LayerCount: 2
Fore
SplineSet
324 82 m 1x78
 200 -4 l 2
 193 -9 176 -12 158 -12 c 0xb8
 79 -12 32 33 32 111 c 0
 32 198 89 245 225 270 c 2
 324 288 l 1
 321 379 282 416 188 416 c 0
 142 416 132 409 111 362 c 2
 98 331 l 1
 72 338 l 1
 72 403 l 1
 125 435 l 2
 163 458 203 469 246 469 c 0
 362 469 404 416 404 270 c 2
 404 87 l 2
 404 38 408 30 432 29 c 2
 471 27 l 1
 471 -3 l 1
 427 -1 402 0 397 0 c 0
 384 0 384 0 319 -3 c 1
 324 82 l 1x78
324 124 m 1
 324 256 l 1
 248 245 193 231 168 216 c 0
 138 197 118 162 118 125 c 0
 118 82 153 45 193 45 c 0
 232 45 295 83 324 124 c 1
298 506 m 1
 154 596 l 2
 121 617 114 625 114 643 c 0
 114 662 128 677 145 677 c 0
 159 677 179 665 200 644 c 2
 338 506 l 1
 298 506 l 1
EndSplineSet
EndChar

StartChar: aacute
Encoding: 225 225 160
Width: 499
GlyphClass: 2
Flags: MW
HStem: -12 57<118.5 212.5> -3 32 416 53<224.5 235>
VStem: 32 86<103.5 143.5 103.5 154.5> 324 80<82 82 124 256 256 256>
LayerCount: 2
Fore
SplineSet
324 82 m 1x78
 200 -4 l 2
 193 -9 176 -12 158 -12 c 0xb8
 79 -12 32 33 32 111 c 0
 32 198 89 245 225 270 c 2
 324 288 l 1
 321 379 282 416 188 416 c 0
 142 416 132 409 111 362 c 2
 98 331 l 1
 72 338 l 1
 72 403 l 1
 125 435 l 2
 163 458 203 469 246 469 c 0
 362 469 404 416 404 270 c 2
 404 87 l 2
 404 38 408 30 432 29 c 2
 471 27 l 1
 471 -3 l 1
 427 -1 402 0 397 0 c 0
 384 0 384 0 319 -3 c 1
 324 82 l 1x78
324 124 m 1
 324 256 l 1
 248 245 193 231 168 216 c 0
 138 197 118 162 118 125 c 0
 118 82 153 45 193 45 c 0
 232 45 295 83 324 124 c 1
162 506 m 1
 300 644 l 2
 322 666 340 677 355 677 c 0
 372 677 386 662 386 643 c 0
 386 625 379 617 346 596 c 2
 202 506 l 1
 162 506 l 1
EndSplineSet
EndChar

StartChar: acircumflex
Encoding: 226 226 161
Width: 499
GlyphClass: 2
Flags: MW
HStem: -12 57<118.5 212.5> -3 32 416 53<224.5 235>
VStem: 32 86<103.5 143.5 103.5 154.5> 324 80<82 82 124 256 256 256>
LayerCount: 2
Fore
SplineSet
324 82 m 1x78
 200 -4 l 2
 193 -9 176 -12 158 -12 c 0xb8
 79 -12 32 33 32 111 c 0
 32 198 89 245 225 270 c 2
 324 288 l 1
 321 379 282 416 188 416 c 0
 142 416 132 409 111 362 c 2
 98 331 l 1
 72 338 l 1
 72 403 l 1
 125 435 l 2
 163 458 203 469 246 469 c 0
 362 469 404 416 404 270 c 2
 404 87 l 2
 404 38 408 30 432 29 c 2
 471 27 l 1
 471 -3 l 1
 427 -1 402 0 397 0 c 0
 384 0 384 0 319 -3 c 1
 324 82 l 1x78
324 124 m 1
 324 256 l 1
 248 245 193 231 168 216 c 0
 138 197 118 162 118 125 c 0
 118 82 153 45 193 45 c 0
 232 45 295 83 324 124 c 1
207 677 m 1
 269 677 l 1
 394 510 l 1
 359 510 l 1
 238 613 l 1
 117 510 l 1
 82 510 l 1
 207 677 l 1
EndSplineSet
EndChar

StartChar: atilde
Encoding: 227 227 162
Width: 499
GlyphClass: 2
Flags: MW
HStem: -12 57<118.5 212.5> -3 32 416 53<224.5 235> 535 55<302.5 328.5> 580 55<157.5 180>
VStem: 32 86<103.5 143.5 103.5 154.5> 324 80<82 82 124 256 256 256>
LayerCount: 2
Fore
SplineSet
324 82 m 1x66
 200 -4 l 2
 193 -9 176 -12 158 -12 c 0xa6
 79 -12 32 33 32 111 c 0
 32 198 89 245 225 270 c 2
 324 288 l 1
 321 379 282 416 188 416 c 0
 142 416 132 409 111 362 c 2
 98 331 l 1
 72 338 l 1
 72 403 l 1
 125 435 l 2
 163 458 203 469 246 469 c 0
 362 469 404 416 404 270 c 2
 404 87 l 2
 404 38 408 30 432 29 c 2
 471 27 l 1
 471 -3 l 1
 427 -1 402 0 397 0 c 0
 384 0 384 0 319 -3 c 1
 324 82 l 1x66
324 124 m 1
 324 256 l 1
 248 245 193 231 168 216 c 0
 138 197 118 162 118 125 c 0
 118 82 153 45 193 45 c 0
 232 45 295 83 324 124 c 1
185 635 m 0x2e
 238 635 284 590 321 590 c 0
 349 590 365 603 380 640 c 1
 409 640 l 1
 405 582 357 535 300 535 c 0x36
 246 535 199 580 161 580 c 0x2e
 137 580 121 566 108 535 c 1
 79 535 l 1x36
 93 600 130 635 185 635 c 0x2e
EndSplineSet
EndChar

StartChar: adieresis
Encoding: 228 228 163
Width: 499
GlyphClass: 2
Flags: MW
HStem: -12 57<118.5 212.5> -3 32 416 53<224.5 235> 537 100<127.5 157 326.5 356>
VStem: 32 86<103.5 143.5 103.5 154.5> 92 100<572 601.5 572 602> 291 100<572 601.5 572 602> 324 80<82 82 124 256 256 256>
LayerCount: 2
Fore
SplineSet
324 82 m 1x79
 200 -4 l 2
 193 -9 176 -12 158 -12 c 0xb9
 79 -12 32 33 32 111 c 0
 32 198 89 245 225 270 c 2
 324 288 l 1
 321 379 282 416 188 416 c 0
 142 416 132 409 111 362 c 2
 98 331 l 1
 72 338 l 1
 72 403 l 1
 125 435 l 2
 163 458 203 469 246 469 c 0
 362 469 404 416 404 270 c 2
 404 87 l 2
 404 38 408 30 432 29 c 2
 471 27 l 1
 471 -3 l 1
 427 -1 402 0 397 0 c 0
 384 0 384 0 319 -3 c 1
 324 82 l 1x79
324 124 m 1
 324 256 l 1
 248 245 193 231 168 216 c 0
 138 197 118 162 118 125 c 0
 118 82 153 45 193 45 c 0
 232 45 295 83 324 124 c 1
143 637 m 0
 172 637 192 616 192 587 c 0
 192 557 172 537 142 537 c 0
 112 537 92 557 92 587 c 0x34
 92 617 112 637 143 637 c 0
342 637 m 0
 371 637 391 616 391 587 c 0
 391 557 371 537 341 537 c 0
 311 537 291 557 291 587 c 0x32
 291 617 311 637 342 637 c 0
EndSplineSet
EndChar

StartChar: aring
Encoding: 229 229 164
Width: 499
GlyphClass: 2
Flags: MW
HStem: -12 57<118.5 212.5> -3 32 416 53<224.5 235> 512 36<231 268.5 231 277.5> 676 36<232 269>
VStem: 32 86<103.5 143.5 103.5 154.5> 150 38<593 632 593 640.5> 312 38<593 631> 324 80<82 82 124 256 256 256>
LayerCount: 2
Fore
SplineSet
324 82 m 1x7e80
 200 -4 l 2
 193 -9 176 -12 158 -12 c 0xbe80
 79 -12 32 33 32 111 c 0
 32 198 89 245 225 270 c 2
 324 288 l 1
 321 379 282 416 188 416 c 0
 142 416 132 409 111 362 c 2
 98 331 l 1
 72 338 l 1
 72 403 l 1
 125 435 l 2
 163 458 203 469 246 469 c 0
 362 469 404 416 404 270 c 2
 404 87 l 2
 404 38 408 30 432 29 c 2
 471 27 l 1
 471 -3 l 1
 427 -1 402 0 397 0 c 0
 384 0 384 0 319 -3 c 1
 324 82 l 1x7e80
324 124 m 1
 324 256 l 1
 248 245 193 231 168 216 c 0
 138 197 118 162 118 125 c 0
 118 82 153 45 193 45 c 0
 232 45 295 83 324 124 c 1
252 712 m 0
 305 712 350 667 350 612 c 0x3f
 350 556 305 512 250 512 c 0
 194 512 150 556 150 613 c 0
 150 668 195 712 252 712 c 0
251 676 m 0
 213 676 188 651 188 613 c 0
 188 573 212 548 250 548 c 0
 287 548 312 574 312 612 c 0
 312 650 287 676 251 676 c 0
EndSplineSet
EndChar

StartChar: ae
Encoding: 230 230 165
Width: 757
GlyphClass: 2
Flags: MW
HStem: -20 53<546 573> -20 65<173.5 178> 230 34<508.5 549> 416 53<224 228.5> 436 33<518.5 558>
VStem: 30 86<98 129> 69 26<331 399> 324 79<230 230 230 233 230 233 230 265> 649 83<272 293>
LayerCount: 2
Fore
SplineSet
545 469 m 0x2b80
 615 469 732 431 732 278 c 0
 732 266 731 258 730 244 c 1
 661 233 618 230 549 230 c 2
 403 230 l 1
 405 172 412 144 430 111 c 0
 459 61 513 33 579 33 c 0
 623 33 650 43 710 80 c 1
 724 70 l 1
 704 36 l 2
 695 22 610 -20 536 -20 c 0
 480 -20 425 -1 388 33 c 0xab80
 371 47 361 60 344 89 c 1
 221 -7 l 2
 211 -15 190 -20 166 -20 c 0
 83 -20 30 30 30 107 c 0x6580
 30 151 44 184 71 205 c 0
 101 227 184 250 268 259 c 2
 324 265 l 1
 321 323 315 347 297 374 c 0
 278 400 246 416 211 416 c 0
 177 416 132 403 120 389 c 0
 113 381 102 357 95 331 c 1
 69 337 l 1
 69 399 l 1
 167 452 l 2
 189 464 210 469 238 469 c 0x7380
 303 469 345 448 384 398 c 1
 449 452 488 469 545 469 c 0x2b80
324 117 m 1
 324 233 l 1
 246 224 157 211 134 181 c 0
 123 165 116 144 116 122 c 0
 116 74 147 45 200 45 c 0x6580
 247 45 280 64 324 117 c 1
649 267 m 1
 649 319 643 345 626 377 c 0
 604 418 577 436 539 436 c 0x2980
 498 436 458 416 435 385 c 0
 415 357 407 327 405 270 c 1
 459 265 485 264 532 264 c 0
 568 264 594 265 649 267 c 1
EndSplineSet
EndChar

StartChar: ccedilla
Encoding: 231 231 166
Width: 443
GlyphClass: 2
Flags: MW
HStem: -225 36<222.5 248.5 222 274> -107 36<238.5 301> -20 52<269 269> 417 52<273 276>
VStem: 26 88<184 254> 285 75<-160 -134.5> 371 28<311 334>
LayerCount: 2
Fore
SplineSet
269 -20 m 1
 248 -75 l 1
 258 -72 265 -71 275 -71 c 0
 327 -71 360 -98 360 -141 c 0
 360 -193 312 -225 236 -225 c 0
 209 -225 195 -222 152 -209 c 1
 166 -178 l 1
 199 -187 213 -189 231 -189 c 0
 266 -189 285 -174 285 -146 c 0
 285 -123 269 -107 245 -107 c 0
 232 -107 223 -109 204 -114 c 1
 197 -108 l 1
 235 -19 l 1
 110 -9 26 82 26 210 c 0
 26 298 63 368 133 412 c 0
 193 450 249 469 297 469 c 0
 338 469 373 458 413 434 c 1
 404 398 399 357 399 311 c 1
 371 311 l 1
 364 372 l 1
 346 397 298 417 254 417 c 0
 164 417 114 357 114 250 c 0
 114 118 187 32 298 32 c 0
 334 32 366 41 403 61 c 1
 413 46 l 1
 392 14 l 2
 380 0 313 -19 269 -20 c 1
EndSplineSet
EndChar

StartChar: egrave
Encoding: 232 232 167
Width: 478
GlyphClass: 2
Flags: MW
HStem: -20 53<261.5 289> 230 34<224 265 224 265> 436 33<243.5 266.5>
VStem: 26 93<230 230 230 271> 359 89
LayerCount: 2
Fore
SplineSet
250 -20 m 0
 162 -20 26 24 26 219 c 0
 26 323 59 385 141 432 c 0
 182 456 225 469 262 469 c 0
 374 469 448 394 448 279 c 0
 448 267 447 258 446 244 c 1
 377 233 334 230 265 230 c 2
 119 230 l 1
 121 172 128 144 147 111 c 0
 175 62 229 33 294 33 c 0
 337 33 360 42 424 80 c 1
 437 70 l 1
 417 36 l 2
 409 24 328 -20 250 -20 c 0
359 267 m 1
 356 334 349 363 327 396 c 0
 309 423 283 436 250 436 c 0
 202 436 159 409 138 365 c 0
 125 339 121 317 121 270 c 1
 175 265 201 264 247 264 c 0
 283 264 307 265 359 267 c 1
288 506 m 1
 144 596 l 2
 111 617 104 625 104 643 c 0
 104 662 118 677 135 677 c 0
 149 677 169 665 190 644 c 2
 328 506 l 1
 288 506 l 1
EndSplineSet
EndChar

StartChar: eacute
Encoding: 233 233 168
Width: 478
GlyphClass: 2
Flags: MW
HStem: -20 53<261.5 289> 230 34<224 265 224 265> 436 33<243.5 266.5>
VStem: 26 93<230 230 230 271> 359 89
LayerCount: 2
Fore
SplineSet
250 -20 m 0
 162 -20 26 24 26 219 c 0
 26 323 59 385 141 432 c 0
 182 456 225 469 262 469 c 0
 374 469 448 394 448 279 c 0
 448 267 447 258 446 244 c 1
 377 233 334 230 265 230 c 2
 119 230 l 1
 121 172 128 144 147 111 c 0
 175 62 229 33 294 33 c 0
 337 33 360 42 424 80 c 1
 437 70 l 1
 417 36 l 2
 409 24 328 -20 250 -20 c 0
359 267 m 1
 356 334 349 363 327 396 c 0
 309 423 283 436 250 436 c 0
 202 436 159 409 138 365 c 0
 125 339 121 317 121 270 c 1
 175 265 201 264 247 264 c 0
 283 264 307 265 359 267 c 1
151 506 m 1
 289 644 l 2
 311 666 329 677 344 677 c 0
 361 677 375 662 375 643 c 0
 375 625 368 617 335 596 c 2
 191 506 l 1
 151 506 l 1
EndSplineSet
EndChar

StartChar: ecircumflex
Encoding: 234 234 169
Width: 478
GlyphClass: 2
Flags: MW
HStem: -20 53<261.5 289> 230 34<224 265 224 265> 436 33<243.5 266.5>
VStem: 26 93<230 230 230 271> 359 89
LayerCount: 2
Fore
SplineSet
250 -20 m 0
 162 -20 26 24 26 219 c 0
 26 323 59 385 141 432 c 0
 182 456 225 469 262 469 c 0
 374 469 448 394 448 279 c 0
 448 267 447 258 446 244 c 1
 377 233 334 230 265 230 c 2
 119 230 l 1
 121 172 128 144 147 111 c 0
 175 62 229 33 294 33 c 0
 337 33 360 42 424 80 c 1
 437 70 l 1
 417 36 l 2
 409 24 328 -20 250 -20 c 0
359 267 m 1
 356 334 349 363 327 396 c 0
 309 423 283 436 250 436 c 0
 202 436 159 409 138 365 c 0
 125 339 121 317 121 270 c 1
 175 265 201 264 247 264 c 0
 283 264 307 265 359 267 c 1
209 677 m 1
 271 677 l 1
 396 510 l 1
 361 510 l 1
 240 613 l 1
 119 510 l 1
 84 510 l 1
 209 677 l 1
EndSplineSet
EndChar

StartChar: edieresis
Encoding: 235 235 170
Width: 478
GlyphClass: 2
Flags: MW
HStem: -20 53<261.5 289> 230 34<224 265 224 265> 436 33<243.5 266.5> 537 100<125.5 155 324.5 354>
VStem: 26 93<230 230 230 271> 90 100<572 601.5 572 602> 289 100<572 601.5 572 602> 359 89
LayerCount: 2
Fore
SplineSet
250 -20 m 0xf9
 162 -20 26 24 26 219 c 0
 26 323 59 385 141 432 c 0
 182 456 225 469 262 469 c 0
 374 469 448 394 448 279 c 0
 448 267 447 258 446 244 c 1
 377 233 334 230 265 230 c 2
 119 230 l 1
 121 172 128 144 147 111 c 0
 175 62 229 33 294 33 c 0
 337 33 360 42 424 80 c 1
 437 70 l 1
 417 36 l 2
 409 24 328 -20 250 -20 c 0xf9
359 267 m 1
 356 334 349 363 327 396 c 0
 309 423 283 436 250 436 c 0
 202 436 159 409 138 365 c 0
 125 339 121 317 121 270 c 1
 175 265 201 264 247 264 c 0
 283 264 307 265 359 267 c 1
141 637 m 0
 170 637 190 616 190 587 c 0
 190 557 170 537 140 537 c 0
 110 537 90 557 90 587 c 0xf4
 90 617 110 637 141 637 c 0
340 637 m 0
 369 637 389 616 389 587 c 0
 389 557 369 537 339 537 c 0
 309 537 289 557 289 587 c 0xf2
 289 617 309 637 340 637 c 0
EndSplineSet
EndChar

StartChar: igrave
Encoding: 236 236 171
Width: 286
GlyphClass: 2
Flags: MW
HStem: -3 30<21 21> 400 28<23 60 23 23> 449 20G<179 179>
VStem: 104 84<102 327 327 360>
LayerCount: 2
Fore
SplineSet
188 465 m 1
 188 102 l 2
 188 39 191 32 225 30 c 2
 271 27 l 1
 271 -3 l 1
 171 0 171 0 146 0 c 0
 121 0 121 0 21 -3 c 1
 21 27 l 1
 67 30 l 2
 101 32 104 39 104 102 c 2
 104 327 l 2
 104 393 100 400 60 400 c 2
 23 400 l 1
 23 428 l 1
 76 434 128 448 179 469 c 1
 188 465 l 1
192 506 m 1
 48 596 l 2
 15 617 8 625 8 643 c 0
 8 662 22 677 39 677 c 0
 53 677 73 665 94 644 c 2
 232 506 l 1
 192 506 l 1
EndSplineSet
EndChar

StartChar: iacute
Encoding: 237 237 172
Width: 286
GlyphClass: 2
Flags: MW
HStem: -3 30<21 21> 400 28<23 60 23 23> 449 20G<179 179>
VStem: 104 84<102 327 327 360>
LayerCount: 2
Fore
SplineSet
188 465 m 1
 188 102 l 2
 188 39 191 32 225 30 c 2
 271 27 l 1
 271 -3 l 1
 171 0 171 0 146 0 c 0
 121 0 121 0 21 -3 c 1
 21 27 l 1
 67 30 l 2
 101 32 104 39 104 102 c 2
 104 327 l 2
 104 393 100 400 60 400 c 2
 23 400 l 1
 23 428 l 1
 76 434 128 448 179 469 c 1
 188 465 l 1
55 506 m 1
 193 644 l 2
 215 666 233 677 248 677 c 0
 265 677 279 662 279 643 c 0
 279 625 272 617 239 596 c 2
 95 506 l 1
 55 506 l 1
EndSplineSet
EndChar

StartChar: icircumflex
Encoding: 238 238 173
Width: 286
GlyphClass: 2
Flags: MW
HStem: -3 30<21 21> 400 28<23 60 23 23> 449 20G<179 179>
VStem: 104 84<102 327 327 360>
LayerCount: 2
Fore
SplineSet
188 465 m 1
 188 102 l 2
 188 39 191 32 225 30 c 2
 271 27 l 1
 271 -3 l 1
 171 0 171 0 146 0 c 0
 121 0 121 0 21 -3 c 1
 21 27 l 1
 67 30 l 2
 101 32 104 39 104 102 c 2
 104 327 l 2
 104 393 100 400 60 400 c 2
 23 400 l 1
 23 428 l 1
 76 434 128 448 179 469 c 1
 188 465 l 1
113 677 m 1
 175 677 l 1
 300 510 l 1
 265 510 l 1
 144 613 l 1
 23 510 l 1
 -12 510 l 1
 113 677 l 1
EndSplineSet
EndChar

StartChar: idieresis
Encoding: 239 239 174
Width: 286
GlyphClass: 2
Flags: MW
HStem: -3 30<21 21> 400 28<23 60 23 23> 449 20G<179 179> 557 100<29.5 59 228.5 258>
VStem: -6 100<592 621.5 592 622> 104 84<102 327 327 360> 193 100<592 621.5 592 622>
LayerCount: 2
Fore
SplineSet
188 465 m 1
 188 102 l 2
 188 39 191 32 225 30 c 2
 271 27 l 1
 271 -3 l 1
 171 0 171 0 146 0 c 0
 121 0 121 0 21 -3 c 1
 21 27 l 1
 67 30 l 2
 101 32 104 39 104 102 c 2
 104 327 l 2
 104 393 100 400 60 400 c 2
 23 400 l 1
 23 428 l 1
 76 434 128 448 179 469 c 1
 188 465 l 1
45 657 m 0
 74 657 94 636 94 607 c 0
 94 577 74 557 44 557 c 0
 14 557 -6 577 -6 607 c 0
 -6 637 14 657 45 657 c 0
244 657 m 0
 273 657 293 636 293 607 c 0
 293 577 273 557 243 557 c 0
 213 557 193 577 193 607 c 0
 193 637 213 657 244 657 c 0
EndSplineSet
EndChar

StartChar: eth
Encoding: 240 240 175
Width: 545
GlyphClass: 2
Flags: MW
HStem: -20 33<229 326.5 229 328> 436 33<217.5 286> 688 20G<448 448>
VStem: 32 93<182 291> 416 88<193 325>
LayerCount: 2
Fore
SplineSet
335 614 m 1
 426 523 504 416 504 262 c 0
 504 94 402 -20 254 -20 c 0
 121 -20 32 76 32 217 c 0
 32 365 131 469 271 469 c 0
 309 469 345 461 378 444 c 1
 380 446 l 1
 352 508 321 552 282 588 c 1
 142 520 l 1
 124 550 l 1
 260 616 l 1
 229 645 193 668 138 696 c 1
 172 728 l 1
 245 684 272 666 305 638 c 1
 448 708 l 1
 466 678 l 1
 335 614 l 1
416 240 m 0
 416 410 311 436 261 436 c 0
 174 436 125 370 125 252 c 0
 125 112 186 13 272 13 c 0
 381 13 416 146 416 240 c 0
EndSplineSet
EndChar

StartChar: ntilde
Encoding: 241 241 176
Width: 581
GlyphClass: 2
Flags: MW
HStem: -3 30<6 6> 400 28<7 44 7 7> 408 61<308.5 332.5> 535 55<344.5 370.5> 580 55<199.5 222>
VStem: 88 84<102 314> 410 84<70 102 102 281 281 295>
LayerCount: 2
Fore
SplineSet
410 -3 m 1xa6
 410 281 l 2
 410 358 366 408 299 408 c 0xa6
 238 408 172 359 172 314 c 2
 172 102 l 2
 172 39 175 32 209 30 c 2
 254 27 l 1
 254 -3 l 1
 186 -1 159 0 130 0 c 0
 101 0 74 -1 6 -3 c 1
 6 27 l 1
 51 30 l 2
 85 32 88 39 88 102 c 2
 88 327 l 2
 88 393 84 400 44 400 c 2
 7 400 l 1
 7 428 l 1xc6
 60 434 112 448 163 469 c 1
 172 465 l 1
 172 378 l 1
 248 444 l 2
 269 462 290 469 327 469 c 0
 439 469 494 412 494 295 c 2
 494 102 l 2
 494 38 497 32 531 30 c 2
 572 27 l 1
 572 -3 l 1
 503 0 503 0 489 0 c 0
 472 0 471 0 410 -3 c 1xa6
227 635 m 0x8e
 280 635 326 590 363 590 c 0
 391 590 407 603 422 640 c 1
 451 640 l 1
 447 582 399 535 342 535 c 0x96
 288 535 241 580 203 580 c 0x8e
 179 580 163 566 150 535 c 1
 121 535 l 1x96
 135 600 172 635 227 635 c 0x8e
EndSplineSet
EndChar

StartChar: ograve
Encoding: 242 242 177
Width: 545
GlyphClass: 2
Flags: MW
HStem: -20 33<240 327> 436 33<217 307>
VStem: 32 93<180 291.5> 421 93<162 268>
LayerCount: 2
Fore
SplineSet
279 469 m 0
 416 469 514 372 514 237 c 0
 514 87 404 -20 250 -20 c 0
 121 -20 32 76 32 217 c 0
 32 366 133 469 279 469 c 0
261 436 m 0
 173 436 125 371 125 251 c 0
 125 109 191 13 289 13 c 0
 370 13 421 85 421 200 c 0
 421 336 353 436 261 436 c 0
321 506 m 1
 177 596 l 2
 144 617 137 625 137 643 c 0
 137 662 151 677 168 677 c 0
 182 677 202 665 223 644 c 2
 361 506 l 1
 321 506 l 1
EndSplineSet
EndChar

StartChar: oacute
Encoding: 243 243 178
Width: 545
GlyphClass: 2
Flags: MW
HStem: -20 33<240 327> 436 33<217 307>
VStem: 32 93<180 291.5> 421 93<162 268>
LayerCount: 2
Fore
SplineSet
279 469 m 0
 416 469 514 372 514 237 c 0
 514 87 404 -20 250 -20 c 0
 121 -20 32 76 32 217 c 0
 32 366 133 469 279 469 c 0
261 436 m 0
 173 436 125 371 125 251 c 0
 125 109 191 13 289 13 c 0
 370 13 421 85 421 200 c 0
 421 336 353 436 261 436 c 0
179 506 m 1
 317 644 l 2
 339 666 357 677 372 677 c 0
 389 677 403 662 403 643 c 0
 403 625 396 617 363 596 c 2
 219 506 l 1
 179 506 l 1
EndSplineSet
EndChar

StartChar: ocircumflex
Encoding: 244 244 179
Width: 545
GlyphClass: 2
Flags: MW
HStem: -20 33<240 327> 436 33<217 307>
VStem: 32 93<180 291.5> 421 93<162 268>
LayerCount: 2
Fore
SplineSet
279 469 m 0
 416 469 514 372 514 237 c 0
 514 87 404 -20 250 -20 c 0
 121 -20 32 76 32 217 c 0
 32 366 133 469 279 469 c 0
261 436 m 0
 173 436 125 371 125 251 c 0
 125 109 191 13 289 13 c 0
 370 13 421 85 421 200 c 0
 421 336 353 436 261 436 c 0
236 677 m 1
 298 677 l 1
 423 510 l 1
 388 510 l 1
 267 613 l 1
 146 510 l 1
 111 510 l 1
 236 677 l 1
EndSplineSet
EndChar

StartChar: otilde
Encoding: 245 245 180
Width: 545
GlyphClass: 2
Flags: MW
HStem: -20 33<240 327> 436 33<217 307> 535 55<326.5 352.5> 580 55<181.5 204>
VStem: 32 93<180 291.5> 421 93<162 268>
LayerCount: 2
Fore
SplineSet
279 469 m 0xcc
 416 469 514 372 514 237 c 0
 514 87 404 -20 250 -20 c 0
 121 -20 32 76 32 217 c 0
 32 366 133 469 279 469 c 0xcc
261 436 m 0
 173 436 125 371 125 251 c 0
 125 109 191 13 289 13 c 0
 370 13 421 85 421 200 c 0
 421 336 353 436 261 436 c 0
209 635 m 0xdc
 262 635 308 590 345 590 c 0
 373 590 389 603 404 640 c 1
 433 640 l 1
 429 582 381 535 324 535 c 0xec
 270 535 223 580 185 580 c 0xdc
 161 580 145 566 132 535 c 1
 103 535 l 1xec
 117 600 154 635 209 635 c 0xdc
EndSplineSet
EndChar

StartChar: odieresis
Encoding: 246 246 181
Width: 545
GlyphClass: 2
Flags: MW
HStem: -20 33<240 327> 436 33<217 307> 537 100<151.5 181 350.5 380>
VStem: 32 93<180 291.5> 116 100<572 601.5 572 602> 315 100<572 601.5 572 602> 421 93<162 268>
LayerCount: 2
Fore
SplineSet
279 469 m 0xf6
 416 469 514 372 514 237 c 0
 514 87 404 -20 250 -20 c 0
 121 -20 32 76 32 217 c 0
 32 366 133 469 279 469 c 0xf6
261 436 m 0
 173 436 125 371 125 251 c 0
 125 109 191 13 289 13 c 0
 370 13 421 85 421 200 c 0
 421 336 353 436 261 436 c 0
167 637 m 0
 196 637 216 616 216 587 c 0
 216 557 196 537 166 537 c 0
 136 537 116 557 116 587 c 0xee
 116 617 136 637 167 637 c 0
366 637 m 0
 395 637 415 616 415 587 c 0
 415 557 395 537 365 537 c 0
 335 537 315 557 315 587 c 0
 315 617 335 637 366 637 c 0
EndSplineSet
EndChar

StartChar: divide
Encoding: 247 247 182
Width: 605
GlyphClass: 2
Flags: MW
HStem: 10 116<288.5 319> 233 56<51 555 51 555> 396 116<288.5 319>
VStem: 246 116<52.5 82.5 51.5 83 438.5 468.5>
CounterMasks: 1 e0
LayerCount: 2
Fore
SplineSet
51 233 m 1
 51 289 l 1
 555 289 l 1
 555 233 l 1
 51 233 l 1
304 512 m 0
 335 512 362 484 362 453 c 0
 362 422 335 396 303 396 c 0
 273 396 246 423 246 454 c 0
 246 484 273 512 304 512 c 0
304 126 m 0
 335 126 362 98 362 67 c 0
 362 36 335 10 303 10 c 0
 273 10 246 37 246 68 c 0
 246 98 273 126 304 126 c 0
EndSplineSet
EndChar

StartChar: oslash
Encoding: 248 248 183
Width: 555
GlyphClass: 2
Flags: MW
HStem: -20 33<266 333 266 333.5> 436 33<222 290.5>
VStem: 37 93<233.5 290> 426 93<163.5 218.5>
LayerCount: 2
Fore
SplineSet
16 0 m 1
 83 64 l 1
 50 115 37 157 37 216 c 0
 37 364 141 469 288 469 c 0
 349 469 391 454 441 414 c 1
 503 474 l 1
 530 449 l 1
 467 388 l 1
 505 337 519 296 519 238 c 0
 519 89 409 -20 258 -20 c 0
 195 -20 154 -5 106 37 c 1
 44 -23 l 1
 16 0 l 1
404 327 m 1
 166 95 l 1
 200 38 239 13 293 13 c 0
 373 13 426 86 426 197 c 0
 426 240 419 279 404 327 c 1
150 130 m 1
 388 362 l 1
 355 412 316 436 265 436 c 0
 179 436 130 370 130 256 c 0
 130 211 136 175 150 130 c 1
EndSplineSet
EndChar

StartChar: ugrave
Encoding: 249 249 184
Width: 602
GlyphClass: 2
Flags: MW
HStem: -12 61<239.5 262.5> -3 30<581 581> 400 28<18 55 18 18> 449 20G<174 174 494 494>
VStem: 99 84<159 170 170 327 327 360> 419 84<74.5 89 164 327 327 360>
LayerCount: 2
Fore
SplineSet
283 49 m 0xbc
 370 49 419 126 419 164 c 2
 419 327 l 2
 419 393 415 400 375 400 c 2
 338 400 l 1
 338 428 l 1
 391 434 443 448 494 469 c 1
 503 465 l 1
 503 102 l 2
 503 38 506 32 540 30 c 2
 581 27 l 1
 581 -3 l 1
 512 0 512 0 498 0 c 0
 483 0 482 0 415 -3 c 1
 418 44 419 60 419 89 c 1
 352 27 l 2x7c
 325 2 285 -12 240 -12 c 0
 104 -12 99 70 99 159 c 2
 99 327 l 2
 99 393 95 400 55 400 c 2
 18 400 l 1
 18 428 l 1
 71 434 123 448 174 469 c 1
 183 465 l 1
 183 170 l 2
 183 104 196 49 283 49 c 0xbc
350 506 m 1
 206 596 l 2
 173 617 166 625 166 643 c 0
 166 662 180 677 197 677 c 0
 211 677 231 665 252 644 c 2
 390 506 l 1
 350 506 l 1
EndSplineSet
EndChar

StartChar: uacute
Encoding: 250 250 185
Width: 602
GlyphClass: 2
Flags: MW
HStem: -12 61<239.5 262.5> -3 30<581 581> 400 28<18 55 18 18> 449 20G<174 174 494 494>
VStem: 99 84<159 170 170 327 327 360> 419 84<74.5 89 164 327 327 360>
LayerCount: 2
Fore
SplineSet
283 49 m 0xbc
 370 49 419 126 419 164 c 2
 419 327 l 2
 419 393 415 400 375 400 c 2
 338 400 l 1
 338 428 l 1
 391 434 443 448 494 469 c 1
 503 465 l 1
 503 102 l 2
 503 38 506 32 540 30 c 2
 581 27 l 1
 581 -3 l 1
 512 0 512 0 498 0 c 0
 483 0 482 0 415 -3 c 1
 418 44 419 60 419 89 c 1
 352 27 l 2x7c
 325 2 285 -12 240 -12 c 0
 104 -12 99 70 99 159 c 2
 99 327 l 2
 99 393 95 400 55 400 c 2
 18 400 l 1
 18 428 l 1
 71 434 123 448 174 469 c 1
 183 465 l 1
 183 170 l 2
 183 104 196 49 283 49 c 0xbc
213 506 m 1
 351 644 l 2
 373 666 391 677 406 677 c 0
 423 677 437 662 437 643 c 0
 437 625 430 617 397 596 c 2
 253 506 l 1
 213 506 l 1
EndSplineSet
EndChar

StartChar: ucircumflex
Encoding: 251 251 186
Width: 602
GlyphClass: 2
Flags: MW
HStem: -12 61<239.5 262.5> -3 30<581 581> 400 28<18 55 18 18> 449 20G<174 174 494 494>
VStem: 99 84<159 170 170 327 327 360> 419 84<74.5 89 164 327 327 360>
LayerCount: 2
Fore
SplineSet
283 49 m 0xbc
 370 49 419 126 419 164 c 2
 419 327 l 2
 419 393 415 400 375 400 c 2
 338 400 l 1
 338 428 l 1
 391 434 443 448 494 469 c 1
 503 465 l 1
 503 102 l 2
 503 38 506 32 540 30 c 2
 581 27 l 1
 581 -3 l 1
 512 0 512 0 498 0 c 0
 483 0 482 0 415 -3 c 1
 418 44 419 60 419 89 c 1
 352 27 l 2x7c
 325 2 285 -12 240 -12 c 0
 104 -12 99 70 99 159 c 2
 99 327 l 2
 99 393 95 400 55 400 c 2
 18 400 l 1
 18 428 l 1
 71 434 123 448 174 469 c 1
 183 465 l 1
 183 170 l 2
 183 104 196 49 283 49 c 0xbc
271 677 m 1
 333 677 l 1
 458 510 l 1
 423 510 l 1
 302 613 l 1
 181 510 l 1
 146 510 l 1
 271 677 l 1
EndSplineSet
EndChar

StartChar: udieresis
Encoding: 252 252 187
Width: 602
GlyphClass: 2
Flags: MW
HStem: -12 61<239.5 262.5> -3 30<581 581> 400 28<18 55 18 18> 449 20G<174 174 494 494> 537 100<187.5 217 386.5 416>
VStem: 99 84<159 170 170 327 327 360> 152 100<572 601.5 572 602> 351 100<572 601.5 572 602> 419 84<74.5 89 164 327 327 360>
LayerCount: 2
Fore
SplineSet
283 49 m 0xbc80
 370 49 419 126 419 164 c 2
 419 327 l 2
 419 393 415 400 375 400 c 2
 338 400 l 1
 338 428 l 1
 391 434 443 448 494 469 c 1
 503 465 l 1
 503 102 l 2
 503 38 506 32 540 30 c 2
 581 27 l 1
 581 -3 l 1
 512 0 512 0 498 0 c 0
 483 0 482 0 415 -3 c 1
 418 44 419 60 419 89 c 1
 352 27 l 2x7c80
 325 2 285 -12 240 -12 c 0
 104 -12 99 70 99 159 c 2
 99 327 l 2
 99 393 95 400 55 400 c 2
 18 400 l 1
 18 428 l 1
 71 434 123 448 174 469 c 1
 183 465 l 1
 183 170 l 2
 183 104 196 49 283 49 c 0xbc80
203 637 m 0
 232 637 252 616 252 587 c 0
 252 557 232 537 202 537 c 0
 172 537 152 557 152 587 c 0x3a
 152 617 172 637 203 637 c 0
402 637 m 0
 431 637 451 616 451 587 c 0
 451 557 431 537 401 537 c 0
 371 537 351 557 351 587 c 0x39
 351 617 371 637 402 637 c 0
EndSplineSet
EndChar

StartChar: yacute
Encoding: 253 253 188
Width: 555
GlyphClass: 2
Flags: MW
HStem: -283 67<107 114.5> -268 75<27 64> 431 28<12 12>
LayerCount: 2
Fore
SplineSet
257 511 m 1x20
 395 649 l 2
 417 671 435 682 450 682 c 0
 467 682 481 667 481 648 c 0
 481 630 474 622 441 601 c 2
 297 511 l 1
 257 511 l 1x20
297 86 m 1
 416 378 l 2
 420 388 422 397 422 404 c 0
 422 418 408 427 380 429 c 2
 354 431 l 1
 354 459 l 1
 433 456 433 456 449 456 c 0
 465 456 465 456 544 459 c 1
 544 431 l 1
 516 429 l 2
 491 426 472 399 432 308 c 2
 229 -160 l 2
 191 -247 148 -283 81 -283 c 0xa0
 62 -283 46 -278 27 -268 c 1
 51 -193 l 1
 64 -193 l 1x60
 81 -208 99 -216 115 -216 c 0xa0
 153 -216 192 -169 224 -85 c 2
 247 -24 l 1
 229 26 219 50 191 118 c 2
 82 380 l 2
 67 415 55 426 30 429 c 2
 12 431 l 1
 12 459 l 1
 109 456 109 456 128 456 c 0
 147 456 147 456 244 459 c 1
 244 431 l 1
 206 429 l 2
 183 428 172 420 172 406 c 0
 172 396 176 381 182 364 c 2
 297 86 l 1
EndSplineSet
EndChar

StartChar: thorn
Encoding: 254 254 189
Width: 600
GlyphClass: 2
Flags: MW
HStem: -281 30<-2 -2> -12 51<271.5 300.5> 404 65<318.5 350.5> 661 28<0 0 0 56> 706 20G<156 156>
VStem: 81 84<-176 13 98 306 369 620 620 635> 457 87<232 284>
LayerCount: 2
Fore
SplineSet
0 661 m 1
 0 689 l 1
 79 701 112 709 156 726 c 1
 165 718 l 1
 165 369 l 1
 220 425 l 2
 246 451 295 469 342 469 c 0
 454 469 544 379 544 267 c 0
 544 197 508 113 465 82 c 2
 365 10 l 2
 344 -5 318 -12 283 -12 c 0
 241 -12 210 -5 165 13 c 1
 165 -176 l 2
 165 -239 168 -246 202 -248 c 2
 248 -251 l 1
 248 -281 l 1
 148 -278 148 -278 123 -278 c 0
 98 -278 98 -278 -2 -281 c 1
 -2 -251 l 1
 44 -248 l 2
 78 -246 81 -239 81 -176 c 2
 81 620 l 2
 81 650 74 661 56 661 c 2
 0 661 l 1
303 404 m 0
 212 404 165 337 165 306 c 2
 165 98 l 1
 205 56 243 39 300 39 c 0
 397 39 457 113 457 230 c 0
 457 338 398 404 303 404 c 0
EndSplineSet
EndChar

StartChar: ydieresis
Encoding: 255 255 190
Width: 555
GlyphClass: 2
Flags: MW
HStem: -283 67<107 114.5> -268 75<27 64> 431 28<12 12> 537 100<170.5 200 369.5 399>
VStem: 135 100<572 601.5 572 602> 334 100<572 601.5 572 602>
LayerCount: 2
Fore
SplineSet
297 86 m 1xbc
 416 378 l 2
 420 388 422 397 422 404 c 0
 422 418 408 427 380 429 c 2
 354 431 l 1
 354 459 l 1
 433 456 433 456 449 456 c 0
 465 456 465 456 544 459 c 1
 544 431 l 1
 516 429 l 2
 491 426 472 399 432 308 c 2
 229 -160 l 2
 191 -247 148 -283 81 -283 c 0xbc
 62 -283 46 -278 27 -268 c 1
 51 -193 l 1
 64 -193 l 1x7c
 81 -208 99 -216 115 -216 c 0
 153 -216 192 -169 224 -85 c 2
 247 -24 l 1
 229 26 219 50 191 118 c 2
 82 380 l 2
 67 415 55 426 30 429 c 2
 12 431 l 1
 12 459 l 1
 109 456 109 456 128 456 c 0
 147 456 147 456 244 459 c 1
 244 431 l 1
 206 429 l 2
 183 428 172 420 172 406 c 0
 172 396 176 381 182 364 c 2
 246 196 l 2
 264 147 275 124 297 86 c 1xbc
186 637 m 0
 215 637 235 616 235 587 c 0
 235 557 215 537 185 537 c 0
 155 537 135 557 135 587 c 0
 135 617 155 637 186 637 c 0
385 637 m 0
 414 637 434 616 434 587 c 0
 434 557 414 537 384 537 c 0
 354 537 334 557 334 587 c 0
 334 617 354 637 385 637 c 0
EndSplineSet
EndChar

StartChar: dotlessi
Encoding: 305 305 191
Width: 290
GlyphClass: 2
Flags: MW
HStem: -3 30<21 21> 400 28<23 60 23 23> 449 20G<179 179>
VStem: 104 84<102 327 327 360>
LayerCount: 2
Fore
SplineSet
188 465 m 1
 188 102 l 2
 188 39 191 32 225 30 c 2
 271 27 l 1
 271 -3 l 1
 171 0 171 0 146 0 c 0
 121 0 121 0 21 -3 c 1
 21 27 l 1
 67 30 l 2
 101 32 104 39 104 102 c 2
 104 327 l 2
 104 393 100 400 60 400 c 2
 23 400 l 1
 23 428 l 1
 76 434 128 448 179 469 c 1
 188 465 l 1
EndSplineSet
EndChar

StartChar: circumflex
Encoding: 710 710 192
Width: 312
GlyphClass: 2
Flags: MW
HStem: 510 167<0 187 0 187 125 312 125 277>
VStem: 0 312<510 510>
LayerCount: 2
Fore
SplineSet
125 677 m 1
 187 677 l 1
 312 510 l 1
 277 510 l 1
 156 613 l 1
 35 510 l 1
 0 510 l 1
 125 677 l 1
EndSplineSet
EndChar

StartChar: caron
Encoding: 711 711 193
Width: 312
GlyphClass: 2
Flags: MW
HStem: 510 167<0 187 0 125>
VStem: 0 312<677 677>
LayerCount: 2
Fore
SplineSet
156 574 m 1
 278 677 l 1
 312 677 l 1
 187 510 l 1
 125 510 l 1
 0 677 l 1
 35 677 l 1
 156 574 l 1
EndSplineSet
EndChar

StartChar: uni02C9
Encoding: 713 713 194
Width: 338
GlyphClass: 2
Flags: MW
HStem: 538 53<13 325 13 325>
VStem: 13 312<538 591 538 591>
LayerCount: 2
Fore
SplineSet
325 538 m 1
 13 538 l 1
 13 591 l 1
 325 591 l 1
 325 538 l 1
EndSplineSet
EndChar

StartChar: breve
Encoding: 728 728 195
Width: 269
GlyphClass: 2
Flags: MW
HStem: 534 62<104 165.5 104 179.5> 679 20G<0 26 26 26 243 269 269 269>
VStem: -4 30<695 699> 243 30<695 699>
LayerCount: 2
Fore
SplineSet
135 596 m 0
 196 596 234 644 243 699 c 1
 269 699 l 1
 273 695 l 1
 269 605 224 534 135 534 c 0
 49 534 -1 602 -4 695 c 1
 0 699 l 1
 26 699 l 1
 35 643 73 596 135 596 c 0
EndSplineSet
EndChar

StartChar: dotaccent
Encoding: 729 729 196
Width: 333
GlyphClass: 2
Flags: MW
HStem: 568 108<151.5 181 151.5 181.5>
VStem: 112 108<607 636.5>
LayerCount: 2
Fore
SplineSet
220 622 m 0
 220 592 197 568 166 568 c 0
 135 568 112 592 112 622 c 0
 112 651 137 676 166 676 c 0
 196 676 220 653 220 622 c 0
EndSplineSet
EndChar

StartChar: ring
Encoding: 730 730 197
Width: 267
GlyphClass: 2
Flags: MW
HStem: 535 22<116.5 151 116.5 160> 695 22<116.5 151>
VStem: 36 41<607.5 644.5 607.5 651.5> 190 41<607.5 644>
LayerCount: 2
Fore
SplineSet
134 717 m 0
 186 717 231 678 231 626 c 0
 231 574 186 535 134 535 c 0
 80 535 36 573 36 626 c 0
 36 677 82 717 134 717 c 0
134 557 m 0
 168 557 190 589 190 626 c 0
 190 662 168 695 134 695 c 0
 99 695 77 663 77 626 c 0
 77 589 99 557 134 557 c 0
EndSplineSet
EndChar

StartChar: ogonek
Encoding: 731 731 198
Width: 333
GlyphClass: 2
Flags: MW
HStem: -188 49<152.5 161.5>
VStem: 63 56<-107.5 -91>
LayerCount: 2
Fore
SplineSet
143 -188 m 0
 98 -188 63 -152 63 -106 c 0
 63 -76 91 -40 146 0 c 1
 180 0 l 1
 139 -36 119 -67 119 -92 c 0
 119 -123 136 -139 169 -139 c 0
 194 -139 222 -126 251 -102 c 1
 269 -125 l 1
 222 -167 180 -188 143 -188 c 0
EndSplineSet
EndChar

StartChar: tilde
Encoding: 732 732 199
Width: 329
GlyphClass: 2
Flags: MW
HStem: 571 59<244 256.5> 621 59<72.5 86>
LayerCount: 2
Fore
SplineSet
-5 575 m 1x40
 6 624 45 680 100 680 c 0x40
 119 680 146 672 180 655 c 0
 215 639 238 630 250 630 c 0
 275 630 293 648 306 682 c 1
 331 682 l 1
 334 679 l 1
 323 627 285 571 228 571 c 0x80
 209 571 183 580 149 596 c 0
 115 613 92 621 80 621 c 0
 54 621 35 605 22 572 c 1
 -2 572 l 1
 -5 575 l 1x40
EndSplineSet
EndChar

StartChar: gravecomb
Encoding: 768 768 200
Width: 0
GlyphClass: 2
Flags: MW
TopAccentHorizontal: -190
HStem: 506 171<-279.5 -118 -279.5 -78>
VStem: -302 224<506 652.5>
LayerCount: 2
Fore
SplineSet
-118 506 m 1
 -262 596 l 2
 -295 617 -302 625 -302 643 c 0
 -302 662 -288 677 -271 677 c 0
 -257 677 -237 665 -216 644 c 2
 -78 506 l 1
 -118 506 l 1
EndSplineSet
EndChar

StartChar: acutecomb
Encoding: 769 769 201
Width: 0
GlyphClass: 2
Flags: MW
TopAccentHorizontal: -143
HStem: 506 171<-255 -53.5>
VStem: -255 224<506 652.5>
LayerCount: 2
Fore
SplineSet
-255 506 m 1
 -117 644 l 2
 -95 666 -77 677 -62 677 c 0
 -45 677 -31 662 -31 643 c 0
 -31 625 -38 617 -71 596 c 2
 -215 506 l 1
 -255 506 l 1
EndSplineSet
EndChar

StartChar: uni0302
Encoding: 770 770 202
Width: 0
GlyphClass: 2
Flags: MW
TopAccentHorizontal: -156
GlyphVariantsHorizontal: uni0302 hatwide1 hatwide2 hatwide3 hatwide4 glyph3599
HStem: 510 167<-312 -125 -312 -125 -187 0 -187 -35>
VStem: -312 312<510 510>
LayerCount: 2
Fore
SplineSet
-187 677 m 1
 -125 677 l 1
 0 510 l 1
 -35 510 l 1
 -156 613 l 1
 -277 510 l 1
 -312 510 l 1
 -187 677 l 1
EndSplineSet
EndChar

StartChar: tildecomb
Encoding: 771 771 203
Width: 0
GlyphClass: 2
Flags: MW
TopAccentHorizontal: -215
GlyphVariantsHorizontal: tildecomb tildewide1 tildewide2 tildewide3 tildewide4 glyph3598
HStem: 535 55<-139 -105> 580 55<-328 -298.5>
LayerCount: 2
Fore
SplineSet
-292 635 m 0x40
 -223 635 -163 590 -115 590 c 0
 -79 590 -58 603 -38 640 c 1
 0 640 l 1
 -5 582 -68 535 -142 535 c 0x80
 -212 535 -274 580 -323 580 c 0x40
 -354 580 -375 566 -392 535 c 1
 -430 535 l 1x80
 -412 600 -364 635 -292 635 c 0x40
EndSplineSet
EndChar

StartChar: uni0304
Encoding: 772 772 204
Width: 0
GlyphClass: 2
Flags: MW
TopAccentHorizontal: -166
HStem: 538 53<-332 -20 -332 -20>
VStem: -332 312<538 591 538 591>
LayerCount: 2
Fore
SplineSet
-20 538 m 1
 -332 538 l 1
 -332 591 l 1
 -20 591 l 1
 -20 538 l 1
EndSplineSet
EndChar

StartChar: uni0305
Encoding: 773 773 205
Width: 0
GlyphClass: 2
Flags: MW
TopAccentHorizontal: -216
GlyphVariantsHorizontal: uni0305 glyph3886 glyph3881 glyph3877
GlyphCompositionHorizontal: 2  glyph3886%1,170,170,511 glyph3886%0,170,170,511
HStem: 542 45<-433 0 -433 0>
LayerCount: 2
Fore
SplineSet
0 542 m 1
 -433 542 l 1
 -433 587 l 1
 0 587 l 1
 0 542 l 1
EndSplineSet
EndChar

StartChar: uni0306
Encoding: 774 774 206
Width: 0
GlyphClass: 2
Flags: MW
TopAccentHorizontal: -166
GlyphVariantsHorizontal: uni0306 widebreve1 widebreve2 widebreve3 widebreve4
HStem: 506 60<-192.5 -141>
VStem: -307 30<664 664> -55 30<664 664>
LayerCount: 2
Fore
SplineSet
-25 664 m 1
 -31 529 -116 506 -166 506 c 0
 -219 506 -301 531 -307 664 c 1
 -277 664 l 1
 -274 607 -228 566 -166 566 c 0
 -104 566 -58 607 -55 664 c 1
 -25 664 l 1
EndSplineSet
EndChar

StartChar: uni0307
Encoding: 775 775 207
Width: 0
GlyphClass: 2
Flags: MW
TopAccentHorizontal: -125
HStem: 537 100<-139.5 -110>
VStem: -175 100<572 601.5 572 602>
LayerCount: 2
Fore
SplineSet
-124 637 m 0
 -95 637 -75 616 -75 587 c 0
 -75 557 -95 537 -125 537 c 0
 -155 537 -175 557 -175 587 c 0
 -175 617 -155 637 -124 637 c 0
EndSplineSet
EndChar

StartChar: uni0308
Encoding: 776 776 208
Width: 0
GlyphClass: 2
Flags: MW
TopAccentHorizontal: -168
HStem: 537 100<-282.5 -253 -81.5 -52>
VStem: -318 100<572 601.5 572 602> -117 100<572 601.5 572 602>
LayerCount: 2
Fore
SplineSet
-267 637 m 0
 -238 637 -218 616 -218 587 c 0
 -218 557 -238 537 -268 537 c 0
 -298 537 -318 557 -318 587 c 0
 -318 617 -298 637 -267 637 c 0
-66 637 m 0
 -37 637 -17 616 -17 587 c 0
 -17 557 -37 537 -67 537 c 0
 -97 537 -117 557 -117 587 c 0
 -117 617 -97 637 -66 637 c 0
EndSplineSet
EndChar

StartChar: uni030A
Encoding: 778 778 209
Width: 0
GlyphClass: 2
Flags: MW
TopAccentHorizontal: -135
HStem: 518 36<-153.5 -116.5 -153.5 -107.5> 682 36<-153.5 -116.5>
VStem: -235 38<598.5 637.5 598.5 645.5> -73 38<598.5 637.5>
LayerCount: 2
Fore
SplineSet
-35 618 m 0
 -35 563 -80 518 -135 518 c 0
 -190 518 -235 563 -235 618 c 0
 -235 673 -190 718 -135 718 c 0
 -80 718 -35 673 -35 618 c 0
-73 618 m 0
 -73 657 -98 682 -135 682 c 0
 -172 682 -197 657 -197 618 c 0
 -197 579 -172 554 -135 554 c 0
 -98 554 -73 579 -73 618 c 0
EndSplineSet
EndChar

StartChar: uni030C
Encoding: 780 780 210
Width: 0
GlyphClass: 2
Flags: MW
TopAccentHorizontal: -166
GlyphVariantsHorizontal: uni030C caronwide1 caronwide2 caronwide3 caronwide4 glyph3597
HStem: 510 167<-322 -135 -322 -197>
VStem: -322 312<677 677>
LayerCount: 2
Fore
SplineSet
-166 574 m 1
 -44 677 l 1
 -10 677 l 1
 -135 510 l 1
 -197 510 l 1
 -322 677 l 1
 -287 677 l 1
 -166 574 l 1
EndSplineSet
EndChar

StartChar: uni0332
Encoding: 818 818 211
Width: 0
GlyphClass: 2
Flags: MW
TopAccentHorizontal: -216
GlyphVariantsHorizontal: uni0332 glyph3885 glyph3880 glyph3876
GlyphCompositionHorizontal: 2  glyph3885%1,170,170,511 glyph3885%0,170,170,511
HStem: -175 45<-433 0 -433 0>
LayerCount: 2
Fore
SplineSet
0 -175 m 1
 -433 -175 l 1
 -433 -130 l 1
 0 -130 l 1
 0 -175 l 1
EndSplineSet
EndChar

StartChar: uni0333
Encoding: 819 819 212
Width: 0
GlyphClass: 2
Flags: MW
TopAccentHorizontal: -216
GlyphVariantsHorizontal: uni0333 glyph3884 glyph3879 glyph3875
GlyphCompositionHorizontal: 2  glyph3884%1,170,170,511 glyph3884%0,170,170,511
HStem: -283 45<-433 0 -433 0> -175 45<-433 0 -433 0>
LayerCount: 2
Fore
SplineSet
0 -283 m 1
 -433 -283 l 1
 -433 -238 l 1
 0 -238 l 1
 0 -283 l 1
0 -175 m 1
 -433 -175 l 1
 -433 -130 l 1
 0 -130 l 1
 0 -175 l 1
EndSplineSet
EndChar

StartChar: uni0338
Encoding: 824 824 213
Width: 0
GlyphClass: 2
Flags: W
LayerCount: 2
Fore
SplineSet
0 714 m 1
 -352 -169 l 1
 -408 -169 l 1
 -57 714 l 1
 0 714 l 1
EndSplineSet
EndChar

StartChar: uni033F
Encoding: 831 831 214
Width: 0
GlyphClass: 2
Flags: MW
TopAccentHorizontal: -216
GlyphVariantsHorizontal: uni033F glyph3883 glyph3878 glyph3874
GlyphCompositionHorizontal: 2  glyph3883%1,170,170,511 glyph3883%0,170,170,511
HStem: 542 45<-433 0 -433 0> 650 45<-433 0 -433 0>
LayerCount: 2
Fore
SplineSet
0 650 m 1
 -433 650 l 1
 -433 695 l 1
 0 695 l 1
 0 650 l 1
0 542 m 1
 -433 542 l 1
 -433 587 l 1
 0 587 l 1
 0 542 l 1
EndSplineSet
EndChar

StartChar: uni0342
Encoding: 834 834 215
Width: 0
GlyphClass: 2
Flags: MW
HStem: 660 38<-134 -90.5> 690 37<-233.5 -230.5>
VStem: -324 293<668 717>
LayerCount: 2
Fore
SplineSet
-313 653 m 1x60
 -324 668 l 1
 -286 707 -250 727 -217 727 c 0x60
 -202 727 -182 722 -156 712 c 0
 -131 703 -111 698 -98 698 c 0
 -83 698 -63 708 -40 729 c 1
 -31 717 l 1
 -68 679 -100 660 -127 660 c 0xa0
 -141 660 -159 665 -182 675 c 0
 -205 685 -223 690 -238 690 c 0
 -261 690 -286 678 -313 653 c 1x60
EndSplineSet
EndChar

StartChar: uni037E
Encoding: 894 894 216
Width: 249
GlyphClass: 2
Flags: MW
HStem: -153 21G<30 30> 340 116<135 165>
VStem: 93 116<383 412.5 382 413>
LayerCount: 2
Fore
SplineSet
204 125 m 1
 218 111 l 1
 190 34 152 -29 71 -134 c 1
 30 -153 l 1
 16 -142 l 1
 74 -46 99 19 106 95 c 1
 159 110 177 116 204 125 c 1
150 456 m 0
 181 456 209 428 209 397 c 0
 209 367 181 340 149 340 c 0
 120 340 93 368 93 398 c 0
 93 428 120 456 150 456 c 0
EndSplineSet
EndChar

StartChar: tonos
Encoding: 900 900 218
Width: 374
GlyphClass: 2
Flags: MW
HStem: 476 21G<150 150> 665 20G<192 192>
LayerCount: 2
Fore
SplineSet
134 482 m 1
 180 678 l 1
 192 685 l 1
 235 669 l 1
 241 656 l 1
 150 476 l 1
 134 482 l 1
EndSplineSet
EndChar

StartChar: dieresistonos
Encoding: 901 901 219
Width: 332
GlyphClass: 2
Flags: MW
HStem: 476 21G<122 122> 589 91<27.5 50.5 26 51 283 306> 665 20G<164 164>
VStem: -6 90<622 646.5> 249 90<622.5 648 622.5 648>
LayerCount: 2
Fore
SplineSet
106 482 m 1xb8
 152 678 l 1
 164 685 l 1
 207 669 l 1
 213 656 l 1
 122 476 l 1
 106 482 l 1xb8
-6 635 m 0
 -6 658 12 680 40 680 c 0
 61 680 84 663 84 635 c 0
 84 607 62 589 40 589 c 0xd8
 15 589 -6 609 -6 635 c 0
249 635 m 0
 249 661 269 680 294 680 c 0
 318 680 339 661 339 635 c 0
 339 610 318 589 294 589 c 0
 272 589 249 606 249 635 c 0
EndSplineSet
EndChar

StartChar: Alphatonos
Encoding: 902 902 220
Width: 777
GlyphClass: 2
Flags: MW
HStem: -3 33 229 40<240 493 240 511 223 493> 680 20G<192 192 376 408 408 408>
LayerCount: 2
Fore
SplineSet
135 497 m 1
 180 693 l 1
 192 700 l 1
 236 684 l 1
 242 671 l 1
 151 491 l 1
 135 497 l 1
408 700 m 1
 650 132 l 2
 685 51 696 34 722 30 c 2
 756 27 l 1
 756 -3 l 1
 648 0 648 0 629 0 c 0
 613 0 613 0 490 -3 c 1
 490 27 l 1
 537 30 l 2
 562 32 578 39 578 50 c 0
 578 59 574 72 557 114 c 2
 511 229 l 1
 223 229 l 1
 195 162 l 2
 174 112 160 69 160 56 c 0
 160 40 173 33 208 30 c 2
 245 27 l 1
 245 -3 l 1
 137 0 137 0 124 0 c 0
 108 0 108 0 15 -3 c 1
 15 27 l 1
 52 30 l 2
 74 32 94 50 106 79 c 2
 337 605 l 1
 376 700 l 1
 408 700 l 1
240 269 m 1
 493 269 l 1
 367 567 l 1
 240 269 l 1
EndSplineSet
EndChar

StartChar: anoteleia
Encoding: 903 903 221
Width: 216
GlyphClass: 2
Flags: MW
HStem: 327 126<89.5 126>
VStem: 45 127<374 405.5>
LayerCount: 2
Fore
SplineSet
45 390 m 0
 45 421 70 453 109 453 c 0
 147 453 172 423 172 390 c 0
 172 354 143 327 109 327 c 0
 70 327 45 358 45 390 c 0
EndSplineSet
EndChar

StartChar: Epsilontonos
Encoding: 904 904 222
Width: 755
GlyphClass: 2
Flags: MW
HStem: -3 42<499.5 505 434 549.5> 330 42<450 501> 650 42 669 20G<328 368.5>
VStem: 266 95<120 327 375 569 569 608.5> 650 35<537 567 537 602>
LayerCount: 2
Fore
SplineSet
22 489 m 1xec
 68 685 l 1
 80 692 l 1
 123 676 l 1
 129 663 l 1
 38 483 l 1
 22 489 l 1xec
701 0 m 1
 565 -3 565 -3 534 -3 c 0
 465 -3 349 0 302 0 c 0
 274 0 245 -1 179 -3 c 1
 179 27 l 1
 215 30 l 2
 262 34 266 41 266 120 c 2
 266 569 l 2
 266 648 261 656 215 659 c 2
 167 662 l 1
 167 692 l 1xdc
 266 690 311 689 345 689 c 0
 392 689 484 692 577 692 c 0xec
 621 692 652 691 701 689 c 1xdc
 690 645 685 597 685 537 c 1
 650 537 l 1
 650 602 l 2
 650 625 647 630 623 636 c 0
 591 645 535 650 478 650 c 0
 409 650 392 649 361 642 c 1
 361 375 l 1
 395 373 429 372 471 372 c 0
 537 372 565 375 583 383 c 1
 587 391 590 400 591 409 c 2
 596 461 l 1
 626 461 l 1
 623 361 623 361 623 345 c 0
 623 327 623 327 626 234 c 1
 596 234 l 1
 591 293 l 1
 583 318 l 1
 565 327 538 330 464 330 c 0
 419 330 389 329 361 327 c 1
 361 47 l 1
 390 41 408 39 460 39 c 0
 550 39 623 44 644 51 c 0
 672 61 681 155 682 164 c 1
 717 164 l 1
 707 112 701 58 701 0 c 1
EndSplineSet
EndChar

StartChar: Etatonos
Encoding: 905 905 223
Width: 987
GlyphClass: 2
Flags: MW
HStem: -3 21G<178 178 472 472 674 674 966 966> 0 30 345 44<436 690 456 690> 659 33 669 20G<299 350 795 846>
VStem: 178 194<-3 120 27 120> 278 94<120 343 391 569> 278 194<-3 569> 674 194<-3 120 27 120> 772 96<120 343 343 343 391 569> 772 194<-3 343>
LayerCount: 2
Fore
SplineSet
22 489 m 1x7420
 68 685 l 1
 80 692 l 1
 122 676 l 1
 128 663 l 1
 38 483 l 1
 22 489 l 1x7420
772 120 m 2
 772 343 l 1
 746 345 730 345 690 345 c 2
 456 345 l 2
 416 345 400 345 372 343 c 1
 372 120 l 2
 372 41 378 33 424 30 c 2x7280
 472 27 l 1
 472 -3 l 1
 412 -1 376 0 324 0 c 0x7480
 272 0 238 -1 178 -3 c 1
 178 27 l 1x6c80
 226 30 l 2
 272 33 278 41 278 120 c 2
 278 569 l 2x7180
 278 648 272 656 226 659 c 2
 178 662 l 1
 178 692 l 1
 250 690 274 689 324 689 c 0x7440
 376 689 398 689 472 692 c 1
 472 662 l 1x7480
 424 659 l 2
 378 656 372 648 372 569 c 2
 372 391 l 1
 392 390 414 389 456 389 c 2
 690 389 l 2
 730 389 752 390 772 391 c 1
 772 569 l 2x6c80
 772 648 768 656 722 659 c 2
 674 662 l 1
 674 692 l 1
 746 690 770 689 820 689 c 0x7420
 872 689 894 689 966 692 c 1
 966 662 l 1x7480
 918 659 l 2
 872 656 868 648 868 569 c 2
 868 120 l 2
 868 41 872 33 918 30 c 2xb420
 966 27 l 1
 966 -3 l 1
 908 -1 872 0 820 0 c 0x7480
 768 0 732 -1 674 -3 c 1
 674 27 l 1xb480
 722 30 l 2
 768 33 772 41 772 120 c 2
EndSplineSet
EndChar

StartChar: Iotatonos
Encoding: 906 906 224
Width: 476
GlyphClass: 2
Flags: MW
HStem: -3 21G<162 162 455 455> 0 30 659 33 669 20G<283 334>
VStem: 162 194<-3 120 27 120> 261 95<120 569> 261 194<-3 569>
LayerCount: 2
Fore
SplineSet
22 489 m 1x68
 68 685 l 1
 80 692 l 1
 122 676 l 1
 128 663 l 1
 38 483 l 1
 22 489 l 1x68
356 569 m 2
 356 120 l 2
 356 41 361 33 407 30 c 2x68
 455 27 l 1
 455 -3 l 1
 396 -1 360 0 308 0 c 0xa8
 256 0 221 -1 162 -3 c 1
 162 27 l 1x64
 210 30 l 2
 256 33 261 41 261 120 c 2
 261 569 l 2x68
 261 648 256 656 210 659 c 2
 162 662 l 1
 162 692 l 1
 234 690 258 689 308 689 c 0x58
 360 689 382 689 455 692 c 1
 455 662 l 1x62
 407 659 l 2
 361 656 356 648 356 569 c 2
EndSplineSet
EndChar

StartChar: Omicrontonos
Encoding: 908 908 225
Width: 863
GlyphClass: 2
Flags: MW
HStem: -20 42<404 560> 667 42<381 548.5>
VStem: 100 107<271 451> 735 107<257 441>
LayerCount: 2
Fore
SplineSet
22 506 m 1
 67 702 l 1
 79 709 l 1
 123 693 l 1
 129 680 l 1
 38 500 l 1
 22 506 l 1
480 709 m 0
 702 709 842 577 842 367 c 0
 842 147 672 -20 448 -20 c 0
 246 -20 100 131 100 341 c 0
 100 561 252 709 480 709 c 0
463 667 m 0
 299 667 207 563 207 378 c 0
 207 164 320 22 488 22 c 0
 643 22 735 139 735 337 c 0
 735 545 634 667 463 667 c 0
EndSplineSet
EndChar

StartChar: Upsilontonos
Encoding: 910 910 226
Width: 854
GlyphClass: 2
Flags: MW
HStem: -4 21G<349 349 625 625> 622 69<251 317>
VStem: 443 35<316 316 316 320>
LayerCount: 2
Fore
SplineSet
3 488 m 1
 49 684 l 1
 61 691 l 1
 103 675 l 1
 109 662 l 1
 19 482 l 1
 3 488 l 1
855 564 m 2
 854 546 l 1
 838 537 l 1
 829 591 798 619 744 619 c 0
 703 619 664 599 634 573 c 0
 541 494 532 342 532 229 c 0
 532 199 529 57 543 41 c 0
 554 29 608 28 625 27 c 1
 628 24 l 1
 628 0 l 1
 625 -4 l 1
 579 -2 533 0 485 0 c 0
 440 0 395 -1 349 -4 c 1
 345 0 l 1
 345 24 l 1
 349 27 l 1
 364 27 422 28 432 41 c 0
 445 59 443 198 443 229 c 2
 443 267 l 2
 443 373 386 622 248 622 c 0
 194 622 166 589 140 547 c 1
 131 546 l 1
 123 558 l 1
 156 631 208 691 294 691 c 0
 464 691 473 437 478 316 c 1
 503 316 l 1
 515 461 546 691 740 691 c 0
 818 691 859 639 855 564 c 2
EndSplineSet
EndChar

StartChar: Omegatonos
Encoding: 911 911 227
Width: 904
GlyphClass: 2
Flags: MW
HStem: -6 81 677 27<404 596> 689 20G<91 91>
VStem: 131 105<326 464.5 306 509.5> 749 106<325.5 459>
LayerCount: 2
Fore
SplineSet
34 506 m 1xb8
 79 702 l 1
 91 709 l 1
 135 693 l 1
 141 680 l 1
 50 500 l 1
 34 506 l 1xb8
871 145 m 1
 864 95 857 44 854 -6 c 1
 751 -2 646 -2 543 0 c 1
 543 68 l 1
 702 89 749 233 749 374 c 0
 749 544 693 677 499 677 c 0
 309 677 236 552 236 377 c 0
 236 235 281 89 442 68 c 1
 442 0 l 1
 339 -3 235 -2 132 -6 c 1
 127 44 121 95 114 145 c 1
 118 148 l 1
 133 148 l 1
 136 145 l 1
 149 93 149 75 209 75 c 2
 338 75 l 1
 338 82 l 1
 204 138 131 254 131 398 c 0
 131 621 298 704 499 704 c 0xd8
 698 704 855 614 855 398 c 0
 855 253 781 138 647 82 c 1
 647 75 l 1
 776 75 l 2
 836 75 836 92 849 145 c 1
 853 148 l 1
 867 148 l 1
 871 145 l 1
EndSplineSet
EndChar

StartChar: iotadieresistonos
Encoding: 912 912 228
Width: 318
GlyphClass: 2
Flags: MW
HStem: -16 57<142 222> 634 91<48.5 71.5 47 72 304 327> 710 20G<185 185>
VStem: 15 90<667 691.5> 270 90<667.5 693 667.5 693>
LayerCount: 2
Fore
SplineSet
127 527 m 1xb8
 173 723 l 1
 185 730 l 1
 228 714 l 1
 234 701 l 1
 143 521 l 1
 127 527 l 1xb8
15 680 m 0
 15 703 33 725 61 725 c 0
 82 725 105 708 105 680 c 0
 105 652 83 634 61 634 c 0xd8
 36 634 15 654 15 680 c 0
270 680 m 0
 270 706 290 725 315 725 c 0
 339 725 360 706 360 680 c 0
 360 655 339 634 315 634 c 0
 293 634 270 651 270 680 c 0
305 83 m 1
 304 75 l 1
 274 45 209 -16 160 -16 c 0
 124 -16 101 7 96 43 c 0
 88 100 109 293 102 449 c 1
 128 454 155 461 178 473 c 1
 189 460 l 1
 171 379 152 165 165 85 c 0
 168 63 182 41 207 41 c 0
 237 41 271 75 289 93 c 1
 299 91 l 1
 305 83 l 1
EndSplineSet
EndChar

StartChar: Alpha
Encoding: 913 913 229
Width: 777
GlyphClass: 2
Flags: MW
TopRightVertex: 1  700,-82
BottomRightVertex: 2  -200,49 -100,222
HStem: -3 33 229 40<240 493 240 511 223 493> 680 20G<376 408 408 408>
LayerCount: 2
Fore
SplineSet
408 700 m 1
 650 132 l 2
 685 51 696 34 722 30 c 2
 756 27 l 1
 756 -3 l 1
 648 0 648 0 629 0 c 0
 613 0 613 0 490 -3 c 1
 490 27 l 1
 537 30 l 2
 562 32 578 39 578 50 c 0
 578 59 574 72 557 114 c 2
 511 229 l 1
 223 229 l 1
 195 162 l 2
 174 112 160 69 160 56 c 0
 160 40 173 33 208 30 c 2
 245 27 l 1
 245 -3 l 1
 137 0 137 0 124 0 c 0
 108 0 108 0 15 -3 c 1
 15 27 l 1
 52 30 l 2
 74 32 94 50 106 79 c 2
 337 605 l 1
 376 700 l 1
 408 700 l 1
240 269 m 1
 493 269 l 1
 367 567 l 1
 240 269 l 1
EndSplineSet
AlternateSubs2: "'ssty' Math Script Style lookup 4 subtable" glyph3682 glyph3708
EndChar

StartChar: Beta
Encoding: 914 914 230
Width: 610
GlyphClass: 2
Flags: MW
TopAccentHorizontal: 301
TopRightVertex: 1  692,100
BottomRightVertex: 1  0,49
HStem: -3 42<279.5 344.5 270.5 403> 364 35<265.5 326 260.5 342.5> 652 40<338 342.5> 669 20G<174.5 191.5>
VStem: 113 95<95 362 47 401 401 569 569 608.5> 443 99<530 574.5> 473 69 473 103<181 253.5 181 261.5>
LayerCount: 2
Fore
SplineSet
298 -3 m 0xe9
 261 -3 199 0 174 0 c 0
 155 0 134 -1 65 -3 c 1
 65 20 l 1
 91 30 l 2
 105 36 113 58 113 95 c 2
 113 569 l 2
 113 648 109 655 62 659 c 2
 26 662 l 1
 26 692 l 1
 165 689 165 689 184 689 c 0xdc
 199 689 199 689 338 692 c 2
 363 692 l 2
 479 692 542 644 542 556 c 0xea
 542 504 517 461 469 428 c 0
 441 409 418 400 369 390 c 1
 446 384 480 375 518 347 c 0
 556 320 576 279 576 228 c 0
 576 134 508 -3 298 -3 c 0xe9
208 362 m 1
 208 47 l 1
 233 41 256 39 285 39 c 0
 404 39 473 102 473 208 c 0
 473 315 410 364 275 364 c 0
 256 364 247 364 208 362 c 1
208 644 m 1
 208 401 l 1
 239 399 252 399 269 399 c 0
 383 399 443 446 443 533 c 0xea
 443 616 396 652 289 652 c 0
 257 652 234 650 208 644 c 1
EndSplineSet
AlternateSubs2: "'ssty' Math Script Style lookup 4 subtable" glyph3683 glyph3709
EndChar

StartChar: Gamma
Encoding: 915 915 231
Width: 555
GlyphClass: 2
Flags: MW
TopAccentHorizontal: 279
TopRightVertex: 1  692,100
BottomRightVertex: 1  0,49
HStem: -3 21G<22 22 315 315> 0 30 659 33 669 20G<162.5 224.5>
VStem: 22 194<-3 120 27 120> 121 95<120 569 569 610> 485 35<537 562.5 537 602>
LayerCount: 2
Fore
SplineSet
536 689 m 1x5a
 525 645 520 588 520 537 c 1
 485 537 l 1
 485 602 l 2
 485 615 484 626 476 629 c 0
 423 649 344 650 300 650 c 0
 273 650 244 649 216 642 c 1
 216 120 l 2
 216 38 224 32 267 30 c 2x6a
 315 27 l 1
 315 -3 l 1
 263 -1 216 0 170 0 c 0xaa
 121 0 74 -1 22 -3 c 1
 22 27 l 1x66
 70 30 l 2
 113 32 121 40 121 120 c 2
 121 569 l 2x6a
 121 651 113 657 70 659 c 2
 22 662 l 1
 22 692 l 1x5a
 77 691 134 689 191 689 c 0
 258 689 350 692 407 692 c 0x6a
 452 692 497 691 536 689 c 1x5a
EndSplineSet
AlternateSubs2: "'ssty' Math Script Style lookup 4 subtable" glyph3654 glyph3663
EndChar

StartChar: Delta
Encoding: 916 916 232
Width: 688
GlyphClass: 2
Flags: MW
TopRightVertex: 1  697,-81
BottomRightVertex: 1  0,49
HStem: -4 21G<34 34 656 656> 0 37<299.5 403.5> 677 20G<337 362 362 362>
LayerCount: 2
Fore
SplineSet
27 6 m 1xa0
 92 128 294 590 337 697 c 1
 362 697 l 1
 662 6 l 1
 656 -4 l 1
 555 -1 454 0 353 0 c 0x60
 246 0 140 0 34 -4 c 1
 27 6 l 1xa0
537 37 m 1xa0
 472 215 400 391 325 564 c 1
 318 564 l 1
 242 389 171 215 105 37 c 1
 537 37 l 1xa0
EndSplineSet
AlternateSubs2: "'ssty' Math Script Style lookup 4 subtable" glyph3655 glyph3664
EndChar

StartChar: Epsilon
Encoding: 917 917 233
Width: 610
GlyphClass: 2
Flags: MW
TopAccentHorizontal: 297
TopRightVertex: 1  692,100
BottomRightVertex: 1  0,49
HStem: -3 42<354 360 289 404.5> 330 42<305 356> 650 42 669 20G<183 223>
VStem: 121 95<120 327 375 569 569 608.5> 505 35<537 567 537 602>
LayerCount: 2
Fore
SplineSet
556 0 m 1xec
 420 -3 420 -3 389 -3 c 0
 319 -3 203 0 157 0 c 0
 129 0 100 -1 34 -3 c 1
 34 27 l 1
 70 30 l 2
 117 34 121 41 121 120 c 2
 121 569 l 2
 121 648 116 656 70 659 c 2
 22 662 l 1
 22 692 l 1xdc
 121 690 166 689 200 689 c 0
 246 689 339 692 432 692 c 0xec
 476 692 507 691 556 689 c 1xdc
 545 645 540 597 540 537 c 1
 505 537 l 1
 505 602 l 2
 505 625 502 630 478 636 c 0
 446 645 390 650 333 650 c 0
 264 650 247 649 216 642 c 1
 216 375 l 1
 250 373 284 372 326 372 c 0
 392 372 420 375 438 383 c 1
 442 391 445 400 446 409 c 2
 451 461 l 1
 481 461 l 1
 478 361 478 361 478 345 c 0
 478 327 478 327 481 234 c 1
 451 234 l 1
 446 293 l 1
 438 318 l 1
 420 327 393 330 319 330 c 0
 274 330 244 329 216 327 c 1
 216 47 l 1
 245 41 263 39 315 39 c 0
 405 39 478 44 499 51 c 0
 527 61 536 155 537 164 c 1
 572 164 l 1
 562 112 556 58 556 0 c 1xec
EndSplineSet
AlternateSubs2: "'ssty' Math Script Style lookup 4 subtable" glyph3686 glyph3712
EndChar

StartChar: Zeta
Encoding: 918 918 234
Width: 666
GlyphClass: 2
Flags: MW
TopAccentHorizontal: 326
TopRightVertex: 1  692,100
BottomRightVertex: 1  0,49
HStem: -3 21G<15 15 632 632> -1 45 648 42 669 20G<427 477 477 477> 672 20G<80 80 633 633>
LayerCount: 2
Fore
SplineSet
637 663 m 1x48
 151 44 l 1
 424 44 l 2x60
 577 44 591 50 598 116 c 2
 604 173 l 1
 638 173 l 1
 633 118 632 83 632 -3 c 1
 355 0 l 1
 327 0 l 1
 15 -3 l 1
 15 25 l 1
 500 648 l 1
 272 648 l 2xa0
 150 648 123 640 120 601 c 2
 114 530 l 1
 80 530 l 1
 82 567 83 585 83 611 c 0
 83 637 82 655 80 692 c 1x48
 245 691 l 1
 427 689 l 1
 477 689 l 1x50
 633 692 l 1
 637 663 l 1x48
EndSplineSet
AlternateSubs2: "'ssty' Math Script Style lookup 4 subtable" glyph3707 glyph3733
EndChar

StartChar: Eta
Encoding: 919 919 235
Width: 831
GlyphClass: 2
Flags: MW
TopAccentHorizontal: 416
TopRightVertex: 1  692,100
BottomRightVertex: 1  0,49
HStem: -3 21G<22 22 315 315 517 517 810 810> 0 30 345 44<279 533 299 533> 659 33 669 20G<143 194 638 689>
VStem: 22 194<-3 120 27 120> 121 95<120 343 391 569> 121 194<-3 569> 517 194<-3 120 27 120> 616 95<120 343 343 343 391 569> 616 194<-3 343>
LayerCount: 2
Fore
SplineSet
616 120 m 2x7420
 616 343 l 1
 589 345 573 345 533 345 c 2
 299 345 l 2
 259 345 243 345 216 343 c 1
 216 120 l 2
 216 41 221 33 267 30 c 2x7280
 315 27 l 1
 315 -3 l 1
 256 -1 220 0 168 0 c 0x7480
 116 0 81 -1 22 -3 c 1
 22 27 l 1x6c80
 70 30 l 2
 116 33 121 41 121 120 c 2
 121 569 l 2x7180
 121 648 116 656 70 659 c 2
 22 662 l 1
 22 692 l 1
 94 690 118 689 168 689 c 0x7440
 220 689 242 689 315 692 c 1
 315 662 l 1x7480
 267 659 l 2
 221 656 216 648 216 569 c 2
 216 391 l 1
 236 390 258 389 299 389 c 2
 533 389 l 2
 574 389 595 390 616 391 c 1
 616 569 l 2x6c80
 616 648 611 656 565 659 c 2
 517 662 l 1
 517 692 l 1
 589 690 613 689 663 689 c 0x7420
 715 689 737 689 810 692 c 1
 810 662 l 1x7480
 762 659 l 2
 716 656 711 648 711 569 c 2
 711 120 l 2
 711 41 716 33 762 30 c 2xb420
 810 27 l 1
 810 -3 l 1
 751 -1 715 0 663 0 c 0x7480
 611 0 576 -1 517 -3 c 1
 517 27 l 1xb480
 565 30 l 2
 611 33 616 41 616 120 c 2x7420
EndSplineSet
AlternateSubs2: "'ssty' Math Script Style lookup 4 subtable" glyph3689 glyph3715
EndChar

StartChar: Theta
Encoding: 920 920 236
Width: 785
GlyphClass: 2
Flags: MW
TopAccentHorizontal: 393
TopRightVertex: 1  709,100
BottomRightVertex: 1  0,49
HStem: -20 42<310 486.5> 327 73<277 482 304 482> 667 42<295 475>
VStem: 22 107<293.5 447> 657 107<259.5 435>
LayerCount: 2
Fore
SplineSet
764 367 m 0
 764 152 596 -20 377 -20 c 0
 174 -20 22 120 22 344 c 0
 22 550 166 709 398 709 c 0
 612 709 764 589 764 367 c 0
657 336 m 0
 657 534 568 667 382 667 c 0
 208 667 129 545 129 381 c 0
 129 206 211 22 409 22 c 0
 576 22 657 152 657 336 c 0
238 481 m 1
 252 462 236 400 304 400 c 2
 482 400 l 2
 537 400 536 433 545 477 c 1
 549 481 l 1
 563 481 l 1
 566 477 l 1
 565 401 565 325 566 249 c 1
 563 245 l 1
 549 245 l 1
 545 249 l 1
 536 294 537 327 482 327 c 2
 304 327 l 2
 250 327 251 294 241 249 c 1
 238 245 l 1
 223 245 l 1
 220 249 l 1
 221 325 221 401 220 477 c 1
 223 481 l 1
 238 481 l 1
EndSplineSet
AlternateSubs2: "'ssty' Math Script Style lookup 4 subtable" glyph3656 glyph3665
EndChar

StartChar: Iota
Encoding: 921 921 237
Width: 336
GlyphClass: 2
Flags: MW
TopAccentHorizontal: 168
TopRightVertex: 1  692,100
BottomRightVertex: 1  0,49
HStem: -3 21G<22 22 315 315> 0 30 659 33 669 20G<143 194>
VStem: 22 194<-3 120 27 120> 121 95<120 569> 121 194<-3 569>
LayerCount: 2
Fore
SplineSet
216 569 m 2x68
 216 120 l 2
 216 41 221 33 267 30 c 2x68
 315 27 l 1
 315 -3 l 1
 256 -1 220 0 168 0 c 0xa8
 116 0 81 -1 22 -3 c 1
 22 27 l 1x64
 70 30 l 2
 116 33 121 41 121 120 c 2
 121 569 l 2x68
 121 648 116 656 70 659 c 2
 22 662 l 1
 22 692 l 1
 94 690 118 689 168 689 c 0x58
 220 689 242 689 315 692 c 1
 315 662 l 1x62
 267 659 l 2
 221 656 216 648 216 569 c 2x68
EndSplineSet
AlternateSubs2: "'ssty' Math Script Style lookup 4 subtable" glyph3690 glyph3716
EndChar

StartChar: Kappa
Encoding: 922 922 238
Width: 725
GlyphClass: 2
Flags: MW
TopAccentHorizontal: 370
TopRightVertex: 1  692,100
BottomRightVertex: 1  0,49
HStem: -3 33 661 31 669 20G<143 194 605 620.5>
VStem: 22 194<-3 120 27 120> 121 95<120 325 355 569> 121 194<-3 569>
LayerCount: 2
Fore
SplineSet
216 325 m 1xd0
 216 120 l 2xc8
 216 41 221 33 267 30 c 2
 315 27 l 1
 315 -3 l 1
 256 -1 220 0 168 0 c 0
 116 0 81 -1 22 -3 c 1
 22 27 l 1xd0
 70 30 l 2
 116 33 121 41 121 120 c 2
 121 569 l 2xb0
 121 648 116 656 70 659 c 2
 22 662 l 1
 22 692 l 1
 94 690 118 689 168 689 c 0xc4
 220 689 242 689 315 692 c 1
 315 662 l 1xd0
 267 659 l 2
 221 656 216 648 216 569 c 2
 216 355 l 1
 494 626 l 2
 510 642 523 659 523 665 c 2
 523 692 l 1
 581 690 598 689 612 689 c 0xb0
 629 689 629 689 692 692 c 1
 692 662 l 1
 650 660 l 2
 624 659 599 646 572 622 c 2
 306 382 l 1
 636 70 l 2
 667 41 683 30 698 29 c 2
 719 27 l 1
 719 -3 l 1
 669 0 667 0 654 0 c 0
 644 0 644 0 574 -3 c 1
 226 332 l 1
 216 325 l 1xd0
EndSplineSet
AlternateSubs2: "'ssty' Math Script Style lookup 4 subtable" glyph3692 glyph3718
EndChar

StartChar: Lambda
Encoding: 923 923 239
Width: 753
GlyphClass: 2
Flags: MW
TopAccentHorizontal: 373
TopRightVertex: 1  697,-58
BottomRightVertex: 1  0,49
HStem: -4 21G<228 228 474 474 726 726> 0 29<17 32> 677 20G<383 403 403 403>
LayerCount: 2
Fore
SplineSet
729 0 m 1x60
 726 -4 l 1
 686 -2 647 0 607 0 c 0x60
 563 0 519 -1 474 -4 c 1xa0
 471 0 l 1
 471 25 l 1
 474 29 l 1
 491 29 557 24 557 52 c 0
 557 77 503 208 493 234 c 2
 364 559 l 1
 357 559 l 1
 347 535 158 95 158 54 c 0
 158 27 213 29 228 29 c 1
 233 25 l 1
 233 0 l 1x60
 228 -4 l 1xa0
 194 -2 159 0 123 0 c 0
 89 0 56 -2 21 -3 c 1
 17 0 l 1
 17 25 l 1
 21 29 l 1
 43 29 68 28 85 42 c 0
 122 71 366 659 383 697 c 1
 403 697 l 1
 411 677 645 74 682 41 c 0
 695 30 709 31 726 29 c 1
 729 25 l 1
 729 0 l 1x60
EndSplineSet
AlternateSubs2: "'ssty' Math Script Style lookup 4 subtable" glyph3657 glyph3666
EndChar

StartChar: Mu
Encoding: 924 924 240
Width: 945
GlyphClass: 2
Flags: MW
TopAccentHorizontal: 471
TopRightVertex: 1  692,100
BottomRightVertex: 1  0,49
HStem: 0 30 659 33 669 20G<103.5 118.5 819.5 835.5>
VStem: 16 141<-3 120 27 120> 111 46<120 569 569 578> 732 95<120 569> 732 194<-3 578>
LayerCount: 2
Fore
SplineSet
732 120 m 2xd2
 732 578 l 1
 714 544 702 521 688 492 c 2
 510 114 l 2
 492 77 468 12 456 -13 c 1
 436 -13 l 1xcc
 157 578 l 1
 157 120 l 2
 157 42 162 33 208 30 c 2
 252 27 l 1
 252 -3 l 1
 147 0 147 0 132 0 c 0
 115 0 115 0 16 -3 c 1
 16 27 l 1xd4
 60 30 l 2
 106 33 111 42 111 120 c 2
 111 569 l 2xac
 111 647 106 656 60 659 c 2
 16 662 l 1
 16 692 l 1
 96 689 96 689 111 689 c 0xd4
 126 689 126 689 206 692 c 1
 470 136 l 1
 732 692 l 1
 812 689 812 689 827 689 c 0xb4
 844 689 844 689 920 692 c 1
 920 662 l 1
 878 659 l 2
 832 656 827 647 827 569 c 2
 827 120 l 2xd4
 827 41 832 33 878 30 c 2
 926 27 l 1
 926 -3 l 1
 867 -1 831 0 775 0 c 0
 723 0 693 -1 647 -3 c 1
 647 27 l 1
 681 30 l 2
 728 34 732 41 732 120 c 2xd2
EndSplineSet
AlternateSubs2: "'ssty' Math Script Style lookup 4 subtable" glyph3694 glyph3720
EndChar

StartChar: Nu
Encoding: 925 925 241
Width: 830
GlyphClass: 2
Flags: MW
TopAccentHorizontal: 415
TopRightVertex: 1  692,100
BottomRightVertex: 1  0,49
HStem: -20 21G<721 721> -3 33 659 30 672 20G<17 17 191 191 577 577 813 813>
VStem: 17 141<-3 120 27 120> 112 46<120 569 569 583> 672 46<98 569>
LayerCount: 2
Fore
SplineSet
137 689 m 1x6a
 191 692 l 1x6a
 672 98 l 1
 672 569 l 2
 672 647 667 656 621 659 c 2x5a
 577 662 l 1
 577 692 l 1
 676 689 676 689 693 689 c 0x6a
 708 689 708 689 813 692 c 1x5a
 813 662 l 1
 769 659 l 2
 723 656 718 647 718 569 c 2
 718 17 l 2
 718 6 721 -13 721 -20 c 1xaa
 631 -4 l 1
 158 583 l 1
 158 120 l 2
 158 42 163 33 209 30 c 2
 253 27 l 1
 253 -3 l 1
 148 0 148 0 133 0 c 0
 116 0 116 0 17 -3 c 1
 17 27 l 1x6a
 61 30 l 2
 107 33 112 42 112 120 c 2
 112 569 l 2
 112 647 107 656 61 659 c 2x66
 17 662 l 1
 17 692 l 1x5a
 72 690 81 690 137 689 c 1x6a
EndSplineSet
AlternateSubs2: "'ssty' Math Script Style lookup 4 subtable" glyph3695 glyph3721
EndChar

StartChar: Xi
Encoding: 926 926 242
Width: 692
GlyphClass: 2
Flags: MW
TopAccentHorizontal: 346
TopRightVertex: 1  689,100
BottomRightVertex: 1  0,49
HStem: -4 21G<67 67 624 624> 0 76<300 392.5> 327 73<235.5 429 263 429> 615 74<159.5 204 204 487>
LayerCount: 2
Fore
SplineSet
612 505 m 1x70
 608 502 l 1
 588 499 l 1
 584 503 l 1
 572 581 578 615 487 615 c 2
 204 615 l 2
 115 615 121 582 108 503 c 1
 103 499 l 1
 84 502 l 1
 81 505 l 1
 84 565 87 626 85 686 c 1
 87 689 l 1
 260 685 433 685 605 689 c 1
 607 686 l 1
 606 647 l 2
 605 600 608 553 612 505 c 1x70
197 484 m 1
 211 466 192 400 263 400 c 2
 429 400 l 2
 485 400 484 436 493 480 c 1
 496 484 l 1
 511 484 l 1
 514 480 l 1
 513 402 513 325 514 246 c 1
 511 243 l 1
 496 243 l 1
 482 257 500 327 429 327 c 2
 263 327 l 2
 208 327 208 291 200 246 c 1
 197 243 l 1
 182 243 l 1
 178 246 l 1
 180 325 180 402 178 480 c 1
 182 484 l 1
 197 484 l 1
651 189 m 1
 641 127 634 63 628 0 c 1xb0
 624 -4 l 1
 532 -2 439 0 346 0 c 0x70
 254 0 161 -2 67 -4 c 1xb0
 64 0 l 1
 59 63 52 127 42 189 c 1
 46 194 l 1
 66 194 l 1
 71 189 l 1
 95 106 94 76 189 76 c 2
 503 76 l 2
 598 76 598 107 622 189 c 1
 626 194 l 1
 646 194 l 1
 651 189 l 1
EndSplineSet
AlternateSubs2: "'ssty' Math Script Style lookup 4 subtable" glyph3658 glyph3667
EndChar

StartChar: Omicron
Encoding: 927 927 243
Width: 785
GlyphClass: 2
Flags: MW
TopAccentHorizontal: 393
TopRightVertex: 1  709,100
BottomRightVertex: 1  0,49
HStem: -20 42<326 482> 667 42<303 470.5>
VStem: 22 107<271 451> 657 107<257 441>
LayerCount: 2
Fore
SplineSet
402 709 m 0
 624 709 764 577 764 367 c 0
 764 147 594 -20 370 -20 c 0
 168 -20 22 131 22 341 c 0
 22 561 174 709 402 709 c 0
385 667 m 0
 221 667 129 563 129 378 c 0
 129 164 242 22 410 22 c 0
 565 22 657 139 657 337 c 0
 657 545 556 667 385 667 c 0
EndSplineSet
AlternateSubs2: "'ssty' Math Script Style lookup 4 subtable" glyph3696 glyph3722
EndChar

StartChar: Pi
Encoding: 928 928 244
Width: 812
GlyphClass: 2
Flags: MW
TopAccentHorizontal: 406
TopRightVertex: 1  689,100
BottomRightVertex: 1  0,49
HStem: -4 21G<28 28 304 304 509 509 784 784> 0 27<25 28> 647 39 669 20G<28 28 784 784>
VStem: 122 89<211 220 220 479 479 493> 602 90<214 475>
LayerCount: 2
Fore
SplineSet
788 0 m 1x6c
 784 -4 l 1
 740 -3 695 0 649 0 c 0x6c
 603 0 556 -2 509 -4 c 1xac
 505 0 l 1
 505 24 l 1
 509 27 l 1
 525 28 581 29 592 41 c 0
 605 57 602 186 602 214 c 2
 602 647 l 1
 211 648 l 1
 211 220 l 2
 211 192 208 56 222 41 c 0
 234 28 287 28 304 27 c 1
 308 24 l 1
 308 0 l 1x6c
 304 -4 l 1
 259 -3 214 0 169 0 c 0xac
 122 0 76 -2 28 -4 c 1x6c
 25 0 l 1
 25 24 l 1
 28 27 l 1
 45 28 99 28 111 41 c 0
 124 57 122 182 122 211 c 2
 122 479 l 2
 122 507 125 630 109 646 c 0
 97 658 44 658 28 659 c 1
 25 662 l 1
 25 686 l 1x5c
 28 689 l 1
 148 688 268 686 388 686 c 0x6c
 520 686 653 686 784 689 c 1x5c
 788 686 l 1
 788 662 l 1
 784 659 l 1
 767 658 716 659 703 646 c 0
 688 632 692 502 692 475 c 2
 692 209 l 2
 692 183 689 56 703 41 c 0
 715 29 768 28 784 27 c 1
 788 24 l 1
 788 0 l 1x6c
EndSplineSet
AlternateSubs2: "'ssty' Math Script Style lookup 4 subtable" glyph3659 glyph3668
EndChar

StartChar: Rho
Encoding: 929 929 245
Width: 603
GlyphClass: 2
Flags: MW
TopAccentHorizontal: 301
TopRightVertex: 1  692,100
BottomRightVertex: 1  0,49
HStem: -3 21G<22 22 315 315> 0 30 324 32<328 375.5 321.5 406.5> 654 38<366.5 368>
VStem: 23 193 121 95<120 569 569 606> 480 100<477 556.5>
LayerCount: 2
Fore
SplineSet
23 692 m 1x7a
 183 689 183 689 205 689 c 0x7a
 307 689 358 692 375 692 c 0
 502 692 580 633 580 537 c 0
 580 417 475 324 338 324 c 0
 318 324 304 325 280 330 c 1
 270 366 l 1
 296 358 311 356 332 356 c 0
 419 356 480 419 480 509 c 0
 480 604 422 654 314 654 c 0
 280 654 251 650 216 642 c 1
 216 120 l 2
 216 41 221 33 267 30 c 2xba
 315 27 l 1
 315 -3 l 1
 256 -1 220 0 168 0 c 0x7a
 116 0 81 -1 22 -3 c 1xba
 22 27 l 1
 70 30 l 2
 116 33 121 41 121 120 c 2
 121 569 l 2x76
 121 643 113 656 68 659 c 2
 23 662 l 1
 23 692 l 1x7a
EndSplineSet
AlternateSubs2: "'ssty' Math Script Style lookup 4 subtable" glyph3697 glyph3723
EndChar

StartChar: Sigma
Encoding: 931 931 246
Width: 684
GlyphClass: 2
Flags: MW
TopAccentHorizontal: 344
TopRightVertex: 1  689,100
BottomRightVertex: 1  0,49
HStem: -4 21G<45 45> 0 76<281 378.5> 644 37 669 20G<584 584>
LayerCount: 2
Fore
SplineSet
643 193 m 1x60
 637 127 634 62 633 -4 c 1
 531 -2 429 0 328 0 c 0x60
 234 0 140 -2 45 -4 c 1
 45 15 l 1
 95 69 237 275 272 340 c 1
 207 451 138 562 62 665 c 1
 62 681 l 1xa0
 236 682 411 681 584 689 c 1x50
 588 683 l 1
 581 636 579 587 576 540 c 1
 573 536 l 1
 555 536 l 1
 549 540 l 1
 536 629 533 644 435 644 c 2
 182 644 l 1
 235 560 288 474 347 393 c 1
 276 291 208 184 144 76 c 1
 502 76 l 2
 597 76 599 111 618 193 c 1
 622 196 l 1
 640 196 l 1
 643 193 l 1x60
EndSplineSet
AlternateSubs2: "'ssty' Math Script Style lookup 4 subtable" glyph3660 glyph3669
EndChar

StartChar: Tau
Encoding: 932 932 247
Width: 612
GlyphClass: 2
Flags: MW
TopAccentHorizontal: 306
TopRightVertex: 1  692,100
BottomRightVertex: 1  0,49
HStem: -3 21G<160 160 453 453> 0 30 531 158 643 46<221 255 358 379 379 400.5 221 513 358 358> 672 20G<18 18>
VStem: 25 33 259 95<120 543> 555 33
CounterMasks: 1 38
LayerCount: 2
Fore
SplineSet
379 689 m 2x67
 422 689 401 689 595 692 c 1x67
 590 635 588 596 588 531 c 1
 557 531 l 1x57
 553 610 l 2
 552 634 541 643 513 643 c 2
 358 643 l 1
 355 610 354 588 354 543 c 2
 354 120 l 2
 354 41 359 33 405 30 c 2xa7
 453 27 l 1
 453 -3 l 1
 394 -1 358 0 306 0 c 0x67
 254 0 219 -1 160 -3 c 1xa7
 160 27 l 1
 208 30 l 2
 254 33 259 41 259 120 c 2
 259 543 l 2
 259 586 258 609 255 643 c 1
 100 643 l 2x57
 72 643 61 634 60 610 c 2
 56 531 l 1
 25 531 l 1x67
 25 596 23 635 18 692 c 1x4f
 86 691 l 2
 157 690 211 689 221 689 c 2
 379 689 l 2x67
EndSplineSet
AlternateSubs2: "'ssty' Math Script Style lookup 4 subtable" glyph3701 glyph3727
EndChar

StartChar: Upsilon
Encoding: 933 933 248
Width: 733
GlyphClass: 2
Flags: MW
TopAccentHorizontal: 369
TopRightVertex: 1  691,100
BottomRightVertex: 1  0,0
HStem: -4 21G<229 229 505 505> 622 69<131 197>
VStem: 323 35<316 316 316 320>
LayerCount: 2
Fore
SplineSet
735 564 m 2
 734 546 l 1
 718 537 l 1
 709 591 678 619 624 619 c 0
 583 619 544 599 514 573 c 0
 421 494 412 342 412 229 c 0
 412 199 409 57 423 41 c 0
 434 29 488 28 505 27 c 1
 508 24 l 1
 508 0 l 1
 505 -4 l 1
 459 -2 413 0 365 0 c 0
 320 0 275 -1 229 -4 c 1
 225 0 l 1
 225 24 l 1
 229 27 l 1
 244 27 302 28 312 41 c 0
 325 59 323 198 323 229 c 2
 323 267 l 2
 323 373 266 622 128 622 c 0
 74 622 46 589 20 547 c 1
 11 546 l 1
 3 558 l 1
 36 631 88 691 174 691 c 0
 344 691 353 437 358 316 c 1
 383 316 l 1
 395 461 426 691 620 691 c 0
 698 691 739 639 735 564 c 2
EndSplineSet
AlternateSubs2: "'ssty' Math Script Style lookup 4 subtable" glyph3661 glyph3670
EndChar

StartChar: Phi
Encoding: 934 934 249
Width: 755
GlyphClass: 2
Flags: MW
TopAccentHorizontal: 373
TopRightVertex: 1  689,100
BottomRightVertex: 1  0,-5
HStem: -4 21G<244 244 502 502> 0 27<238 244> 115 23<254 335> 560 25<256 335> 659 27<238 244> 669 20G<244 244 502 502>
VStem: 23 99<291 430 291 452> 335 77<104.5 115 104.5 115 138 560> 624 99<291.5 428.5>
LayerCount: 2
Fore
SplineSet
723 372 m 0x7b80
 723 176 587 115 412 115 c 1
 412 94 409 58 419 40 c 1
 435 29 484 28 502 27 c 1
 507 24 l 1
 507 0 l 1x7b80
 502 -4 l 1
 459 -2 416 0 373 0 c 0xbb80
 331 0 287 -1 244 -4 c 1x7b80
 238 0 l 1
 238 24 l 1
 244 27 l 1
 335 33 335 21 335 115 c 1
 173 115 23 172 23 358 c 0
 23 546 177 585 335 585 c 1
 332 669 323 654 244 659 c 1
 238 662 l 1
 238 686 l 1x7780
 244 689 l 1
 287 687 331 686 373 686 c 0x7b80
 416 686 459 687 502 689 c 1x7780
 507 686 l 1
 507 662 l 1
 502 659 l 1
 422 654 414 668 412 585 c 1
 559 585 723 555 723 372 c 0x7b80
624 359 m 0
 624 498 544 558 412 560 c 1
 412 138 l 1
 547 142 624 224 624 359 c 0
335 138 m 1
 335 560 l 1
 199 555 122 502 122 358 c 0
 122 224 200 142 335 138 c 1
EndSplineSet
AlternateSubs2: "'ssty' Math Script Style lookup 4 subtable" glyph3662 glyph3671
EndChar

StartChar: Chi
Encoding: 935 935 250
Width: 666
GlyphClass: 2
Flags: MW
TopAccentHorizontal: 331
TopRightVertex: 1  700,100
BottomRightVertex: 1  0,49
HStem: -3 21G<14 14 117 117 503 503 648 648> 669 20G<538 639 639 639> 680 20G<168 168>
LayerCount: 2
Fore
SplineSet
648 27 m 1xc0
 648 -3 l 1
 605 -1 582 0 577 0 c 0
 565 0 565 0 503 -3 c 1
 319 303 l 1
 294 268 284 254 274 239 c 2
 117 -3 l 1
 74 0 74 0 66 0 c 0
 58 0 58 0 14 -3 c 1
 14 27 l 1
 40 30 l 2
 62 33 74 44 99 78 c 0
 101 81 102 81 105 86 c 2
 294 341 l 1
 166 554 l 2
 133 609 98 642 74 644 c 2
 29 647 l 1
 27 673 l 1
 168 700 l 1xa0
 187 690 202 673 225 635 c 2
 353 419 l 1
 538 689 l 1
 639 689 l 1
 639 659 l 1
 598 656 l 2
 583 654 571 642 530 588 c 2
 376 380 l 1
 552 100 l 2
 587 46 599 33 618 30 c 2
 648 27 l 1xc0
EndSplineSet
AlternateSubs2: "'ssty' Math Script Style lookup 4 subtable" glyph3705 glyph3731
EndChar

StartChar: Psi
Encoding: 936 936 251
Width: 870
GlyphClass: 2
Flags: MW
TopAccentHorizontal: 435
TopRightVertex: 1  689,100
BottomRightVertex: 1  0,-10
HStem: -4 21G<297 297 573 573> 0 236<294 391 373.5 457 373.5 577> 207 29<391 391 479 479> 669 20G<24 24 297 297 573 573 845 845>
VStem: 391 88<203 207 203 207 236 465 465 468>
LayerCount: 2
Fore
SplineSet
852 672 m 1x58
 848 665 l 1
 798 647 800 660 788 595 c 0
 754 382 740 212 479 207 c 1x58
 479 199 474 54 494 39 c 0
 507 29 556 28 573 27 c 1
 577 24 l 1
 577 0 l 1xb8
 573 -4 l 1
 526 -2 480 0 434 0 c 0x58
 388 0 343 -1 297 -4 c 1xb8
 294 0 l 1x58
 294 24 l 1
 297 27 l 1
 314 28 367 28 379 41 c 0
 393 56 391 186 391 207 c 1xb8
 146 209 112 369 85 574 c 0
 75 659 67 650 22 665 c 1
 18 672 l 1
 20 684 l 1
 24 689 l 1
 46 686 140 680 155 668 c 0
 189 641 169 343 287 261 c 0
 317 241 356 236 391 236 c 1
 391 465 l 2
 391 495 394 628 379 645 c 0
 368 658 314 658 297 659 c 1
 294 662 l 1
 294 686 l 1
 297 689 l 1
 343 687 388 686 434 686 c 0
 480 686 526 687 573 689 c 1
 577 686 l 1
 577 662 l 1
 573 659 l 1
 557 658 501 658 491 645 c 0
 477 628 479 498 479 468 c 2
 479 236 l 1
 514 236 553 241 582 261 c 0
 702 343 681 641 716 668 c 0
 729 679 825 686 845 689 c 1
 851 684 l 1
 852 672 l 1x58
EndSplineSet
AlternateSubs2: "'ssty' Math Script Style lookup 4 subtable" glyph3652 glyph3672
EndChar

StartChar: Omega
Encoding: 937 937 252
Width: 824
GlyphClass: 2
Flags: MW
TopAccentHorizontal: 412
TopRightVertex: 1  704,100
BottomRightVertex: 1  0,49
HStem: -6 81 677 27<324 516>
VStem: 51 105<326 464.5 306 509.5> 669 106<325.5 459>
LayerCount: 2
Fore
SplineSet
791 145 m 1
 784 95 777 44 774 -6 c 1
 671 -2 566 -2 463 0 c 1
 463 68 l 1
 622 89 669 233 669 374 c 0
 669 544 613 677 419 677 c 0
 229 677 156 552 156 377 c 0
 156 235 201 89 362 68 c 1
 362 0 l 1
 259 -3 155 -2 52 -6 c 1
 47 44 41 95 34 145 c 1
 38 148 l 1
 53 148 l 1
 56 145 l 1
 69 93 69 75 129 75 c 2
 258 75 l 1
 258 82 l 1
 124 138 51 254 51 398 c 0
 51 621 218 704 419 704 c 0
 618 704 775 614 775 398 c 0
 775 253 701 138 567 82 c 1
 567 75 l 1
 696 75 l 2
 756 75 756 92 769 145 c 1
 773 148 l 1
 787 148 l 1
 791 145 l 1
EndSplineSet
AlternateSubs2: "'ssty' Math Script Style lookup 4 subtable" glyph3653 glyph3673
EndChar

StartChar: Iotadieresis
Encoding: 938 938 253
Width: 388
GlyphClass: 2
Flags: MW
HStem: -3 21G<50 50 343 343> 0 30 659 33 669 20G<171 222> 728 91<55.5 78.5 54 79 311 334>
VStem: 22 90<761 785.5> 50 194<-3 120 27 120> 149 95<120 569> 149 194<-3 569> 277 90<761.5 787 761.5 787>
LayerCount: 2
Fore
SplineSet
22 774 m 0x6d40
 22 797 40 819 68 819 c 0
 89 819 112 802 112 774 c 0
 112 746 90 728 68 728 c 0
 43 728 22 748 22 774 c 0x6d40
277 774 m 0
 277 800 297 819 322 819 c 0
 346 819 367 800 367 774 c 0
 367 749 346 728 322 728 c 0
 300 728 277 745 277 774 c 0
244 569 m 2x6a40
 244 120 l 2
 244 41 249 33 295 30 c 2x6d40
 343 27 l 1
 343 -3 l 1
 284 -1 248 0 196 0 c 0xaa40
 144 0 109 -1 50 -3 c 1
 50 27 l 1x6d40
 98 30 l 2
 144 33 149 41 149 120 c 2
 149 569 l 2x6a40
 149 648 144 656 98 659 c 2
 50 662 l 1
 50 692 l 1
 122 690 146 689 196 689 c 0x5d40
 248 689 270 689 343 692 c 1
 343 662 l 1x6c80
 295 659 l 2
 249 656 244 648 244 569 c 2x6a40
EndSplineSet
EndChar

StartChar: Upsilondieresis
Encoding: 939 939 254
Width: 733
GlyphClass: 2
Flags: MW
HStem: -4 21G<229 229 505 505> 622 69<131 197> 728 91<228 251 226.5 251.5 483.5 506>
VStem: 194 90<761 785.5> 323 35<316 316 316 320> 450 90<761.5 787 761.5 787>
LayerCount: 2
Fore
SplineSet
194 774 m 0
 194 797 213 819 240 819 c 0
 262 819 284 802 284 774 c 0
 284 746 263 728 240 728 c 0
 216 728 194 748 194 774 c 0
450 774 m 0
 450 800 470 819 494 819 c 0
 518 819 540 800 540 774 c 0
 540 749 518 728 494 728 c 0
 473 728 450 745 450 774 c 0
735 564 m 2
 734 546 l 1
 718 537 l 1
 709 591 678 619 624 619 c 0
 583 619 544 599 514 573 c 0
 421 494 412 342 412 229 c 0
 412 199 409 57 423 41 c 0
 434 29 488 28 505 27 c 1
 508 24 l 1
 508 0 l 1
 505 -4 l 1
 459 -2 413 0 365 0 c 0
 320 0 275 -1 229 -4 c 1
 225 0 l 1
 225 24 l 1
 229 27 l 1
 244 27 302 28 312 41 c 0
 325 59 323 198 323 229 c 2
 323 267 l 2
 323 373 266 622 128 622 c 0
 74 622 46 589 20 547 c 1
 11 546 l 1
 3 558 l 1
 36 631 88 691 174 691 c 0
 344 691 353 437 358 316 c 1
 383 316 l 1
 395 461 426 691 620 691 c 0
 698 691 739 639 735 564 c 2
EndSplineSet
EndChar

StartChar: alphatonos
Encoding: 940 940 255
Width: 594
GlyphClass: 2
Flags: MW
HStem: -16 44<170.5 200> -16 71<417.5 506.5> 437 36<205 290.5> 710 20G<330 330>
LayerCount: 2
Fore
SplineSet
273 527 m 1x70
 318 723 l 1
 330 730 l 1
 374 714 l 1
 380 701 l 1
 289 521 l 1
 273 527 l 1x70
562 97 m 2
 567 94 570 91 571 84 c 1
 545 54 489 -16 443 -16 c 0
 392 -16 381 95 375 128 c 1
 372 131 l 1
 324 64 246 -16 154 -16 c 0
 86 -16 57 33 48 93 c 0
 24 243 121 473 289 473 c 0
 401 473 403 337 414 260 c 1
 421 257 l 1
 447 315 482 391 484 459 c 1
 495 459 l 1
 506 444 516 428 525 413 c 1
 500 343 465 278 426 216 c 1
 432 184 448 55 493 55 c 0
 520 55 539 79 555 97 c 1
 562 97 l 2
368 164 m 1
 364 192 l 2
 355 252 334 437 247 437 c 0
 138 437 105 202 119 115 c 0
 126 70 144 28 197 28 c 0xb0
 268 28 334 113 368 164 c 1
EndSplineSet
EndChar

StartChar: epsilontonos
Encoding: 941 941 256
Width: 480
GlyphClass: 2
Flags: MW
HStem: -13 43<257.5 290> 246 26<250 282.5> 448 20<250.5 306> 710 20G<322 322>
VStem: 107 54 107 78<336 385 336 397>
LayerCount: 2
Fore
SplineSet
265 527 m 1xf8
 310 723 l 1
 322 730 l 1
 366 714 l 1
 372 701 l 1
 281 521 l 1
 265 527 l 1xf8
161 146 m 0
 161 76 219 30 296 30 c 0
 341 30 385 44 428 72 c 1
 436 67 l 1
 421 41 l 1
 371 5 318 -13 262 -13 c 0
 160 -13 69 37 69 132 c 0xf8
 69 197 117 238 212 255 c 1
 212 264 l 1
 142 276 107 309 107 361 c 0
 107 433 165 468 281 468 c 0
 340 468 386 455 419 428 c 1
 403 401 390 379 381 360 c 1
 370 365 l 1
 365 420 334 448 278 448 c 0
 223 448 185 412 185 358 c 0xf4
 185 314 207 272 283 272 c 0
 305 272 327 275 351 279 c 1
 356 273 l 1
 353 260 350 250 348 243 c 1
 338 237 l 1
 315 243 293 246 272 246 c 0
 228 246 161 226 161 146 c 0
EndSplineSet
EndChar

StartChar: etatonos
Encoding: 942 942 257
Width: 531
GlyphClass: 2
Flags: MW
HStem: -275 21G<392 392> 426 47<296 315.5> 710 20G<322 322>
VStem: 163 208
LayerCount: 2
Fore
SplineSet
265 527 m 1
 310 723 l 1
 322 730 l 1
 366 714 l 1
 372 701 l 1
 281 521 l 1
 265 527 l 1
149 473 m 0
 177 473 166 427 162 369 c 1
 169 367 l 1
 204 424 258 473 334 473 c 0
 393 473 438 444 447 382 c 0
 463 277 400 -117 464 -238 c 1
 462 -251 l 1
 437 -255 414 -264 392 -275 c 1
 381 -266 l 1
 373 -234 365 -216 371 -101 c 0
 376 12 394 244 376 356 c 0
 368 402 338 426 293 426 c 0
 121 426 159 137 163 18 c 1
 158 9 l 1
 137 3 117 -6 97 -16 c 1
 87 -6 l 1
 94 73 103 316 93 382 c 0
 91 393 86 401 75 401 c 0
 55 401 19 375 3 364 c 1
 -3 366 l 1
 -11 377 l 1
 -9 383 l 1
 20 404 116 473 149 473 c 0
EndSplineSet
EndChar

StartChar: iotatonos
Encoding: 943 943 258
Width: 310
GlyphClass: 2
Flags: MW
HStem: -16 57<142 222> 710 20G<184 184>
LayerCount: 2
Fore
SplineSet
127 527 m 1
 172 723 l 1
 184 730 l 1
 228 714 l 1
 234 701 l 1
 143 521 l 1
 127 527 l 1
305 83 m 1
 304 75 l 1
 274 45 209 -16 160 -16 c 0
 124 -16 101 7 96 43 c 0
 88 100 109 293 102 449 c 1
 128 454 155 461 178 473 c 1
 189 460 l 1
 171 379 152 165 165 85 c 0
 168 63 182 41 207 41 c 0
 237 41 271 75 289 93 c 1
 299 91 l 1
 305 83 l 1
EndSplineSet
EndChar

StartChar: upsilondieresistonos
Encoding: 944 944 259
Width: 547
GlyphClass: 2
Flags: MW
HStem: -12 36<239.5 308.5> 407 56<118.5 128> 634 91<166.5 189.5 165 190 422 445> 710 20G<303 303>
VStem: 133 90<667 691.5> 388 90<667.5 693 667.5 693>
LayerCount: 2
Fore
SplineSet
245 527 m 1xdc
 291 723 l 1
 303 730 l 1
 346 714 l 1
 352 701 l 1
 261 521 l 1
 245 527 l 1xdc
133 680 m 0
 133 703 151 725 179 725 c 0
 200 725 223 708 223 680 c 0
 223 652 201 634 179 634 c 0xec
 154 634 133 654 133 680 c 0
388 680 m 0
 388 706 408 725 433 725 c 0
 457 725 478 706 478 680 c 0
 478 655 457 634 433 634 c 0
 411 634 388 651 388 680 c 0
487 358 m 0
 511 210 388 -12 229 -12 c 0
 166 -12 127 26 117 88 c 0
 99 200 167 407 89 407 c 0
 67 407 43 382 27 369 c 1
 20 371 l 1
 13 379 l 1
 14 388 l 1
 47 420 92 463 145 463 c 0
 255 463 165 241 188 99 c 0
 194 60 218 24 261 24 c 0
 375 24 440 211 424 311 c 0
 417 353 396 406 351 424 c 1
 348 434 l 1
 369 445 387 458 406 471 c 1
 451 444 479 407 487 358 c 0
EndSplineSet
EndChar

StartChar: alpha
Encoding: 945 945 260
Width: 594
GlyphClass: 2
Flags: MW
HStem: -16 44<170.5 200> -16 71<417.5 506.5> 437 36<205 290.5>
LayerCount: 2
Fore
SplineSet
562 97 m 2x60
 567 94 570 91 571 84 c 1
 545 54 489 -16 443 -16 c 0
 392 -16 381 95 375 128 c 1
 372 131 l 1
 324 64 246 -16 154 -16 c 0
 86 -16 57 33 48 93 c 0
 24 243 121 473 289 473 c 0
 401 473 403 337 414 260 c 1
 421 257 l 1
 447 315 482 391 484 459 c 1
 495 459 l 1
 506 444 516 428 525 413 c 1
 500 343 465 278 426 216 c 1
 432 184 448 55 493 55 c 0
 520 55 539 79 555 97 c 1
 562 97 l 2x60
368 164 m 1
 364 192 l 2
 355 252 334 437 247 437 c 0
 138 437 105 202 119 115 c 0
 126 70 144 28 197 28 c 0xa0
 268 28 334 113 368 164 c 1
EndSplineSet
EndChar

